<mxfile host="Electron" agent="Mozilla/5.0 (Macintosh; Intel Mac OS X 10_15_7) AppleWebKit/537.36 (KHTML, like Gecko) draw.io/27.0.9 Chrome/134.0.6998.205 Electron/35.4.0 Safari/537.36" version="27.0.9" pages="4">
  <diagram id="Ces4t_cZv9fKKQz9l4p8" name="getting-started-integration-scenario">
    <mxGraphModel dx="3764" dy="2658" grid="1" gridSize="10" guides="1" tooltips="1" connect="1" arrows="1" fold="1" page="1" pageScale="1" pageWidth="1169" pageHeight="827" math="0" shadow="0">
      <root>
        <mxCell id="0" />
        <mxCell id="1" parent="0" />
        <mxCell id="dqyKIxcMkx1l8xUgtOrL-1" value="" style="rounded=1;whiteSpace=wrap;html=1;strokeColor=#0070F2;fillColor=#EBF8FF;arcSize=32;absoluteArcSize=1;imageWidth=64;imageHeight=64;strokeWidth=1.5;" parent="1" vertex="1">
          <mxGeometry x="-1190" y="-1110" width="1080" height="520" as="geometry" />
        </mxCell>
        <mxCell id="dqyKIxcMkx1l8xUgtOrL-2" value="" style="rounded=1;whiteSpace=wrap;html=1;strokeColor=#0070F2;strokeWidth=1.5;arcSize=16;fillColor=#FFFFFF;perimeterSpacing=0;absoluteArcSize=1;" parent="1" vertex="1">
          <mxGeometry x="-1164.65" y="-1064.94" width="1024.65" height="444.94" as="geometry" />
        </mxCell>
        <mxCell id="dqyKIxcMkx1l8xUgtOrL-3" value="" style="rounded=1;whiteSpace=wrap;html=1;strokeColor=light-dark(#4ea2a9, #46a6ff);fillColor=#ffffff;arcSize=24;absoluteArcSize=1;imageWidth=64;imageHeight=64;strokeWidth=1.5;" parent="1" vertex="1">
          <mxGeometry x="-1134" y="-1004" width="684" height="364" as="geometry" />
        </mxCell>
        <mxCell id="dqyKIxcMkx1l8xUgtOrL-4" value="" style="rounded=1;whiteSpace=wrap;html=1;strokeColor=#07838f;fillColor=#dafdf5;arcSize=24;absoluteArcSize=1;imageWidth=64;imageHeight=64;strokeWidth=1.5;" parent="1" vertex="1">
          <mxGeometry x="-1120" y="-913" width="650" height="250" as="geometry" />
        </mxCell>
        <mxCell id="dqyKIxcMkx1l8xUgtOrL-5" value="" style="rounded=1;whiteSpace=wrap;html=1;strokeColor=#07838f;fillColor=#FFFFFF;arcSize=24;absoluteArcSize=1;imageWidth=64;imageHeight=64;strokeWidth=1.5;" parent="1" vertex="1">
          <mxGeometry x="-1100" y="-863" width="610" height="183" as="geometry" />
        </mxCell>
        <mxCell id="dqyKIxcMkx1l8xUgtOrL-6" value="&lt;font face=&quot;arial&quot;&gt;&lt;b&gt;Event Broker (&lt;/b&gt;your-event-broker&lt;/font&gt;&lt;font face=&quot;arial&quot;&gt;&lt;b&gt;)&lt;br&gt;&lt;/b&gt;&lt;/font&gt;" style="text;html=1;align=left;verticalAlign=middle;resizable=0;points=[];autosize=1;strokeColor=none;fillColor=none;fontSize=12;fontColor=#1d2d3e;fontFamily=Helvetica;" parent="1" vertex="1">
          <mxGeometry x="-1102" y="-903" width="200" height="30" as="geometry" />
        </mxCell>
        <mxCell id="dqyKIxcMkx1l8xUgtOrL-10" value="&lt;font face=&quot;arial&quot; style=&quot;font-size: 16px;&quot;&gt;&lt;b style=&quot;font-size: 16px;&quot;&gt;SAP Integration Suite, advanced event mesh&lt;/b&gt;&lt;/font&gt;" style="text;html=1;align=center;verticalAlign=middle;resizable=0;points=[[0,0.5,0,0,0],[0.5,0,0,0,0],[0.5,1,0,0,0],[1,0.5,0,0,0]];autosize=1;strokeColor=none;fillColor=none;fontSize=12;fontColor=#1D2D3E;fontFamily=Helvetica;" parent="1" vertex="1">
          <mxGeometry x="-1072.75" y="-983" width="360" height="30" as="geometry" />
        </mxCell>
        <mxCell id="dqyKIxcMkx1l8xUgtOrL-11" value="" style="group" parent="1" vertex="1" connectable="0">
          <mxGeometry x="-1151" y="-991" width="110" height="95" as="geometry" />
        </mxCell>
        <mxCell id="dqyKIxcMkx1l8xUgtOrL-12" value="" style="shape=image;verticalLabelPosition=bottom;verticalAlign=top;imageAspect=0;aspect=fixed;image=data:image/svg+xml,PHN2ZyB4bWxucz0iaHR0cDovL3d3dy53My5vcmcvMjAwMC9zdmciIGZpbGw9Im5vbmUiIHZpZXdCb3g9IjAgMCA0OCA0OCIgaGVpZ2h0PSI0OCIgd2lkdGg9IjQ4Ij4mI3hhOzxjaXJjbGUgc3Ryb2tlLXdpZHRoPSIwLjg1NzE0MyIgc3Ryb2tlPSIjRDVEQUREIiBmaWxsPSJ1cmwoI3BhaW50MF9saW5lYXJfMzIzMl80NjI2KSIgcj0iMjMuNTcxNCIgY3k9IjI0IiBjeD0iMjQiLz4mI3hhOzxnIGNsaXAtcGF0aD0idXJsKCNjbGlwMF8zMjMyXzQ2MjYpIj4mI3hhOzxwYXRoIGZpbGw9InVybCgjcGFpbnQxX2xpbmVhcl8zMjMyXzQ2MjYpIiBkPSJNMTUuNTc4MiAxOC40NjI1QzE2LjAwMTkgMTUuNDE2MyAxOC41NDU0IDEyLjQ5ODUgMjIuMTI1MyAxMi40OTg1QzI0Ljk3MzMgMTIuNDk4NSAyNy4xMDU1IDE0LjA5ODEgMjguMjU0MiAxNi40NzY0QzI5Ljc4MjUgMTYuNjIxIDMxLjE3MjcgMTcuNDE3NCAzMi4xMzc1IDE4LjYzNTFDMzEuNzY3NCAxOS4wNzUyIDMxLjU0NDQgMTkuNjQzMiAzMS41NDQ0IDIwLjI2MzJWMjAuNDMyNEgzMS4zNzU1QzI5Ljk3NzUgMjAuNDMyNCAyOC44NDQyIDIxLjU2NTcgMjguODQ0MiAyMi45NjM3QzI4Ljg0NDIgMjMuMzYwNiAyOC45MzU1IDIzLjczNjEgMjkuMDk4MyAyNC4wNzA0QzI5LjA4MzYgMjQuMDcwMiAyOS4wNjg4IDI0LjA3MDEgMjkuMDU0MSAyNC4wNzAxQzI3LjYzMzUgMjQuMDcwMSAyNi4zODgxIDI0Ljk5MzUgMjUuOTU4MyAyNi4zMzYxTDI1Ljg5NDcgMjYuNTM1TDI1LjgyNTcgMjYuMzI0MkMyNS4zODgyIDI0Ljk4NjggMjQuMTQzMiAyNC4wNzAxIDIyLjcyNTQgMjQuMDcwMUMyMC45MDkzIDI0LjA3MDEgMTkuNDYyMiAyNS41NTEgMTkuNDYyMiAyNy4zNDY3VjI4LjgwMTRIMTYuMzAwOUMxNC42OTc2IDI4LjgwMTQgMTMuMzM2IDI4LjMwMjIgMTIuMzc2OSAyNy4zMTY3QzExLjQyNDIgMjYuMzM3OSAxMC45OTk5IDI1LjAxMzkgMTAuOTk5OSAyMy42MTMzQzEwLjk5OTkgMjIuMTA2MSAxMS41NTE3IDIwLjY3NjkgMTIuNjIwMSAxOS42OTIzQzEzLjQwOTggMTguOTY0NCAxNC40MjY2IDE4LjUzMTEgMTUuNTc4MiAxOC40NjI1WiIvPiYjeGE7PHBhdGggZmlsbD0idXJsKCNwYWludDJfbGluZWFyXzMyMzJfNDYyNikiIGQ9Ik0zMy4yMzIgMjAuNzU3MkMzMy40MDU2IDIxLjM0NzggMzMuNDk5OSAyMS45ODEgMzMuNDk5OSAyMi42NDQ3QzMzLjQ5OTkgMjMuMzI4NSAzMy40MDU1IDIzLjk2NiAzMy4yMzIgMjQuNTUxNlYyMy44MDc1SDMxLjM3NTVDMzAuOTA5NSAyMy44MDc1IDMwLjUzMTcgMjMuNDI5NyAzMC41MzE3IDIyLjk2MzdDMzAuNTMxNyAyMi40OTc3IDMwLjkwOTUgMjIuMTE5OSAzMS4zNzU1IDIyLjExOTlIMzMuMjMyVjIwLjc1NzJaIi8+JiN4YTs8cGF0aCBmaWxsPSJ1cmwoI3BhaW50M19saW5lYXJfMzIzMl80NjI2KSIgZD0iTTMzLjc2MjUgMzUuODk5OUMzMy4zNjcgMzYuMzAyMiAzMi45NzYyIDM2LjkyNTkgMzMuMzcxOCAzNy4zMjgyQzMzLjc2NzMgMzcuNzMwNiAzNC4yMTYyIDM3Ljc1ODcgMzQuNjExNyAzNy4zNTYzTDM3LjY0ODcgMzQuMjY3NEMzOC4wNDQzIDMzLjg2NSAzOC4wNDQzIDMzLjIxMzMgMzcuNjQ4NyAzMi44MTA5TDM0LjYxMTcgMjkuNzIyQzM0LjIxNjIgMjkuMzE5NiAzMy43NTE0IDI5LjE1MjEgMzMuMzU1OCAyOS41NTQ1QzMyLjg2MTEgMjkuOTQwNyAzMy41NDk4IDMwLjc3NjEgMzMuOTQ1MyAzMS4xNzg0TDM1LjA3OTIgMzIuNTMyTDI4LjgzNTcgMzIuNTM4M0wyOC44MzUzIDMzLjMzOTVDMjguODM0OSAzMy44OTIxIDI5LjI3OTIgMzQuMzM5OCAyOS44MjcgMzQuMzM5MkwzNS4xOTA5IDM0LjMzMzVMMzMuNzYyNSAzNS44OTk5WiIvPiYjeGE7PHBhdGggZmlsbD0idXJsKCNwYWludDRfbGluZWFyXzMyMzJfNDYyNikiIGQ9Ik0yMS4xNTMgMjcuMjE0MUMyMS4xNTMgMjYuMzU3NCAyMS44NDE2IDI1LjY2MjggMjIuNjkxIDI1LjY2MjhDMjMuMzU0NyAyNS42NjI4IDIzLjk0MzYgMjYuMDkyMyAyNC4xNTE2IDI2LjcyODFMMjUuNDEzIDMwLjU4NDFDMjUuNDgzMiAzMC43OTY1IDI1LjU2NTggMzEuMDk0MiAyNS42NjA3IDMxLjQ3NzJDMjUuNzU1NiAzMS44NjAzIDI1LjgxNzYgMzIuMTE0MyAyNS44NDY1IDMyLjIzOTJDMjUuODc5NSAzMi4xMTQzIDI1Ljk0NTUgMzEuODY0NCAyNi4wNDQ2IDMxLjQ4OTdDMjYuMTQ3OCAzMS4xMTA4IDI2LjIzNDUgMzAuODE5NCAyNi4zMDQ3IDMwLjYxNTRMMjcuNTQ4NCAyNi43Mjk1QzI3Ljc1MTkgMjYuMDkzNyAyOC4zMzg3IDI1LjY2MjggMjkuMDAxMSAyNS42NjI4QzI5Ljg0NDIgMjUuNjYyOCAzMC41Mjc2IDI2LjM1MjIgMzAuNTI3NiAyNy4yMDI1VjMyLjUzNjZMMjguODM1NyAzMi41MzgzTDI4LjgzNzIgMjkuMTI5QzI4LjgzNzIgMjguNjc5MyAyOC44NDc1IDI4LjI1NDYgMjguODY4MSAyNy44NTQ5QzI4Ljg5MjkgMjcuNDU1MiAyOC44ODI3IDI3LjI5NjMgMjguOTA1MyAyNy4yMjQyQzI4LjkwMTIgMjcuMjI4MyAyOC44NTk5IDI3LjM3NDEgMjguNzgxNSAyNy42NjEzQzI4Ljc0MDIgMjcuNzk4NyAyOC42NTM1IDI4LjA5NDQgMjguNTIxNCAyOC41NDgyQzI4LjM5MzQgMjkuMDAyIDI4LjI5MjMgMjkuMzM3MiAyOC4yMTggMjkuNTUzN0wyNi44MTk5IDMzLjc1MjFDMjYuNjc4NSAzNC4xNzY1IDI2LjI4NDIgMzQuNDYyNSAyNS44NDAzIDM0LjQ2MjVDMjUuMzk2MyAzNC40NjI1IDI1LjAwMiAzNC4xNzY1IDI0Ljg2MDcgMzMuNzUyMUwyMy40NjI2IDI5LjU1MzdDMjMuMzc1OSAyOS4yOTk3IDIzLjI1MiAyOC45MDIxIDIzLjA5MSAyOC4zNjA4QzIyLjkzNDIgMjcuODE1NCAyMi44MjQ4IDI3LjQzNjUgMjIuNzYyOSAyNy4yMjQyTDIyLjc3NTIgMjcuNDA1M0MyMi43Nzk0IDI3LjQ3MTkgMjIuNzkxOCAyNy43MDcxIDIyLjgxMjQgMjguMTExQzIyLjgzMyAyOC41MTA3IDIyLjg0MzQgMjguODUgMjIuODQzNCAyOS4xMjlWMzMuNjFDMjIuODQzNCAzNC4wODA4IDIyLjQ2NDkgMzQuNDYyNSAyMS45OTgyIDM0LjQ2MjVDMjEuNTMxNCAzNC40NjI1IDIxLjE1MyAzNC4wODA4IDIxLjE1MyAzMy42MVYyNy4yMTQxWiIvPiYjeGE7PHBhdGggZmlsbD0idXJsKCNwYWludDVfbGluZWFyXzMyMzJfNDYyNikiIGQ9Ik0zNC45MTk1IDIwLjI2MzJDMzQuOTE5NSAxOS43OTcyIDM0LjU0MTggMTkuNDE5NCAzNC4wNzU4IDE5LjQxOTRDMzMuNjA5OCAxOS40MTk0IDMzLjIzMiAxOS43OTcyIDMzLjIzMiAyMC4yNjMyVjIyLjExOTlIMzEuMzc1NUMzMC45MDk1IDIyLjExOTkgMzAuNTMxNyAyMi40OTc3IDMwLjUzMTcgMjIuOTYzN0MzMC41MzE3IDIzLjQyOTcgMzAuOTA5NSAyMy44MDc1IDMxLjM3NTUgMjMuODA3NUgzMy4yMzJWMjUuNjYzM0MzMy4yMzIgMjYuMTI5MyAzMy42MDk4IDI2LjUwNzEgMzQuMDc1OCAyNi41MDcxQzM0LjU0MTggMjYuNTA3MSAzNC45MTk1IDI2LjEyOTMgMzQuOTE5NSAyNS42NjMzVjIzLjgwNzVIMzYuNzc1NUMzNy4yNDE1IDIzLjgwNzUgMzcuNjE5MyAyMy40Mjk3IDM3LjYxOTMgMjIuOTYzN0MzNy42MTkzIDIyLjQ5NzcgMzcuMjQxNSAyMi4xMTk5IDM2Ljc3NTUgMjIuMTE5OUgzNC45MTk1VjIwLjI2MzJaIi8+JiN4YTs8L2c+JiN4YTs8ZGVmcz4mI3hhOzxsaW5lYXJHcmFkaWVudCBncmFkaWVudFVuaXRzPSJ1c2VyU3BhY2VPblVzZSIgeTI9IjQ0LjI0NDMiIHgyPSI0MS4wNjQ1IiB5MT0iNi44MTI4NCIgeDE9IjQuMzUyODciIGlkPSJwYWludDBfbGluZWFyXzMyMzJfNDYyNiI+JiN4YTs8c3RvcCBzdG9wLWNvbG9yPSJ3aGl0ZSIvPiYjeGE7PHN0b3Agc3RvcC1jb2xvcj0iI0VBRUNFRSIgb2Zmc2V0PSIxIi8+JiN4YTs8L2xpbmVhckdyYWRpZW50PiYjeGE7PGxpbmVhckdyYWRpZW50IGdyYWRpZW50VW5pdHM9InVzZXJTcGFjZU9uVXNlIiB5Mj0iMjkuOTEwOCIgeDI9IjI1LjIxODkiIHkxPSIxNC45MzY1IiB4MT0iMTQuMzcyNyIgaWQ9InBhaW50MV9saW5lYXJfMzIzMl80NjI2Ij4mI3hhOzxzdG9wIHN0b3AtY29sb3I9IiMwMTk1RkYiLz4mI3hhOzxzdG9wIHN0b3AtY29sb3I9IiMxMTQ3RTkiIG9mZnNldD0iMC45OTEwMjgiLz4mI3hhOzwvbGluZWFyR3JhZGllbnQ+JiN4YTs8bGluZWFyR3JhZGllbnQgZ3JhZGllbnRVbml0cz0idXNlclNwYWNlT25Vc2UiIHkyPSIyOS45MTA4IiB4Mj0iMjUuMjE4OSIgeTE9IjE0LjkzNjUiIHgxPSIxNC4zNzI3IiBpZD0icGFpbnQyX2xpbmVhcl8zMjMyXzQ2MjYiPiYjeGE7PHN0b3Agc3RvcC1jb2xvcj0iIzAxOTVGRiIvPiYjeGE7PHN0b3Agc3RvcC1jb2xvcj0iIzExNDdFOSIgb2Zmc2V0PSIwLjk5MTAyOCIvPiYjeGE7PC9saW5lYXJHcmFkaWVudD4mI3hhOzxsaW5lYXJHcmFkaWVudCBncmFkaWVudFVuaXRzPSJ1c2VyU3BhY2VPblVzZSIgeTI9IjM4LjU3MDgiIHgyPSIzMS41NTM3IiB5MT0iMjcuNDI1NiIgeDE9IjIzLjYzNTYiIGlkPSJwYWludDNfbGluZWFyXzMyMzJfNDYyNiI+JiN4YTs8c3RvcCBzdG9wLWNvbG9yPSIjMTM0OEZGIi8+JiN4YTs8c3RvcCBzdG9wLWNvbG9yPSIjMDYyMzhEIiBvZmZzZXQ9IjEiLz4mI3hhOzwvbGluZWFyR3JhZGllbnQ+JiN4YTs8bGluZWFyR3JhZGllbnQgZ3JhZGllbnRVbml0cz0idXNlclNwYWNlT25Vc2UiIHkyPSIzOC41NzA4IiB4Mj0iMzEuNTUzNyIgeTE9IjI3LjQyNTYiIHgxPSIyMy42MzU2IiBpZD0icGFpbnQ0X2xpbmVhcl8zMjMyXzQ2MjYiPiYjeGE7PHN0b3Agc3RvcC1jb2xvcj0iIzEzNDhGRiIvPiYjeGE7PHN0b3Agc3RvcC1jb2xvcj0iIzA2MjM4RCIgb2Zmc2V0PSIxIi8+JiN4YTs8L2xpbmVhckdyYWRpZW50PiYjeGE7PGxpbmVhckdyYWRpZW50IGdyYWRpZW50VW5pdHM9InVzZXJTcGFjZU9uVXNlIiB5Mj0iMjUuNDQyIiB4Mj0iMzYuNTU1MiIgeTE9IjIwLjQ4MjgiIHgxPSIzMS41OTI0IiBpZD0icGFpbnQ1X2xpbmVhcl8zMjMyXzQ2MjYiPiYjeGE7PHN0b3Agc3RvcC1jb2xvcj0iIzAwQkJGRiIvPiYjeGE7PHN0b3Agc3RvcC1jb2xvcj0iIzAwOEJGRiIgb2Zmc2V0PSIxIi8+JiN4YTs8L2xpbmVhckdyYWRpZW50PiYjeGE7PGNsaXBQYXRoIGlkPSJjbGlwMF8zMjMyXzQ2MjYiPiYjeGE7PHJlY3QgdHJhbnNmb3JtPSJ0cmFuc2xhdGUoMTEgMTIuNSkiIGZpbGw9IndoaXRlIiBoZWlnaHQ9IjI3LjAwMDYiIHdpZHRoPSIyNyIvPiYjeGE7PC9jbGlwUGF0aD4mI3hhOzwvZGVmcz4mI3hhOzwvc3ZnPg==" parent="dqyKIxcMkx1l8xUgtOrL-11" vertex="1">
          <mxGeometry x="31.5" width="48" height="48" as="geometry" />
        </mxCell>
        <mxCell id="dqyKIxcMkx1l8xUgtOrL-13" value="" style="shape=image;verticalLabelPosition=bottom;labelBackgroundColor=default;verticalAlign=top;aspect=fixed;imageAspect=0;image=data:image/svg+xml,PHN2ZyB4bWxuczp4bGluaz0iaHR0cDovL3d3dy53My5vcmcvMTk5OS94bGluayIgeG1sbnM9Imh0dHA6Ly93d3cudzMub3JnLzIwMDAvc3ZnIiB2aWV3Qm94PSIwIDAgMTQ0Ljc0NyAzOS44MzIiIGlkPSJhIj48ZGVmcz48bGluZWFyR3JhZGllbnQgZ3JhZGllbnRVbml0cz0idXNlclNwYWNlT25Vc2UiIHkyPSIzOS44MzIiIHgyPSI0MC4yNTgiIHkxPSIwIiB4MT0iNDAuMjU4IiBpZD0iYiI+PHN0b3Agc3RvcC1jb2xvcj0iIzAwYjhmMSIgb2Zmc2V0PSIwIi8+PHN0b3Agc3RvcC1jb2xvcj0iIzAwYjVlZiIgb2Zmc2V0PSIuMDE2Ii8+PHN0b3Agc3RvcC1jb2xvcj0iIzBkOTBkOCIgb2Zmc2V0PSIuMzA4Ii8+PHN0b3Agc3RvcC1jb2xvcj0iIzE2NzVjOCIgb2Zmc2V0PSIuNTc4Ii8+PHN0b3Agc3RvcC1jb2xvcj0iIzFjNjRiZSIgb2Zmc2V0PSIuODE3Ii8+PHN0b3Agc3RvcC1jb2xvcj0iIzFlNWZiYiIgb2Zmc2V0PSIxIi8+PC9saW5lYXJHcmFkaWVudD48L2RlZnM+PHBvbHlsaW5lIGZpbGwtcnVsZT0iZXZlbm9kZCIgZmlsbD0idXJsKCNiKSIgcG9pbnRzPSIwIDM5LjgzMiA0MC42OTIgMzkuODMyIDgwLjUxNyAwIDAgMCAwIDM5LjgzMiIvPjxwYXRoIGZpbGwtcnVsZT0iZXZlbm9kZCIgZmlsbD0iI2ZmZiIgZD0ibTQ3Ljc4Miw3LjQ4OWwtNy45MjUtLjAwNXYxOC44NDVsLTYuOTI0LTE4Ljg0NWgtNi44NjVsLTUuOTEyLDE1Ljc1OWMtLjYzLTMuOTczLTQuNzQtNS4zNDUtNy45NzQtNi4zNzQtMi4xMzUtLjY4Ni00LjQwMS0xLjY5NC00LjM4LTIuODA5LjAxNy0uOTE1LDEuMjE1LTEuNzY1LDMuNTg5LTEuNjM3LDEuNTk1LjA4NCwzLjAwMS4yMTMsNS44LDEuNTYzbDIuNzUzLTQuNzk1Yy0yLjU1NS0xLjMtNi4wODYtMi4xMjEtOC45NzgtMi4xMjRoLS4wMTdjLTMuMzc0LDAtNi4xODUsMS4wOTMtNy45MjgsMi44OTQtMS4yMTQsMS4yNTgtMS44NjksMi44NTYtMS44OTYsNC42MjMtLjA0NCwyLjQzMi44NDgsNC4xNTcsMi43MjEsNS41MzMsMS41ODMsMS4xNiwzLjYwNiwxLjkxMiw1LjM5LDIuNDY1LDIuMjAxLjY4MSwzLjk5NiwxLjI3NCwzLjk3NSwyLjUzOS0uMDE2LjQ1OS0uMTkxLjg4OC0uNTIxLDEuMjM2LS41NDguNTY2LTEuMzkxLjc3OS0yLjU1NS43OTktMi4yNDQuMDQ4LTMuOTEtLjMwMy02LjU2Mi0xLjg3bC0yLjQ0OCw0Ljg2MWMyLjY0NCwxLjUwNiw1Ljc3NiwyLjM4OCw4Ljk3MiwyLjM4OGwuNDExLS4wMDZjMi43ODItLjA1LDUuMDI2LS44NDIsNi44Mi0yLjI4Ni4xMDMtLjA4MS4xOTYtLjE2Ni4yOTEtLjI1bC0uNzk1LDIuMTIzaDcuMmwxLjIwOC0zLjY3NGMxLjI2NS40MzMsMi43MDQuNjcxLDQuMjMyLjY3MSwxLjQ4NywwLDIuODg5LS4yMjksNC4xMzEtLjYzNWwxLjE2NCwzLjYzN2gxMS43NDJ2LTcuNjA3aDIuNTYxYzYuMTg4LDAsOS44NTEtMy4xNTQsOS44NTEtOC40MzYsMC01Ljg4NS0zLjU1Ny04LjU4NS0xMS4xMzItOC41ODVabS0xOC4zMTcsMTYuMTI0Yy0uOTI1LDAtMS43OTItLjE2LTIuNTM5LS40NDNsMi41MTItNy45MjZoLjA0OGwyLjQ2OCw3Ljk0OGMtLjc0Mi4yNjMtMS41ODkuNDIxLTIuNDg4LjQyMVptMTguNzgzLTQuNTUzaC0xLjc0NnYtNi4zODZoMS43NDZjMi4zMjgsMCw0LjE4NS43NzMsNC4xODUsMy4xNTEsMCwyLjQ2MS0xLjg1NywzLjIzNi00LjE4NSwzLjIzNiIvPjxwYXRoIGZpbGw9IiMwMDJhODYiIGQ9Im04MC4yMTcsNy40MDFoMTAuMDYzYzUuNTk1LDAsOC42NzQsMS45MTcsOC42NzQsNi4xNTgsMCwyLjkwMy0xLjUxMyw1LjAxNC00LjMxMSw1LjcsMy4yOS40NTgsNS4yNzgsMi41ODYsNS4yNzgsNS44OTQsMCw1LjAxNC00LjA2NCw3LjAzNy05LjE4NCw3LjAzN2gtMTAuNTIxVjcuNDAxWm0xMy45NjksNi44MjZjMC0yLjE2NC0xLjQ5Ni0yLjk3My00LjI0LTIuOTczaC01LjA0OXY2LjI5OGg0Ljg5MWMzLjIwMiwwLDQuMzk4LTEuMTYxLDQuMzk4LTMuMzI1Wm0xLjAyMSwxMC41MjFjMC0yLjM1Ny0xLjc3Ny0zLjQ2Ni00LjgzOS0zLjQ2NmgtNS40NzF2Ny4wNTVoNS41MDZjMi44MTUsMCw0LjgwNC0uNzc0LDQuODA0LTMuNTg5WiIvPjxwYXRoIGZpbGw9IiMwMDJhODYiIGQ9Im0xMDkuMDUxLDExLjVoLTcuNTgzdi00LjA5OWgxOS44NDZ2NC4wOTloLTcuNTY1djIwLjY5aC00LjY5N1YxMS41WiIvPjxwYXRoIGZpbGw9IiMwMDJhODYiIGQ9Im0xMjUuMTQ4LDcuNDAxaDEwLjUwNGM2LjE5MiwwLDkuMDk2LDMuMTg1LDkuMDk2LDcuODk5LDAsNC4zOTgtMi44MzMsOC4xNDYtOC44NSw4LjE0NmgtNi4wN3Y4Ljc0NGgtNC42OFY3LjQwMVptMTQuOTAyLDcuOTUyYzAtMi41NTEtMS42ODktMy45MjMtNC45NDQtMy45MjNoLTUuMjc4djguMDRoNS40MTljMy4yNzIsMCw0LjgwNC0xLjU4Myw0LjgwNC00LjExN1oiLz48L3N2Zz4=;strokeWidth=1.5;" parent="1" vertex="1">
          <mxGeometry x="-1164.6494555353902" y="-1097.6733941983941" width="91.90426497277676" height="25.3505444646098" as="geometry" />
        </mxCell>
        <mxCell id="dqyKIxcMkx1l8xUgtOrL-14" value="&lt;font face=&quot;arial&quot; style=&quot;font-size: 16px;&quot;&gt;&lt;b style=&quot;font-size: 16px;&quot;&gt;Subaccount&lt;/b&gt;&lt;/font&gt;" style="text;html=1;align=left;verticalAlign=middle;resizable=0;points=[];autosize=1;strokeColor=none;fillColor=none;fontSize=12;fontColor=#1d2d3e;fontFamily=Helvetica;" parent="1" vertex="1">
          <mxGeometry x="-1149.0018148820327" y="-1047.3604584304585" width="120" height="30" as="geometry" />
        </mxCell>
        <mxCell id="dqyKIxcMkx1l8xUgtOrL-15" value="&lt;div style=&quot;&quot;&gt;&lt;code&gt;&lt;i&gt;&lt;font face=&quot;Arial&quot; style=&quot;font-size: 11px;&quot;&gt;(Topic)&lt;br&gt;default/sap.s4/S4D/&lt;br&gt;ce/sap/s4/beh/businesspartner/&lt;br&gt;v1/BusinessPartner/Created/v1&lt;/font&gt;&lt;/i&gt;&lt;/code&gt;&lt;br&gt;&lt;/div&gt;" style="text;html=1;align=center;verticalAlign=middle;resizable=0;points=[[0,0.5,0,0,0],[0.5,0,0,0,0],[0.5,1,0,0,0],[1,0.5,0,0,0]];autosize=1;strokeColor=none;fillColor=none;fontSize=12;fontColor=#556B82;fontFamily=Helvetica;" parent="1" vertex="1">
          <mxGeometry x="-1085" y="-776" width="180" height="70" as="geometry" />
        </mxCell>
        <mxCell id="dqyKIxcMkx1l8xUgtOrL-21" value="" style="shape=image;verticalLabelPosition=bottom;verticalAlign=top;imageAspect=0;aspect=fixed;image=data:image/svg+xml,PHN2ZyB4bWxucz0iaHR0cDovL3d3dy53My5vcmcvMjAwMC9zdmciIGZpbGw9Im5vbmUiIHZpZXdCb3g9IjAgMCAxNiAxNiIgaGVpZ2h0PSIxNiIgd2lkdGg9IjE2Ij4mI3hhOzxnIGNsaXAtcGF0aD0idXJsKCNjbGlwMF82OTNfMTIyNikiPiYjeGE7PHBhdGggZmlsbD0idXJsKCNwYWludDBfbGluZWFyXzY5M18xMjI2KSIgZD0iTTEyLjgxMjUgOS42MjVDMTMuMjUgOS42MjUgMTMuNjU2MiA5LjcwODMzIDE0LjAzMTIgOS44NzVDMTQuNDI3MSAxMC4wNDE3IDE0Ljc3MDggMTAuMjcwOCAxNS4wNjI1IDEwLjU2MjVDMTUuMzU0MiAxMC44NTQyIDE1LjU4MzMgMTEuMTk3OSAxNS43NSAxMS41OTM4QzE1LjkxNjcgMTEuOTY4OCAxNiAxMi4zNzUgMTYgMTIuODEyNUMxNiAxMy4yNSAxNS45MTY3IDEzLjY2NjcgMTUuNzUgMTQuMDYyNUMxNS41ODMzIDE0LjQzNzUgMTUuMzU0MiAxNC43NjA0IDE1LjA2MjUgMTUuMDMxMkMxNC43NzA4IDE1LjMyMjkgMTQuNDI3MSAxNS41NTIxIDE0LjAzMTIgMTUuNzE4OEMxMy42NTYyIDE1Ljg4NTQgMTMuMjUgMTUuOTY4OCAxMi44MTI1IDE1Ljk2ODhDMTIuMzc1IDE1Ljk2ODggMTEuOTU4MyAxNS44ODU0IDExLjU2MjUgMTUuNzE4OEMxMS4xODc1IDE1LjU1MjEgMTAuODU0MiAxNS4zMjI5IDEwLjU2MjUgMTUuMDMxMkMxMC4yNzA4IDE0Ljc2MDQgMTAuMDQxNyAxNC40Mzc1IDkuODc1IDE0LjA2MjVDOS43MDgzMyAxMy42NjY3IDkuNjI1IDEzLjI1IDkuNjI1IDEyLjgxMjVWMTIuNDA2Mkw1LjQwNjI1IDEwLjM0MzhDNC43NjA0MiAxMC45MjcxIDQuMDIwODMgMTEuMjE4OCAzLjE4NzUgMTEuMjE4OEMyLjc1IDExLjIxODggMi4zMzMzMyAxMS4xMzU0IDEuOTM3NSAxMC45Njg4QzEuNTYyNSAxMC44MDIxIDEuMjI5MTcgMTAuNTcyOSAwLjkzNzUgMTAuMjgxMkMwLjY2NjY2NyA5Ljk4OTU4IDAuNDQ3OTE3IDkuNjU2MjUgMC4yODEyNSA5LjI4MTI1QzAuMTE0NTgzIDguODg1NDIgMC4wMzEyNSA4LjQ2ODc1IDAuMDMxMjUgOC4wMzEyNUMwLjAzMTI1IDcuNTkzNzUgMC4xMTQ1ODMgNy4xODc1IDAuMjgxMjUgNi44MTI1QzAuNDQ3OTE3IDYuNDE2NjcgMC42NjY2NjcgNi4wODMzMyAwLjkzNzUgNS44MTI1QzEuMjI5MTcgNS41MjA4MyAxLjU2MjUgNS4yOTE2NyAxLjkzNzUgNS4xMjVDMi4zMzMzMyA0Ljk1ODMzIDIuNzUgNC44NzUgMy4xODc1IDQuODc1QzMuNjI1IDQuODc1IDQuMDMxMjUgNC45NDc5MiA0LjQwNjI1IDUuMDkzNzVDNC44MDIwOCA1LjIzOTU4IDUuMTM1NDIgNS40NTgzMyA1LjQwNjI1IDUuNzVMOS42MjUgMy42NTYyNVYzLjI4MTI1QzkuNjI1IDIuODQzNzUgOS43MDgzMyAyLjQzNzUgOS44NzUgMi4wNjI1QzEwLjA0MTcgMS42NjY2NyAxMC4yNzA4IDEuMzIyOTIgMTAuNTYyNSAxLjAzMTI1QzEwLjg1NDIgMC43Mzk1ODMgMTEuMTg3NSAwLjUxMDQxNyAxMS41NjI1IDAuMzQzNzVDMTEuOTU4MyAwLjE3NzA4MyAxMi4zNzUgMC4wOTM3NSAxMi44MTI1IDAuMDkzNzVDMTMuMjUgMC4wOTM3NSAxMy42NTYyIDAuMTc3MDgzIDE0LjAzMTIgMC4zNDM3NUMxNC40MjcxIDAuNTEwNDE3IDE0Ljc3MDggMC43Mzk1ODMgMTUuMDYyNSAxLjAzMTI1QzE1LjM1NDIgMS4zMjI5MiAxNS41ODMzIDEuNjY2NjcgMTUuNzUgMi4wNjI1QzE1LjkxNjcgMi40Mzc1IDE2IDIuODQzNzUgMTYgMy4yODEyNUMxNiAzLjcxODc1IDE1LjkxNjcgNC4xMzU0MiAxNS43NSA0LjUzMTI1QzE1LjU4MzMgNC45MDYyNSAxNS4zNTQyIDUuMjM5NTggMTUuMDYyNSA1LjUzMTI1QzE0Ljc3MDggNS44MDIwOCAxNC40MjcxIDYuMDIwODMgMTQuMDMxMiA2LjE4NzVDMTMuNjU2MiA2LjM1NDE3IDEzLjI1IDYuNDM3NSAxMi44MTI1IDYuNDM3NUMxMi4yNSA2LjQzNzUgMTEuNzM5NiA2LjMyMjkyIDExLjI4MTIgNi4wOTM3NUMxMC44NDM4IDUuODQzNzUgMTAuNDc5MiA1LjUxMDQyIDEwLjE4NzUgNS4wOTM3NUw2LjI4MTI1IDcuMDkzNzVDNi4zODU0MiA3LjQ0NzkyIDYuNDM3NSA3Ljc2MDQyIDYuNDM3NSA4LjAzMTI1QzYuNDM3NSA4LjMyMjkyIDYuMzg1NDIgOC42NDU4MyA2LjI4MTI1IDlMMTAuMTg3NSAxMC45Njg4QzEwLjUgMTAuNTcyOSAxMC44NzUgMTAuMjUgMTEuMzEyNSAxMEMxMS43NSA5Ljc1IDEyLjI1IDkuNjI1IDEyLjgxMjUgOS42MjVaTTEyLjgxMjUgMS42ODc1QzEyLjM3NSAxLjY4NzUgMTIgMS44NDM3NSAxMS42ODc1IDIuMTU2MjVDMTEuMzc1IDIuNDY4NzUgMTEuMjE4OCAyLjg0Mzc1IDExLjIxODggMy4yODEyNUMxMS4yMTg4IDMuNzE4NzUgMTEuMzc1IDQuMDkzNzUgMTEuNjg3NSA0LjQwNjI1QzEyIDQuNzE4NzUgMTIuMzc1IDQuODc1IDEyLjgxMjUgNC44NzVDMTMuMjUgNC44NzUgMTMuNjI1IDQuNzE4NzUgMTMuOTM3NSA0LjQwNjI1QzE0LjI1IDQuMDkzNzUgMTQuNDA2MiAzLjcxODc1IDE0LjQwNjIgMy4yODEyNUMxNC40MDYyIDIuODQzNzUgMTQuMjUgMi40Njg3NSAxMy45Mzc1IDIuMTU2MjVDMTMuNjI1IDEuODQzNzUgMTMuMjUgMS42ODc1IDEyLjgxMjUgMS42ODc1Wk0zLjI4MTI1IDkuNjI1QzMuNzE4NzUgOS42MjUgNC4wOTM3NSA5LjQ2ODc1IDQuNDA2MjUgOS4xNTYyNUM0LjcxODc1IDguODQzNzUgNC44NzUgOC40Njg3NSA0Ljg3NSA4LjAzMTI1QzQuODc1IDcuNTkzNzUgNC43MTg3NSA3LjIxODc1IDQuNDA2MjUgNi45MDYyNUM0LjA5Mzc1IDYuNTkzNzUgMy43MTg3NSA2LjQzNzUgMy4yODEyNSA2LjQzNzVDMi44NDM3NSA2LjQzNzUgMi40Njg3NSA2LjU5Mzc1IDIuMTU2MjUgNi45MDYyNUMxLjg0Mzc1IDcuMjE4NzUgMS42ODc1IDcuNTkzNzUgMS42ODc1IDguMDMxMjVDMS42ODc1IDguNDY4NzUgMS44NDM3NSA4Ljg0Mzc1IDIuMTU2MjUgOS4xNTYyNUMyLjQ2ODc1IDkuNDY4NzUgMi44NDM3NSA5LjYyNSAzLjI4MTI1IDkuNjI1Wk0xMi44MTI1IDE0LjQwNjJDMTMuMjUgMTQuNDA2MiAxMy42MjUgMTQuMjUgMTMuOTM3NSAxMy45Mzc1QzE0LjI1IDEzLjYyNSAxNC40MDYyIDEzLjI1IDE0LjQwNjIgMTIuODEyNUMxNC40MDYyIDEyLjM3NSAxNC4yNSAxMiAxMy45Mzc1IDExLjY4NzVDMTMuNjI1IDExLjM3NSAxMy4yNSAxMS4yMTg4IDEyLjgxMjUgMTEuMjE4OEMxMi4zNzUgMTEuMjE4OCAxMiAxMS4zNzUgMTEuNjg3NSAxMS42ODc1QzExLjM3NSAxMiAxMS4yMTg4IDEyLjM3NSAxMS4yMTg4IDEyLjgxMjVDMTEuMjE4OCAxMy4yNSAxMS4zNzUgMTMuNjI1IDExLjY4NzUgMTMuOTM3NUMxMiAxNC4yNSAxMi4zNzUgMTQuNDA2MiAxMi44MTI1IDE0LjQwNjJaIi8+JiN4YTs8L2c+JiN4YTs8ZGVmcz4mI3hhOzxsaW5lYXJHcmFkaWVudCBncmFkaWVudFVuaXRzPSJ1c2VyU3BhY2VPblVzZSIgeTI9IjkuODc3MjMiIHgyPSIxNi4xNTI5IiB5MT0iMS41ODcwOCIgeDE9IjIuMDk1MDYiIGlkPSJwYWludDBfbGluZWFyXzY5M18xMjI2Ij4mI3hhOzxzdG9wIHN0b3AtY29sb3I9IiMyMzk1RkYiLz4mI3hhOzxzdG9wIHN0b3AtY29sb3I9IiMwMDU3RDIiIG9mZnNldD0iMSIvPiYjeGE7PC9saW5lYXJHcmFkaWVudD4mI3hhOzxjbGlwUGF0aCBpZD0iY2xpcDBfNjkzXzEyMjYiPiYjeGE7PHJlY3QgZmlsbD0id2hpdGUiIGhlaWdodD0iMTYiIHdpZHRoPSIxNiIvPiYjeGE7PC9jbGlwUGF0aD4mI3hhOzwvZGVmcz4mI3hhOzwvc3ZnPg==" parent="1" vertex="1">
          <mxGeometry x="-599" y="-761" width="48" height="48" as="geometry" />
        </mxCell>
        <mxCell id="ymlnHVI367vtstvSVbxU-1" value="" style="group" parent="1" vertex="1" connectable="0">
          <mxGeometry x="-298" y="-753" width="150" height="80" as="geometry" />
        </mxCell>
        <mxCell id="ymlnHVI367vtstvSVbxU-2" value="" style="shape=mxgraph.sap.icon;labelPosition=center;verticalLabelPosition=bottom;align=center;verticalAlign=top;strokeWidth=1;strokeColor=#D5DADD;fillColor=#EDEFF0;gradientColor=#FCFCFC;gradientDirection=west;aspect=fixed;SAPIcon=SAP_Build_Process_Automation" parent="ymlnHVI367vtstvSVbxU-1" vertex="1">
          <mxGeometry x="50" width="50" height="50" as="geometry" />
        </mxCell>
        <mxCell id="ymlnHVI367vtstvSVbxU-3" value="&lt;b style=&quot;border-color: var(--border-color); font-family: arial; font-style: normal; font-variant-ligatures: normal; font-variant-caps: normal; letter-spacing: normal; orphans: 2; text-indent: 0px; text-transform: none; widows: 2; word-spacing: 0px; -webkit-text-stroke-width: 0px; background-color: rgb(251, 251, 251); text-decoration-thickness: initial; text-decoration-style: initial; text-decoration-color: initial; font-size: 14px;&quot;&gt;&lt;font color=&quot;#1d2d3e&quot;&gt;SAP Build &lt;br&gt;Process Automation&lt;/font&gt;&lt;/b&gt;" style="text;whiteSpace=wrap;html=1;align=center;verticalAlign=top;points=[[0,0,0,0,0],[0,0.25,0,0,0],[0,0.5,0,0,0],[0,0.75,0,0,0],[0,1,0,0,0],[0.25,0,0,0,0],[0.25,1,0,0,0],[0.5,0,0,0,0],[0.5,1,0,0,0],[0.75,0,0,0,0],[0.75,1,0,0,0],[1,0,0,0,0],[1,0.25,0,0,0],[1,0.5,0,0,0],[1,0.75,0,0,0],[1,1,0,0,0]];" parent="ymlnHVI367vtstvSVbxU-1" vertex="1">
          <mxGeometry y="50" width="150" height="30" as="geometry" />
        </mxCell>
        <mxCell id="ymlnHVI367vtstvSVbxU-10" value="" style="group" parent="1" vertex="1" connectable="0">
          <mxGeometry x="-300" y="-854" width="150" height="87" as="geometry" />
        </mxCell>
        <mxCell id="ymlnHVI367vtstvSVbxU-4" value="" style="shape=mxgraph.sap.icon;labelPosition=center;verticalLabelPosition=bottom;align=center;verticalAlign=top;strokeWidth=1;strokeColor=#D5DADD;fillColor=#EDEFF0;gradientColor=#FCFCFC;gradientDirection=west;aspect=fixed;SAPIcon=SAP_Integration_Suite_-_Cloud_Integration" parent="ymlnHVI367vtstvSVbxU-10" vertex="1">
          <mxGeometry x="50" width="50" height="50" as="geometry" />
        </mxCell>
        <mxCell id="ymlnHVI367vtstvSVbxU-7" value="&lt;font face=&quot;arial&quot; color=&quot;#1d2d3e&quot;&gt;&lt;span style=&quot;font-size: 14px;&quot;&gt;&lt;b&gt;Cloud Integration&lt;/b&gt;&lt;/span&gt;&lt;/font&gt;" style="text;whiteSpace=wrap;html=1;align=center;verticalAlign=top;points=[[0,0,0,0,0],[0,0.25,0,0,0],[0,0.5,0,0,0],[0,0.75,0,0,0],[0,1,0,0,0],[0.25,0,0,0,0],[0.25,1,0,0,0],[0.5,0,0,0,0],[0.5,1,0,0,0],[0.75,0,0,0,0],[0.75,1,0,0,0],[1,0,0,0,0],[1,0.25,0,0,0],[1,0.5,0,0,0],[1,0.75,0,0,0],[1,1,0,0,0]];" parent="ymlnHVI367vtstvSVbxU-10" vertex="1">
          <mxGeometry y="57" width="150" height="30" as="geometry" />
        </mxCell>
        <mxCell id="2MfPORqP2RXjIWCcDOlF-2" value="&lt;font color=&quot;#0070f2&quot; face=&quot;arial&quot; style=&quot;font-size: 16px;&quot;&gt;&lt;b style=&quot;font-size: 16px;&quot;&gt;Get started with SAP Integration Suite, advanced event mesh&lt;/b&gt;&lt;/font&gt;" style="text;html=1;align=left;verticalAlign=middle;resizable=0;points=[];autosize=1;strokeColor=none;fillColor=none;fontSize=12;fontColor=#1d2d3e;fontFamily=Helvetica;" parent="1" vertex="1">
          <mxGeometry x="-1570" y="-1200" width="490" height="30" as="geometry" />
        </mxCell>
        <mxCell id="2MfPORqP2RXjIWCcDOlF-14" value="" style="endArrow=blockThin;html=1;strokeColor=#475E75;bendable=1;rounded=0;endFill=1;endSize=4;edgeStyle=orthogonalEdgeStyle;startArrow=blockThin;startFill=1;startSize=4;jumpStyle=none;jumpSize=0;targetPerimeterSpacing=15;strokeWidth=1.5;entryX=0;entryY=0.675;entryDx=0;entryDy=0;entryPerimeter=0;exitX=1;exitY=0.25;exitDx=0;exitDy=0;" parent="1" target="ymlnHVI367vtstvSVbxU-4" edge="1">
          <mxGeometry width="50" height="50" relative="1" as="geometry">
            <mxPoint x="-726.94" y="-819.7499999999998" as="sourcePoint" />
            <mxPoint x="-580" y="-800" as="targetPoint" />
            <Array as="points">
              <mxPoint x="-260" y="-820" />
            </Array>
          </mxGeometry>
        </mxCell>
        <mxCell id="2MfPORqP2RXjIWCcDOlF-17" value="" style="endArrow=blockThin;html=1;strokeColor=#475e75;bendable=1;rounded=0;endFill=1;endSize=4;strokeWidth=1.5;startSize=4;startArrow=none;startFill=0;entryX=0;entryY=0.5;entryDx=0;entryDy=0;edgeStyle=orthogonalEdgeStyle;exitX=1;exitY=0.75;exitDx=0;exitDy=0;" parent="1" target="dqyKIxcMkx1l8xUgtOrL-21" edge="1">
          <mxGeometry width="50" height="50" relative="1" as="geometry">
            <mxPoint x="-726.94" y="-787.2500000000002" as="sourcePoint" />
            <mxPoint x="-580" y="-790" as="targetPoint" />
          </mxGeometry>
        </mxCell>
        <mxCell id="2MfPORqP2RXjIWCcDOlF-21" value="" style="endArrow=none;html=1;strokeColor=#475e75;bendable=1;rounded=0;endFill=0;endSize=4;edgeStyle=entityRelationEdgeStyle;startArrow=none;startFill=0;startSize=4;jumpStyle=none;jumpSize=0;targetPerimeterSpacing=15;strokeWidth=1.5;exitX=1;exitY=0.5;exitDx=0;exitDy=0;entryX=0;entryY=0.5;entryDx=0;entryDy=0;" parent="1" source="2MfPORqP2RXjIWCcDOlF-23" edge="1">
          <mxGeometry width="50" height="50" relative="1" as="geometry">
            <mxPoint x="-949" y="-804" as="sourcePoint" />
            <mxPoint x="-776.0500000000002" y="-803.5" as="targetPoint" />
          </mxGeometry>
        </mxCell>
        <mxCell id="2MfPORqP2RXjIWCcDOlF-23" value="" style="shape=image;editableCssRules=.*;verticalLabelPosition=bottom;labelBackgroundColor=default;verticalAlign=top;aspect=fixed;imageAspect=0;image=data:image/svg+xml,PHN2ZyB4bWxucz0iaHR0cDovL3d3dy53My5vcmcvMjAwMC9zdmciIHZpZXdCb3g9Ii0wLjUgLTAuNSA0Ny45MDcgNDMuMjA3IiBoZWlnaHQ9IjQzLjIwNyIgd2lkdGg9IjQ3LjkwNyI+JiN4YTsJICA8c3R5bGUgdHlwZT0idGV4dC9jc3MiPiYjeGE7CQkuc3Qwe3N0b3AtY29sb3I6IzViNzM4Yjt9JiN4YTsJCS5zdDF7c3RvcC1jb2xvcjojMjIzNTQ4O30mI3hhOwkgIDwvc3R5bGU+JiN4YTsJPGRlZnM+JiN4YTsJCTxsaW5lYXJHcmFkaWVudCBncmFkaWVudFVuaXRzPSJ1c2VyU3BhY2VPblVzZSIgeTI9IjQyLjcwNyIgeDI9IjIzLjQ1NCIgeTE9Ii0uNSIgeDE9IjIzLjQ1NCIgaWQ9IkEiPiYjeGE7CQkJPHN0b3AgY2xhc3M9InN0MCIvPiYjeGE7CQkJPHN0b3AgY2xhc3M9InN0MSIgb2Zmc2V0PSIxIi8+JiN4YTsJCTwvbGluZWFyR3JhZGllbnQ+JiN4YTsJPC9kZWZzPiYjeGE7CTxwYXRoIGZpbGw9InVybCgjQSkiIGQ9Ik00Ni40NjggMTQuNDQ1Yy4yNTIuMjUyLjQ2OC41MzEuNjU3Ljg0M2ExLjk3IDEuOTcgMCAwIDEgLjI4MiAxLjAzMnYxOS4xMjVjMCAxLjMxNC0uNjI3IDIuMTI3LTEuODc1IDIuNDM5bC0yNCA0Ljc4MmMtLjgxMy4xMjMtMS40NC0uMDMtMS44NzUtLjQ3MS0uMjUzLS4yNTMtLjQ3My0uNTM2LS42NTctLjg0My0uMTczLS4zMTgtLjI2OS0uNjcxLS4yODItMS4wMzJWMjEuMTAyYzAtMS4zNzQuNjI3LTIuMTU3IDEuODc1LTIuMzQzbDI0LTQuNzgyYy4zMTIgMCAuNjI3LjAzLjkzOS4wOTNhMS4yNyAxLjI3IDAgMCAxIC45MzYuMzc1em0tMy44NDMgNC43ODJMMjMuNSAyMy4wN3YxNC4zNDNsMTkuMTI1LTMuODR6TTM3Ljg0MyA4LjYzNGMuMTIuNjUtLjAxNCAxLjMyMS0uMzc1IDEuODc1LS4xNTMuMjc2LS4zNjguNTEzLS42MjkuNjkycy0uNTU5LjI5NC0uODcxLjMzN2wtMjIuMDMyIDQuMzE0djE3LjI1YzAgLjY5LS4yNDkgMS4yNTEtLjc1IDEuNjg5LS4yMjIuMjE4LS40ODYuMzg3LS43NzYuNDk5YTIuMjkgMi4yOSAwIDAgMS0uOTEuMTUyYy0xLjU2IDAtMi4zNDMtLjc4LTIuMzQzLTIuMzQzVjEzLjk3N2MwLTEuMzE0LjYyNC0yLjEyNCAxLjg3NS0yLjQzOWwyNC00Ljc3OWMuNTYxLS4xMjYgMS4xMjUuMDMgMS42ODYuNDY4LjYyNy4zNzUgMS4wMDIuODQzIDEuMTI1IDEuNDA3em0tOS41NjEtNy4xMjVjLjEyMy41NjEgMCAxLjE1NS0uMzc1IDEuNzc5LS4xNTMuMjc3LS4zNjguNTE0LS42MjguNjkzcy0uNTU5LjI5NS0uODcyLjMzOUw0LjI4MiA4LjYzNHYxNy4yNWMwIDEuNjIzLS43OCAyLjQzNi0yLjM0NiAyLjQzNi0uNjU0LjAxMS0xLjI4OS0uMjIzLTEuNzc5LS42NTctLjQzOC0uNDM1LS42NTctMS4wMjktLjY1Ny0xLjc3OVY2Ljc1OWMwLTEuMzE0LjY1Ny0yLjEyNyAxLjk2OC0yLjQzOUwyNS4zNzUtLjQ2MmMuMzEzLS4wNi42MzYtLjA0OS45NDUuMDMycy41OTUuMjMyLjgzNy40MzljLjYyNC4zNzUuOTk5Ljg3MyAxLjEyNSAxLjV6Ii8+JiN4YTs8L3N2Zz4=;" parent="1" vertex="1">
          <mxGeometry x="-1019" y="-825" width="48" height="43" as="geometry" />
        </mxCell>
        <mxCell id="2MfPORqP2RXjIWCcDOlF-31" value="" style="strokeColor=#0070F2;shadow=0;strokeWidth=2;rounded=1;absoluteArcSize=1;arcSize=20;whiteSpace=wrap;verticalAlign=bottom;spacing=10;fontSize=10;fontColor=#556B82;align=left;container=0;" parent="1" vertex="1">
          <mxGeometry x="-1570" y="-870.6600000000001" width="179" height="110.66" as="geometry" />
        </mxCell>
        <mxCell id="2MfPORqP2RXjIWCcDOlF-32" value="&lt;span style=&quot;font-family: Helvetica; font-style: normal; font-variant-ligatures: normal; font-variant-caps: normal; font-weight: 700; letter-spacing: normal; orphans: 2; text-indent: 0px; text-transform: none; widows: 2; word-spacing: 0px; -webkit-text-stroke-width: 0px; text-decoration-thickness: initial; text-decoration-style: initial; text-decoration-color: initial; float: none; display: inline !important;&quot;&gt;&lt;font style=&quot;font-size: 11px;&quot;&gt;SAP S/4HANA Cloud&lt;/font&gt;&lt;/span&gt;" style="text;whiteSpace=wrap;html=1;align=left;container=0;verticalAlign=middle;fontColor=#1D2D3E;fontSize=10;" parent="1" vertex="1">
          <mxGeometry x="-1560" y="-802.33" width="140" height="24.57" as="geometry" />
        </mxCell>
        <mxCell id="2MfPORqP2RXjIWCcDOlF-34" value="" style="shape=image;editableCssRules=.*;part=0;verticalLabelPosition=bottom;labelBackgroundColor=default;verticalAlign=top;imageAspect=0;image=data:image/svg+xml,PHN2ZyB4bWxucz0iaHR0cDovL3d3dy53My5vcmcvMjAwMC9zdmciIHZpZXdCb3g9Ii0wLjUgLTAuNSAyOCAxOC40MTIiIGhlaWdodD0iMTguNDEyIiB3aWR0aD0iMjgiPiYjeGE7CSAgPHN0eWxlIHR5cGU9InRleHQvY3NzIj4uc3QwIHsgc3RvcC1jb2xvcjogcmdiKDM1LCAxNDksIDI1NSk7IH0gLnN0MSB7IHN0b3AtY29sb3I6IHJnYigwLCA4NywgMjEwKTsgfSA8L3N0eWxlPiYjeGE7CTxkZWZzPiYjeGE7CQk8bGluZWFyR3JhZGllbnQgZ3JhZGllbnRVbml0cz0idXNlclNwYWNlT25Vc2UiIHkyPSIyMi4wMDgiIHgyPSIxNC44NjkiIHkxPSIyLjExMyIgeDE9IjIuMDM5IiBpZD0iQSI+JiN4YTsJCQk8c3RvcCBjbGFzcz0ic3QwIi8+JiN4YTsJCQk8c3RvcCBjbGFzcz0ic3QxIiBvZmZzZXQ9IjEiLz4mI3hhOwkJPC9saW5lYXJHcmFkaWVudD4mI3hhOwk8L2RlZnM+JiN4YTsJPHBhdGggZmlsbD0idXJsKCNBKSIgZD0iTTUuOTAzIDYuMDQ3QzYuNDM0IDIuMzQ1IDkuNjE5LS41IDEzLjQ2Ny0uNWMyLjgwMSAwIDUuMjQ3IDEuNTA2IDYuNTc3IDMuNzQ5aC4xMjRjNC4wNDkgMCA3LjMzMSAzLjI4MiA3LjMzMSA3LjMzMXMtMy4yODIgNy4zMzEtNy4zMzEgNy4zMzFoLTQuMDU0Yy0uMDg3IDAtLjE3My0uMDAyLS4yNTktLjAwNS0uMDc4LjAwMy0uMTU1LjAwNS0uMjMzLjAwNUg1LjQzMmMtMy4yNzYgMC01LjkzMi0yLjY1Ni01LjkzMi01LjkzMnMyLjY1Ni01LjkzMiA1LjkzMi01LjkzMnpNMTMuNDY3IDIuM2MtMi42NzQgMC00Ljg0MiAyLjE2OC00Ljg0MiA0Ljg0MmE0Ljk0IDQuOTQgMCAwIDAgLjAwNi4yMzggMS40IDEuNCAwIDAgMS0xLjM5OCAxLjQ2N2gtMS44Yy0xLjczIDAtMy4xMzIgMS40MDItMy4xMzIgMy4xMzJzMS40MDIgMy4xMzIgMy4xMzIgMy4xMzJoMTAuMTlhMy4xNCAzLjE0IDAgMCAwIC4xNi0uMDA0IDEuMzkgMS4zOSAwIDAgMSAuMTMxIDBjLjA2Ny4wMDMuMTM0LjAwNC4yMDIuMDA0aDQuMDU0YTQuNTMgNC41MyAwIDEgMCAwLTkuMDYyaC0uOTc3YTEuNCAxLjQgMCAwIDEtMS4yODMtLjg0QzE3LjE2MSAzLjQ5NCAxNS40NTIgMi4zIDEzLjQ2NyAyLjN6IiBmaWxsLXJ1bGU9ImV2ZW5vZGQiLz4mI3hhOzwvc3ZnPg==;labelPosition=center;align=left;fontSize=16;fontStyle=1;spacingLeft=0;" parent="1" vertex="1">
          <mxGeometry x="-1560" y="-863" width="34" height="22" as="geometry">
            <mxPoint x="260" y="-186" as="offset" />
          </mxGeometry>
        </mxCell>
        <mxCell id="2MfPORqP2RXjIWCcDOlF-35" value="&lt;span style=&quot;color: rgb(0, 0, 0); font-family: Helvetica; font-size: 16px; font-style: normal; font-variant-ligatures: normal; font-variant-caps: normal; font-weight: 700; letter-spacing: normal; orphans: 2; text-align: left; text-indent: 0px; text-transform: none; widows: 2; word-spacing: 0px; -webkit-text-stroke-width: 0px; white-space: nowrap; background-color: rgb(255, 255, 255); text-decoration-thickness: initial; text-decoration-style: initial; text-decoration-color: initial; display: inline !important; float: none;&quot;&gt;SAP Cloud Solutions&lt;/span&gt;" style="text;whiteSpace=wrap;html=1;" parent="1" vertex="1">
          <mxGeometry x="-1560" y="-841.11" width="164" height="40" as="geometry" />
        </mxCell>
        <mxCell id="2MfPORqP2RXjIWCcDOlF-38" value="" style="endArrow=blockThin;html=1;strokeColor=#475e75;bendable=1;rounded=0;endFill=1;endSize=4;strokeWidth=1.5;startSize=4;startArrow=none;startFill=0;entryX=0;entryY=0.5;entryDx=0;entryDy=0;exitX=1;exitY=0.75;exitDx=0;exitDy=0;" parent="1" source="2MfPORqP2RXjIWCcDOlF-31" target="dqyKIxcMkx1l8xUgtOrL-4" edge="1">
          <mxGeometry width="50" height="50" relative="1" as="geometry">
            <mxPoint x="-1330" y="-610" as="sourcePoint" />
            <mxPoint x="-1210" y="-610" as="targetPoint" />
            <Array as="points" />
          </mxGeometry>
        </mxCell>
        <mxCell id="2MfPORqP2RXjIWCcDOlF-41" value="NETWORK" style="text;html=1;align=left;verticalAlign=middle;resizable=0;points=[];autosize=1;strokeColor=none;fillColor=none;fontSize=14;fontStyle=1;fontColor=#5B738B;" parent="1" vertex="1">
          <mxGeometry x="-1310" y="-1137" width="100" height="30" as="geometry" />
        </mxCell>
        <mxCell id="2MfPORqP2RXjIWCcDOlF-42" value="" style="endArrow=none;html=1;strokeColor=#5B738B;bendable=1;rounded=0;endFill=0;endSize=4;strokeWidth=3;startSize=4;startArrow=none;startFill=0;jumpStyle=gap;" parent="1" edge="1">
          <mxGeometry width="50" height="50" relative="1" as="geometry">
            <mxPoint x="-1220" y="-1137" as="sourcePoint" />
            <mxPoint x="-1220" y="-567" as="targetPoint" />
            <Array as="points" />
          </mxGeometry>
        </mxCell>
        <mxCell id="aInSaTDSzzb66dhdd8XW-1" value="&lt;font size=&quot;1&quot; face=&quot;arial&quot; style=&quot;&quot;&gt;&lt;span style=&quot;font-size: 12px;&quot;&gt;Publishes business events&lt;/span&gt;&lt;/font&gt;" style="text;html=1;align=left;verticalAlign=middle;resizable=0;points=[];autosize=1;strokeColor=none;fillColor=none;fontSize=12;fontColor=#1D2D3E;fontFamily=Helvetica;" parent="1" vertex="1">
          <mxGeometry x="-1376" y="-813" width="160" height="30" as="geometry" />
        </mxCell>
        <mxCell id="aInSaTDSzzb66dhdd8XW-2" value="&lt;font size=&quot;1&quot; face=&quot;arial&quot; style=&quot;&quot;&gt;&lt;span style=&quot;font-size: 12px;&quot;&gt;Queue binding&lt;/span&gt;&lt;/font&gt;" style="text;html=1;align=left;verticalAlign=middle;resizable=0;points=[];autosize=1;strokeColor=none;fillColor=none;fontSize=12;fontColor=#1D2D3E;fontFamily=Helvetica;" parent="1" vertex="1">
          <mxGeometry x="-705.32" y="-736" width="100" height="30" as="geometry" />
        </mxCell>
        <mxCell id="aInSaTDSzzb66dhdd8XW-3" value="&lt;font size=&quot;1&quot; face=&quot;arial&quot; style=&quot;&quot;&gt;&lt;span style=&quot;font-size: 12px;&quot;&gt;Deliver event&lt;/span&gt;&lt;/font&gt;" style="text;html=1;align=left;verticalAlign=middle;resizable=0;points=[];autosize=1;strokeColor=none;fillColor=none;fontSize=12;fontColor=#1D2D3E;fontFamily=Helvetica;" parent="1" vertex="1">
          <mxGeometry x="-430" y="-763" width="90" height="30" as="geometry" />
        </mxCell>
        <mxCell id="aInSaTDSzzb66dhdd8XW-4" value="&lt;font face=&quot;arial&quot;&gt;Consume/publish events&lt;br&gt;&lt;div style=&quot;text-align: center;&quot;&gt;&lt;span style=&quot;background-color: transparent; color: light-dark(rgb(29, 45, 62), rgb(188, 202, 216));&quot;&gt;AEM adapter&lt;/span&gt;&lt;/div&gt;&lt;/font&gt;" style="text;html=1;align=left;verticalAlign=middle;resizable=0;points=[];autosize=1;strokeColor=none;fillColor=none;fontSize=12;fontColor=#1D2D3E;fontFamily=Helvetica;" parent="1" vertex="1">
          <mxGeometry x="-448" y="-865" width="150" height="40" as="geometry" />
        </mxCell>
        <mxCell id="aInSaTDSzzb66dhdd8XW-6" value="&lt;font size=&quot;1&quot; face=&quot;arial&quot; style=&quot;&quot;&gt;&lt;span style=&quot;font-size: 12px;&quot;&gt;Subscribes&lt;/span&gt;&lt;/font&gt;" style="text;html=1;align=left;verticalAlign=middle;resizable=0;points=[];autosize=1;strokeColor=none;fillColor=none;fontSize=12;fontColor=#1D2D3E;fontFamily=Helvetica;" parent="1" vertex="1">
          <mxGeometry x="-910" y="-829.3299999999999" width="80" height="30" as="geometry" />
        </mxCell>
        <mxCell id="aInSaTDSzzb66dhdd8XW-8" value="&lt;font color=&quot;#475e75&quot; size=&quot;1&quot;&gt;&lt;b style=&quot;&quot;&gt;SMF&lt;/b&gt;&lt;/font&gt;" style="rounded=1;whiteSpace=wrap;html=1;arcSize=50;strokeColor=#475E75;fillColor=#f5f6f7;strokeWidth=1.5;" parent="1" vertex="1">
          <mxGeometry x="-331" y="-826.11" width="46" height="16" as="geometry" />
        </mxCell>
        <mxCell id="aInSaTDSzzb66dhdd8XW-9" value="&lt;font color=&quot;#475e75&quot; size=&quot;1&quot;&gt;&lt;b style=&quot;&quot;&gt;AMQP&lt;/b&gt;&lt;/font&gt;" style="rounded=1;whiteSpace=wrap;html=1;arcSize=50;strokeColor=#475E75;fillColor=#f5f6f7;strokeWidth=1.5;" parent="1" vertex="1">
          <mxGeometry x="-1200" y="-795" width="46" height="16" as="geometry" />
        </mxCell>
        <mxCell id="aInSaTDSzzb66dhdd8XW-10" value="&lt;font size=&quot;1&quot; face=&quot;arial&quot; style=&quot;&quot;&gt;&lt;span style=&quot;font-size: 12px;&quot;&gt;my-queue&lt;/span&gt;&lt;/font&gt;" style="text;html=1;align=center;verticalAlign=middle;resizable=0;points=[[0,0.5,0,0,0],[0.5,0,0,0,0],[0.5,1,0,0,0],[1,0.5,0,0,0]];autosize=1;strokeColor=none;fillColor=none;fontSize=12;fontColor=#1D2D3E;fontFamily=Helvetica;" parent="1" vertex="1">
          <mxGeometry x="-791.5" y="-766" width="80" height="30" as="geometry" />
        </mxCell>
        <mxCell id="aInSaTDSzzb66dhdd8XW-12" value="&lt;div style=&quot;&quot;&gt;&lt;font face=&quot;Arial&quot;&gt;&lt;span style=&quot;font-size: 11px;&quot;&gt;RDP&lt;br&gt;&lt;i&gt;RDP-SBPA-Created&lt;/i&gt;&lt;/span&gt;&lt;/font&gt;&lt;/div&gt;" style="text;html=1;align=center;verticalAlign=middle;resizable=0;points=[[0,0.5,0,0,0],[0.5,0,0,0,0],[0.5,1,0,0,0],[1,0.5,0,0,0]];autosize=1;strokeColor=none;fillColor=none;fontSize=12;fontColor=#556B82;fontFamily=Helvetica;" parent="1" vertex="1">
          <mxGeometry x="-630" y="-717" width="120" height="40" as="geometry" />
        </mxCell>
        <mxCell id="7bX0g0PYvY4zmOJZAUMB-1" value="" style="endArrow=blockThin;html=1;strokeColor=#475e75;bendable=1;rounded=0;endFill=1;endSize=4;strokeWidth=1.5;startSize=4;startArrow=none;startFill=0;entryX=0;entryY=0.325;entryDx=0;entryDy=0;edgeStyle=orthogonalEdgeStyle;exitX=1;exitY=0.5;exitDx=0;exitDy=0;entryPerimeter=0;" parent="1" source="dqyKIxcMkx1l8xUgtOrL-21" target="ymlnHVI367vtstvSVbxU-2" edge="1">
          <mxGeometry width="50" height="50" relative="1" as="geometry">
            <mxPoint x="-717" y="-777" as="sourcePoint" />
            <mxPoint x="-589" y="-727" as="targetPoint" />
            <Array as="points">
              <mxPoint x="-260" y="-737" />
            </Array>
          </mxGeometry>
        </mxCell>
        <mxCell id="aInSaTDSzzb66dhdd8XW-7" value="&lt;font color=&quot;#475e75&quot; size=&quot;1&quot;&gt;&lt;b style=&quot;&quot;&gt;HTTPS&lt;/b&gt;&lt;/font&gt;" style="rounded=1;whiteSpace=wrap;html=1;arcSize=50;strokeColor=#475E75;fillColor=#f5f6f7;strokeWidth=1.5;" parent="1" vertex="1">
          <mxGeometry x="-332" y="-745" width="46" height="16" as="geometry" />
        </mxCell>
        <mxCell id="7bX0g0PYvY4zmOJZAUMB-2" value="" style="rounded=0;whiteSpace=wrap;html=1;strokeColor=#eaecee;strokeWidth=1.5;arcSize=16;fillColor=#FFFFFF;perimeterSpacing=0;imageHeight=24;absoluteArcSize=1;points=[];connectable=0;container=0;" parent="1" vertex="1">
          <mxGeometry x="-340" y="-570" width="220" height="90" as="geometry" />
        </mxCell>
        <mxCell id="7bX0g0PYvY4zmOJZAUMB-3" value="&lt;font size=&quot;1&quot; style=&quot;&quot; face=&quot;arial&quot; color=&quot;#1d2d3e&quot;&gt;&lt;b style=&quot;font-size: 12px;&quot;&gt;Legend&lt;/b&gt;&lt;/font&gt;" style="text;html=1;align=left;verticalAlign=top;resizable=0;points=[];autosize=1;strokeColor=none;fillColor=none;fontSize=12;fontColor=default;fontFamily=Helvetica;" parent="1" vertex="1">
          <mxGeometry x="-319.0017948717948" y="-561" width="61" height="26" as="geometry" />
        </mxCell>
        <mxCell id="7bX0g0PYvY4zmOJZAUMB-4" value="&lt;div style=&quot;font-size: 10px; line-height: 100%;&quot;&gt;&lt;span style=&quot;font-family: arial; font-size: 10px; background-color: initial;&quot;&gt;&lt;font style=&quot;font-size: 10px;&quot;&gt;Access&lt;/font&gt;&lt;/span&gt;&lt;/div&gt;" style="text;html=1;align=left;verticalAlign=middle;resizable=0;points=[];autosize=1;strokeColor=none;fillColor=none;fontSize=10;fontColor=#1D2D3E;fontFamily=Helvetica;labelPosition=center;verticalLabelPosition=middle;" parent="1" vertex="1">
          <mxGeometry x="-300.0000000000001" y="-533.5" width="50" height="23" as="geometry" />
        </mxCell>
        <mxCell id="7bX0g0PYvY4zmOJZAUMB-5" value="" style="ellipse;whiteSpace=wrap;html=1;aspect=fixed;strokeColor=none;fillColor=#475E75;fontColor=#475E75;" parent="1" vertex="1">
          <mxGeometry x="-318.5000000000001" y="-529" width="16" height="16" as="geometry" />
        </mxCell>
        <mxCell id="7bX0g0PYvY4zmOJZAUMB-14" value="" style="shape=image;verticalLabelPosition=bottom;verticalAlign=top;imageAspect=0;aspect=fixed;image=data:image/svg+xml,PHN2ZyB4bWxucz0iaHR0cDovL3d3dy53My5vcmcvMjAwMC9zdmciIGZpbGw9Im5vbmUiIHZpZXdCb3g9IjAgMCA0OSA0OSIgaGVpZ2h0PSI0OSIgd2lkdGg9IjQ5Ij4mI3hhOzxjaXJjbGUgc3Ryb2tlLXdpZHRoPSIwLjg1NzE0MyIgc3Ryb2tlPSIjRDVEQUREIiBmaWxsPSJ1cmwoI3BhaW50MF9saW5lYXJfMjYyMl8yMDQ3NSkiIHI9IjIzLjU3MTQiIGN5PSIyNC4wMzQ5IiBjeD0iMjQuNSIvPiYjeGE7PHBhdGggZmlsbD0idXJsKCNwYWludDFfcmFkaWFsXzI2MjJfMjA0NzUpIiBkPSJNMjQuMzkzMSAxMi4yMzcxQzIwLjExMDcgMTIuMjM3MSAxNy4wNjgxIDE1LjcyMzEgMTYuNTYxMSAxOS4zNjI1QzE1LjE4MzYgMTkuNDQ0NCAxMy45NjcyIDE5Ljk2MjEgMTMuMDIyNSAyMC44MzE3QzExLjc0NDUgMjIuMDA4MSAxMS4wODQ0IDIzLjcxNTYgMTEuMDg0NCAyNS41MTYzQzExLjA4NDQgMjcuMTg5NyAxMS41OTIgMjguNzcxNSAxMi43MzE2IDI5Ljk0MDlDMTMuNTg2MSAzMC44MTc4IDE0LjcwNzcgMzEuMzcyNCAxNi4wMTcgMzEuNTk4NEMxNi4xMzc2IDMxLjM1MzUgMTYuMjczNSAzMS4xMTY4IDE2LjQyNTIgMzAuODg5MkwxNi40NDEgMzAuODY1NUwxNi40NTQ4IDMwLjg0NjFDMTYuNzA2OSAzMC40OTAxIDE2Ljk5NDggMzAuMTY2IDE3LjMxNjkgMjkuODc2MUMxNy4xODMxIDI5LjQzMTcgMTcuMTE4IDI4Ljk2NDUgMTcuMTE4IDI4LjQ4MzVDMTcuMTE4IDI3Ljg1NDkgMTcuMjM4NiAyNy4yNDEzIDE3LjQ4NDkgMjYuNjU5MkMxNy43MiAyNi4xMDMzIDE4LjA1MTMgMjUuNjAwMSAxOC40ODI0IDI1LjE2OTFDMTguOTE4IDI0LjczMzQgMTkuNDI1IDI0LjM5MTYgMTkuOTkyNiAyNC4xNTE1QzIwLjU3NDcgMjMuOTA1MiAyMS4xODgyIDIzLjc4NDYgMjEuODE2OCAyMy43ODQ2QzIyLjA3NTkgMjMuNzg0NiAyMi4zMzI0IDIzLjgwNTEgMjIuNTg1MyAyMy44NDY0QzIyLjkwNjUgMjMuNjE3OSAyMy4yNTIyIDIzLjQyNTEgMjMuNjIwNCAyMy4yNjkzQzI0LjI4NTEgMjIuOTg4MSAyNC45ODYzIDIyLjg0OTcgMjUuNzA4OSAyMi44NDk3QzI2LjQzMTYgMjIuODQ5NyAyNy4xMzI3IDIyLjk4ODEgMjcuNzk3NSAyMy4yNjkzQzI4LjQ0MzYgMjMuNTQyNyAyOS4wMTc2IDIzLjkzMjYgMjkuNTA0MyAyNC40MzY1QzMwLjAwODIgMjQuOTIzMiAzMC4zOTgxIDI1LjQ5NzIgMzAuNjcxNSAyNi4xNDMzQzMwLjk1MjcgMjYuODA4MSAzMS4wOTExIDI3LjUwOTMgMzEuMDkxMSAyOC4yMzE5QzMxLjA5MTEgMjguOTI1MiAzMC45NjM3IDI5LjU5ODggMzAuNzA1IDMwLjIzOTVDMzEuMTk2OSAzMC42Mjg4IDMxLjYzNDYgMzEuMDg3NyAzMi4wMTUyIDMxLjYxMjdDMzUuMjc5MiAzMS4wNDI2IDM3Ljk5OTkgMjguMzY4IDM3Ljk5OTkgMjQuMzU5MUMzNy45OTk5IDIwLjM3NTEgMzUuMTUyNiAxNy4zMTM1IDMxLjcyNDcgMTYuOTg5N0MzMC4zNTA3IDE0LjE0ODMgMjcuOCAxMi4yMzcxIDI0LjM5MzEgMTIuMjM3MVoiIGNsaXAtcnVsZT0iZXZlbm9kZCIgZmlsbC1ydWxlPSJldmVub2RkIi8+JiN4YTs8cGF0aCBmaWxsPSJ1cmwoI3BhaW50Ml9yYWRpYWxfMjYyMl8yMDQ3NSkiIGQ9Ik0yOC4zMzY4IDMwLjgwNzhDMjkuMzA4MiAzMS4xODk0IDMwLjA5NzQgMzEuODEzOCAzMC43MDQ1IDMyLjY4MTFDMzEuMzExNiAzMy41NDg0IDMxLjYxNTIgMzQuNTI4NSAzMS42MTUyIDM1LjYyMTNWMzcuMTA0NEMzMS42MTUyIDM3LjMxMjUgMzEuNTM3MSAzNy40ODYgMzEuMzgxIDM3LjYyNDdDMzEuMjQyMiAzNy43NjM1IDMxLjA3NzQgMzcuODMyOSAzMC44ODY2IDM3LjgzMjlIMjkuNDAzNkMyOS4xOTU0IDM3LjgzMjkgMjkuMDEzMyAzNy43NjM1IDI4Ljg1NzIgMzcuNjI0N0MyOC43MTg0IDM3LjQ4NiAyOC42NDkgMzcuMzEyNSAyOC42NDkgMzcuMTA0NEMyOC42NDkgMzYuODk2MiAyOC43MTg0IDM2LjcyMjcgMjguODU3MiAzNi41ODRDMjkuMDEzMyAzNi40Mjc5IDI5LjE5NTQgMzYuMzQ5OCAyOS40MDM2IDM2LjM0OThIMzAuMTMyMVYzNS42MjEzQzMwLjEzMjEgMzUuMTE4MiAzMC4wMzY3IDM0LjY0MTIgMjkuODQ1OSAzNC4xOTAyQzI5LjY1NTEgMzMuNzM5MiAyOS4zODYyIDMzLjM0OSAyOS4wMzkzIDMzLjAxOTRDMjguNzA5NyAzMi42NzI1IDI4LjMxOTUgMzIuNDAzNiAyNy44Njg1IDMyLjIxMjhDMjcuNDM0OCAzMi4wMjIgMjYuOTU3OCAzMS45MjY2IDI2LjQzNzUgMzEuOTI2NkgyNC45ODA0QzI0LjQ2IDMxLjkyNjYgMjMuOTc0NCAzMi4wMjIgMjMuNTIzNCAzMi4yMTI4QzIzLjA4OTcgMzIuNDAzNiAyMi42OTk0IDMyLjY3MjUgMjIuMzUyNSAzMy4wMTk0QzIyLjAyMyAzMy4zNDkgMjEuNzYyOCAzMy43MzkyIDIxLjU3MiAzNC4xOTAyQzIxLjM4MTIgMzQuNjQxMiAyMS4yODU4IDM1LjExODIgMjEuMjg1OCAzNS42MjEzVjM2LjM0OThIMjIuMDE0M0MyMi4yMjI0IDM2LjM0OTggMjIuMzk1OSAzNi40Mjc5IDIyLjUzNDcgMzYuNTg0QzIyLjY3MzQgMzYuNzIyNyAyMi43NDI4IDM2Ljg5NjIgMjIuNzQyOCAzNy4xMDQ0QzIyLjc0MjggMzcuMzEyNSAyMi42NzM0IDM3LjQ4NiAyMi41MzQ3IDM3LjYyNDdDMjIuMzk1OSAzNy43NjM1IDIyLjIyMjQgMzcuODMyOSAyMi4wMTQzIDM3LjgzMjlIMjAuNTMxMkMyMC4zNDA0IDM3LjgzMjkgMjAuMTY3IDM3Ljc2MzUgMjAuMDEwOSAzNy42MjQ3QzE5Ljg3MjEgMzcuNDg2IDE5LjgwMjcgMzcuMzEyNSAxOS44MDI3IDM3LjEwNDRMMTkuODAyNyAzNi4wNTAySDE3LjgyMzRDMTcuNjMyOCAzNi4wNTAyIDE3LjQ2MTYgMzUuOTc5NSAxNy4zMTQ2IDM1Ljg0ODhMMTcuMzA3NSAzNS44NDI1QzE3LjE2ODEgMzUuNzAzMSAxNy4wOTk4IDM1LjUyNzEgMTcuMDk5OCAzNS4zMjY1VjM0LjE4MjdDMTcuMDk5OCAzMy43MzkyIDE3LjE2MjEgMzMuMzIxIDE3LjI4ODEgMzIuOTI5MUwxNy4yODkyIDMyLjkyNTlDMTcuNDI3MiAzMi41MjU2IDE3LjYwNzEgMzIuMTU4NiAxNy44MjkzIDMxLjgyNTNMMTcuODMxOCAzMS44MjE1QzE4LjA2NzggMzEuNDg4MyAxOC4zNDU4IDMxLjE5NjQgMTguNjY1MiAzMC45NDYxQzE4LjkyNDIgMzAuNzMyNCAxOS4yMDU5IDMwLjU1NSAxOS41MTAxIDMwLjQxNEMxOS4wMzk4IDI5Ljg4ODUgMTguODA1NSAyOS4yNDE5IDE4LjgwNTUgMjguNDgzNUMxOC44MDU1IDI4LjA3NDUgMTguODgzMiAyNy42ODUxIDE5LjAzOSAyNy4zMTY3QzE5LjE5MzkgMjYuOTUwNyAxOS40MDYgMjYuNjMyIDE5LjY3NTYgMjYuMzYyM0MxOS45NTc5IDI2LjA4MDEgMjAuMjgzIDI1Ljg2MDkgMjAuNjUwMSAyNS43MDU2QzIxLjAxODQgMjUuNTQ5OCAyMS40MDc4IDI1LjQ3MjEgMjEuODE2OCAyNS40NzIxQzIyLjIyNTkgMjUuNDcyMSAyMi42MTUyIDI1LjU0OTggMjIuOTgzNiAyNS43MDU2TDIzLjAwMDggMjUuNzEzQzIzLjAyNzEgMjUuNjg0OSAyMy4wNTM4IDI1LjY1NzMgMjMuMDgxIDI1LjYzQzIzLjQyOCAyNS4yODMxIDIzLjgyNjkgMjUuMDE0MiAyNC4yNzc5IDI0LjgyMzRDMjQuNzI4OSAyNC42MzI2IDI1LjIwNTkgMjQuNTM3MiAyNS43MDg5IDI0LjUzNzJDMjYuMjEyIDI0LjUzNzIgMjYuNjg5IDI0LjYzMjYgMjcuMTQgMjQuODIzNEMyNy41OTA5IDI1LjAxNDIgMjcuOTgxMiAyNS4yODMxIDI4LjMxMDggMjUuNjNDMjguNjU3NyAyNS45NTk2IDI4LjkyNjYgMjYuMzQ5OSAyOS4xMTc0IDI2LjgwMDlDMjkuMzA4MiAyNy4yNTE5IDI5LjQwMzYgMjcuNzI4OSAyOS40MDM2IDI4LjIzMTlDMjkuNDAzNiAyOC43MzQ5IDI5LjMwODIgMjkuMjEyIDI5LjExNzQgMjkuNjYzQzI4LjkyNjYgMzAuMDk2NiAyOC42NjY0IDMwLjQ3ODIgMjguMzM2OCAzMC44MDc4Wk0yMC4wMzY5IDM0LjA2MDFDMTkuOTgyMiAzNC4yMzAxIDE5LjkzNzIgMzQuNDA0MyAxOS45MDE3IDM0LjU4MjdIMTguNTY3MlYzNC4xODI3QzE4LjU2NzIgMzMuODE1NyAxOC42MzY3IDMzLjQ2OTMgMTguNzc1MiAzMy4xNDJDMTguOTE0NiAzMi44MTI0IDE5LjEwMzkgMzIuNTI5IDE5LjM0MjYgMzIuMjkwM0MxOS41OTYyIDMyLjAzNjcgMTkuODgwMyAzMS44NDEyIDIwLjE5NTMgMzEuNzAyNEMyMC41MjE2IDMxLjU2NDUgMjAuODc0MyAzMS40OTQ5IDIxLjI1NDkgMzEuNDk0OUgyMS44NzA4QzIxLjgzMTUgMzEuNTI1NCAyMS43OTI2IDMxLjU1NjYgMjEuNzU0MSAzMS41ODg0QzIxLjM1NTEgMzEuOTAwNiAyMS4wMDgyIDMyLjI2NDggMjAuNzEzNCAzMi42ODExQzIwLjQzNTggMzMuMDk3NCAyMC4yMTAzIDMzLjU1NzEgMjAuMDM2OSAzNC4wNjAxWk0yNS43MDg5IDI2LjAyMDNDMjUuMTAxOCAyNi4wMjAzIDI0LjU4MTUgMjYuMjM3MSAyNC4xNDc4IDI2LjY3MDhDMjMuNzE0MiAyNy4xMDQ0IDIzLjQ5NzMgMjcuNjI0OCAyMy40OTczIDI4LjIzMTlDMjMuNDk3MyAyOC44MzkgMjMuNzE0MiAyOS4zNTk0IDI0LjE0NzggMjkuNzkzQzI0LjU4MTUgMzAuMjI2NyAyNS4xMDE4IDMwLjQ0MzUgMjUuNzA4OSAzMC40NDM1QzI2LjMxNiAzMC40NDM1IDI2LjgzNjQgMzAuMjI2NyAyNy4yNyAyOS43OTNDMjcuNzAzNyAyOS4zNTk0IDI3LjkyMDUgMjguODM5IDI3LjkyMDUgMjguMjMxOUMyNy45MjA1IDI3LjYyNDggMjcuNzAzNyAyNy4xMDQ0IDI3LjI3IDI2LjY3MDhDMjYuODM2NCAyNi4yMzcxIDI2LjMxNiAyNi4wMjAzIDI1LjcwODkgMjYuMDIwM1pNMjIuMDE0MyAyOC4yMzE5QzIyLjAxNDMgMjguODU5NiAyMi4xNDM2IDI5LjQyMTEgMjIuNDAyMyAyOS45MTYzQzIyLjIyMjMgMjkuOTkwNiAyMi4wMjc1IDMwLjAyNzQgMjEuODE2OCAzMC4wMjc0QzIxLjM5MiAzMC4wMjc0IDIxLjAzMTcgMjkuODc3NiAyMC43MjcyIDI5LjU3MzFDMjAuNDIyOCAyOS4yNjg3IDIwLjI3MjkgMjguOTA4MyAyMC4yNzI5IDI4LjQ4MzVDMjAuMjcyOSAyOC4wNTg3IDIwLjQyMjggMjcuNjk4MyAyMC43MjcyIDI3LjM5MzlDMjEuMDMxNyAyNy4wODk0IDIxLjM5MiAyNi45Mzk2IDIxLjgxNjggMjYuOTM5NkMyMS45NjA1IDI2LjkzOTYgMjIuMDk2OSAyNi45NTY3IDIyLjIyNjIgMjYuOTkxMkMyMi4wODQ5IDI3LjM4NTUgMjIuMDE0MyAyNy43OTkxIDIyLjAxNDMgMjguMjMxOVoiIGNsaXAtcnVsZT0iZXZlbm9kZCIgZmlsbC1ydWxlPSJldmVub2RkIi8+JiN4YTs8ZGVmcz4mI3hhOzxsaW5lYXJHcmFkaWVudCBncmFkaWVudFVuaXRzPSJ1c2VyU3BhY2VPblVzZSIgeTI9IjQ0LjI3OTIiIHgyPSI0MS41NjQ1IiB5MT0iNi44NDc3NSIgeDE9IjQuODUyODciIGlkPSJwYWludDBfbGluZWFyXzI2MjJfMjA0NzUiPiYjeGE7PHN0b3Agc3RvcC1jb2xvcj0id2hpdGUiLz4mI3hhOzxzdG9wIHN0b3AtY29sb3I9IiNFQUVDRUUiIG9mZnNldD0iMSIvPiYjeGE7PC9saW5lYXJHcmFkaWVudD4mI3hhOzxyYWRpYWxHcmFkaWVudCBncmFkaWVudFRyYW5zZm9ybT0idHJhbnNsYXRlKDE1LjI1ODMgMTUuOTk1NCkgcm90YXRlKDQzLjg3NzkpIHNjYWxlKDI1Ljg1MjQgNDguODExNykiIGdyYWRpZW50VW5pdHM9InVzZXJTcGFjZU9uVXNlIiByPSIxIiBjeT0iMCIgY3g9IjAiIGlkPSJwYWludDFfcmFkaWFsXzI2MjJfMjA0NzUiPiYjeGE7PHN0b3Agc3RvcC1jb2xvcj0iIzAxOTVGRiIvPiYjeGE7PHN0b3Agc3RvcC1jb2xvcj0iIzExNDdFOSIgb2Zmc2V0PSIxIi8+JiN4YTs8L3JhZGlhbEdyYWRpZW50PiYjeGE7PHJhZGlhbEdyYWRpZW50IGdyYWRpZW50VHJhbnNmb3JtPSJ0cmFuc2xhdGUoMTUuMjUyMiAxNi4wODc2KSByb3RhdGUoNDMuNTYwMikgc2NhbGUoMjUuODcyNyAyMy41NDcxKSIgZ3JhZGllbnRVbml0cz0idXNlclNwYWNlT25Vc2UiIHI9IjEiIGN5PSIwIiBjeD0iMCIgaWQ9InBhaW50Ml9yYWRpYWxfMjYyMl8yMDQ3NSI+JiN4YTs8c3RvcCBzdG9wLWNvbG9yPSIjMTM0OEZGIi8+JiN4YTs8c3RvcCBzdG9wLWNvbG9yPSIjMDYyMzhEIiBvZmZzZXQ9IjEiLz4mI3hhOzwvcmFkaWFsR3JhZGllbnQ+JiN4YTs8L2RlZnM+JiN4YTs8L3N2Zz4=;points=[[0,0,0,0,0],[0,0.25,0,0,0],[0,0.5,0,0,0],[0,0.75,0,0,0],[0.25,0,0,0,0],[0.5,0,0,0,0],[0.75,0,0,0,0],[1,0,0,0,0],[1,0.25,0,0,0],[1,0.5,0,0,0],[1,0.75,0,0,0]];" parent="1" vertex="1">
          <mxGeometry x="-222.66000000000008" y="-528" width="16" height="16" as="geometry" />
        </mxCell>
        <mxCell id="7bX0g0PYvY4zmOJZAUMB-15" value="&lt;div style=&quot;font-size: 10px; line-height: 100%;&quot;&gt;&lt;span style=&quot;font-family: arial; font-size: 10px; background-color: initial;&quot;&gt;&lt;font style=&quot;font-size: 10px;&quot;&gt;Service&lt;/font&gt;&lt;/span&gt;&lt;/div&gt;" style="text;html=1;align=left;verticalAlign=middle;resizable=0;points=[];autosize=1;strokeColor=none;fillColor=none;fontSize=10;fontColor=#1D2D3E;fontFamily=Helvetica;labelPosition=center;verticalLabelPosition=middle;" parent="1" vertex="1">
          <mxGeometry x="-198.66000000000008" y="-532.5" width="51" height="23" as="geometry" />
        </mxCell>
        <mxCell id="hJhhw_OUr1wEDZmKBMq_-1" value="" style="shape=image;verticalLabelPosition=bottom;verticalAlign=top;imageAspect=0;aspect=fixed;image=data:image/svg+xml,PHN2ZyB4bWxucz0iaHR0cDovL3d3dy53My5vcmcvMjAwMC9zdmciIGZpbGw9Im5vbmUiIHZpZXdCb3g9IjAgMCAyNCAyNCIgaGVpZ2h0PSIyNCIgd2lkdGg9IjI0Ij4mI3hhOzxnIGNsaXAtcGF0aD0idXJsKCNjbGlwMF8xMTUzXzE5KSI+JiN4YTs8cGF0aCBmaWxsPSJ1cmwoI3BhaW50MF9saW5lYXJfMTE1M18xOSkiIGQ9Ik0wLjAwNDI4NTY2IDIyLjYyODZDMC4wMDQyODU2NiAyMy4zODI5IDAuNjIxMzE3IDI0IDEuMzc1NDcgMjRIMjIuNjI4OEMyMy4zODMgMjQgMjQgMjMuMzgyOSAyNCAyMi42Mjg2QzI0IDIxLjg3NDMgMjMuMzgzIDIxLjI1NzEgMjIuNjI4OCAyMS4yNTcxSDEuMzc1NDdDMC42MjEzMTcgMjEuMjU3MSAwLjAwNDI4NTY2IDIxLjg3NDMgMC4wMDQyODU2NiAyMi42Mjg2WiIvPiYjeGE7PHBhdGggZmlsbD0idXJsKCNwYWludDFfbGluZWFyXzExNTNfMTkpIiBkPSJNMTMuMzczMyAxOC44NTcxSDIyLjYyODhDMjMuMzgzIDE4Ljg1NzEgMjQgMTguMjQgMjQgMTcuNDg1N0MyNCAxNi43MzE0IDIzLjM4MyAxNi4xMTQzIDIyLjYyODggMTYuMTE0M0gxMy4zNzMzQzEyLjYxOTIgMTYuMTE0MyAxMi4wMDIxIDE2LjczMTQgMTIuMDAyMSAxNy40ODU3QzEyLjAwMjEgMTguMjQgMTIuNjE5MiAxOC44NTcxIDEzLjM3MzMgMTguODU3MVoiLz4mI3hhOzxwYXRoIGZpbGw9InVybCgjcGFpbnQyX2xpbmVhcl8xMTUzXzE5KSIgZD0iTTEzLjM3MzMgMTMuNzE0M0gyMi42Mjg4QzIzLjM4MyAxMy43MTQzIDI0IDEzLjA5NzEgMjQgMTIuMzQyOUMyNCAxMS41ODg2IDIzLjM4MyAxMC45NzE0IDIyLjYyODggMTAuOTcxNEgxMy4zNzMzQzEyLjYxOTIgMTAuOTcxNCAxMi4wMDIxIDExLjU4ODYgMTIuMDAyMSAxMi4zNDI5QzEyLjAwMjEgMTMuMDk3MSAxMi42MTkyIDEzLjcxNDMgMTMuMzczMyAxMy43MTQzWiIvPiYjeGE7PHBhdGggZmlsbD0idXJsKCNwYWludDNfbGluZWFyXzExNTNfMTkpIiBkPSJNMTMuMzczMyA3Ljg4NTcxSDIyLjYyODhDMjMuMzgzIDcuODg1NzEgMjQgNy4yNjg1NyAyNCA2LjUxNDI5QzI0IDUuNzYgMjMuMzgzIDUuMTQyODYgMjIuNjI4OCA1LjE0Mjg2SDEzLjM3MzNDMTIuNjE5MiA1LjE0Mjg2IDEyLjAwMjEgNS43NiAxMi4wMDIxIDYuNTE0MjlDMTIuMDAyMSA3LjI2ODU3IDEyLjYxOTIgNy44ODU3MSAxMy4zNzMzIDcuODg1NzFaIi8+JiN4YTs8cGF0aCBmaWxsPSJ1cmwoI3BhaW50NF9saW5lYXJfMTE1M18xOSkiIGQ9Ik0xLjM3NTQ3IDIuNzQyODZIMjIuNjI4OEMyMy4zODMgMi43NDI4NiAyNCAyLjEyNTcxIDI0IDEuMzcxNDNDMjQgMC42MTcxNDMgMjMuMzgzIDAgMjIuNjI4OCAwSDEuMzc1NDdDMC42MjEzMTcgMCAwLjAwNDI4NTY2IDAuNjE3MTQzIDAuMDA0Mjg1NjYgMS4zNzE0M0MwLjAwNDI4NTY2IDIuMTI1NzEgMC42MjEzMTcgMi43NDI4NiAxLjM3NTQ3IDIuNzQyODZaIi8+JiN4YTs8cGF0aCBmaWxsPSJ1cmwoI3BhaW50NV9saW5lYXJfMTE1M18xOSkiIGQ9Ik0wLjM5ODUgMTcuNDM0MkMwLjY3MjczNyAxNy42OTE0IDEuMDMyNjcgMTcuODI4NSAxLjM3NTQ3IDE3LjgyODVMMS4zNTgzMyAxNy44NjI4QzEuNzE4MjYgMTcuODYyOCAyLjA2MTA2IDE3Ljc0MjggMi4zMzUzIDE3LjQ2ODVMNi40NDg4NSAxMy4zNTQyQzYuNzA1OTUgMTMuMDk3MSA2Ljg0MzA2IDEyLjc1NDIgNi44NDMwNiAxMi4zNzcxQzYuODQzMDYgMTEuOTk5OSA2LjcwNTk1IDExLjY1NzEgNi40NDg4NSAxMS4zOTk5TDIuMzM1MyA3LjI4NTY0QzEuODAzOTYgNi43NTQyMSAwLjkyOTgzNCA2Ljc1NDIxIDAuMzk4NSA3LjI4NTY0Qy0wLjEzMjgzMyA3LjgxNzA3IC0wLjEzMjgzMyA4LjY5MTM1IDAuMzk4NSA5LjIyMjc4TDMuNTM1MDggMTIuMzU5OUwwLjM5ODUgMTUuNDk3MUMtMC4xMzI4MzMgMTYuMDI4NSAtMC4xMzI4MzMgMTYuOTAyOCAwLjM5ODUgMTcuNDM0MloiLz4mI3hhOzwvZz4mI3hhOzxkZWZzPiYjeGE7PGxpbmVhckdyYWRpZW50IGdyYWRpZW50VW5pdHM9InVzZXJTcGFjZU9uVXNlIiB5Mj0iMjQiIHgyPSIxMiIgeTE9IjAiIHgxPSIxMiIgaWQ9InBhaW50MF9saW5lYXJfMTE1M18xOSI+JiN4YTs8c3RvcCBzdG9wLWNvbG9yPSIjNUI3MzhCIi8+JiN4YTs8c3RvcCBzdG9wLWNvbG9yPSIjMjIzNTQ4IiBvZmZzZXQ9IjEiLz4mI3hhOzwvbGluZWFyR3JhZGllbnQ+JiN4YTs8bGluZWFyR3JhZGllbnQgZ3JhZGllbnRVbml0cz0idXNlclNwYWNlT25Vc2UiIHkyPSIyNCIgeDI9IjEyIiB5MT0iMCIgeDE9IjEyIiBpZD0icGFpbnQxX2xpbmVhcl8xMTUzXzE5Ij4mI3hhOzxzdG9wIHN0b3AtY29sb3I9IiM1QjczOEIiLz4mI3hhOzxzdG9wIHN0b3AtY29sb3I9IiMyMjM1NDgiIG9mZnNldD0iMSIvPiYjeGE7PC9saW5lYXJHcmFkaWVudD4mI3hhOzxsaW5lYXJHcmFkaWVudCBncmFkaWVudFVuaXRzPSJ1c2VyU3BhY2VPblVzZSIgeTI9IjI0IiB4Mj0iMTIiIHkxPSIwIiB4MT0iMTIiIGlkPSJwYWludDJfbGluZWFyXzExNTNfMTkiPiYjeGE7PHN0b3Agc3RvcC1jb2xvcj0iIzVCNzM4QiIvPiYjeGE7PHN0b3Agc3RvcC1jb2xvcj0iIzIyMzU0OCIgb2Zmc2V0PSIxIi8+JiN4YTs8L2xpbmVhckdyYWRpZW50PiYjeGE7PGxpbmVhckdyYWRpZW50IGdyYWRpZW50VW5pdHM9InVzZXJTcGFjZU9uVXNlIiB5Mj0iMjQiIHgyPSIxMiIgeTE9IjAiIHgxPSIxMiIgaWQ9InBhaW50M19saW5lYXJfMTE1M18xOSI+JiN4YTs8c3RvcCBzdG9wLWNvbG9yPSIjNUI3MzhCIi8+JiN4YTs8c3RvcCBzdG9wLWNvbG9yPSIjMjIzNTQ4IiBvZmZzZXQ9IjEiLz4mI3hhOzwvbGluZWFyR3JhZGllbnQ+JiN4YTs8bGluZWFyR3JhZGllbnQgZ3JhZGllbnRVbml0cz0idXNlclNwYWNlT25Vc2UiIHkyPSIyNCIgeDI9IjEyIiB5MT0iMCIgeDE9IjEyIiBpZD0icGFpbnQ0X2xpbmVhcl8xMTUzXzE5Ij4mI3hhOzxzdG9wIHN0b3AtY29sb3I9IiM1QjczOEIiLz4mI3hhOzxzdG9wIHN0b3AtY29sb3I9IiMyMjM1NDgiIG9mZnNldD0iMSIvPiYjeGE7PC9saW5lYXJHcmFkaWVudD4mI3hhOzxsaW5lYXJHcmFkaWVudCBncmFkaWVudFVuaXRzPSJ1c2VyU3BhY2VPblVzZSIgeTI9IjI0IiB4Mj0iMTIiIHkxPSIwIiB4MT0iMTIiIGlkPSJwYWludDVfbGluZWFyXzExNTNfMTkiPiYjeGE7PHN0b3Agc3RvcC1jb2xvcj0iIzVCNzM4QiIvPiYjeGE7PHN0b3Agc3RvcC1jb2xvcj0iIzIyMzU0OCIgb2Zmc2V0PSIxIi8+JiN4YTs8L2xpbmVhckdyYWRpZW50PiYjeGE7PGNsaXBQYXRoIGlkPSJjbGlwMF8xMTUzXzE5Ij4mI3hhOzxyZWN0IGZpbGw9IndoaXRlIiBoZWlnaHQ9IjI0IiB3aWR0aD0iMjQiLz4mI3hhOzwvY2xpcFBhdGg+JiN4YTs8L2RlZnM+JiN4YTs8L3N2Zz4=;" vertex="1" parent="1">
          <mxGeometry x="-778" y="-830.76" width="50.76" height="50.76" as="geometry" />
        </mxCell>
      </root>
    </mxGraphModel>
  </diagram>
  <diagram name="cloud-integration" id="7LdxtHRjMgikKFhEsdVh">
    <mxGraphModel dx="1306" dy="929" grid="1" gridSize="10" guides="1" tooltips="1" connect="1" arrows="1" fold="1" page="1" pageScale="1" pageWidth="1169" pageHeight="827" math="0" shadow="0">
      <root>
        <mxCell id="gj-DLoBSfoS_qJrJy43p-0" />
        <mxCell id="gj-DLoBSfoS_qJrJy43p-1" parent="gj-DLoBSfoS_qJrJy43p-0" />
        <mxCell id="3LzONC4Wz7qyEUSdygTF-0" value="" style="rounded=1;whiteSpace=wrap;html=1;strokeColor=#0070F2;fillColor=#EBF8FF;arcSize=32;absoluteArcSize=1;imageWidth=64;imageHeight=64;strokeWidth=1.5;" vertex="1" parent="gj-DLoBSfoS_qJrJy43p-1">
          <mxGeometry x="580" y="700" width="1080" height="520" as="geometry" />
        </mxCell>
        <mxCell id="3LzONC4Wz7qyEUSdygTF-1" value="" style="rounded=1;whiteSpace=wrap;html=1;strokeColor=#0070F2;strokeWidth=1.5;arcSize=16;fillColor=#FFFFFF;perimeterSpacing=0;absoluteArcSize=1;" vertex="1" parent="gj-DLoBSfoS_qJrJy43p-1">
          <mxGeometry x="605.3499999999999" y="745.06" width="1024.65" height="444.94" as="geometry" />
        </mxCell>
        <mxCell id="3LzONC4Wz7qyEUSdygTF-2" value="" style="rounded=1;whiteSpace=wrap;html=1;strokeColor=light-dark(#4ea2a9, #46a6ff);fillColor=#ffffff;arcSize=24;absoluteArcSize=1;imageWidth=64;imageHeight=64;strokeWidth=1.5;" vertex="1" parent="gj-DLoBSfoS_qJrJy43p-1">
          <mxGeometry x="636" y="806" width="684" height="364" as="geometry" />
        </mxCell>
        <mxCell id="3LzONC4Wz7qyEUSdygTF-3" value="" style="rounded=1;whiteSpace=wrap;html=1;strokeColor=#07838f;fillColor=#dafdf5;arcSize=24;absoluteArcSize=1;imageWidth=64;imageHeight=64;strokeWidth=1.5;" vertex="1" parent="gj-DLoBSfoS_qJrJy43p-1">
          <mxGeometry x="650" y="897" width="650" height="250" as="geometry" />
        </mxCell>
        <mxCell id="3LzONC4Wz7qyEUSdygTF-4" value="" style="rounded=1;whiteSpace=wrap;html=1;strokeColor=#07838f;fillColor=#FFFFFF;arcSize=24;absoluteArcSize=1;imageWidth=64;imageHeight=64;strokeWidth=1.5;" vertex="1" parent="gj-DLoBSfoS_qJrJy43p-1">
          <mxGeometry x="670" y="947" width="610" height="183" as="geometry" />
        </mxCell>
        <mxCell id="3LzONC4Wz7qyEUSdygTF-5" value="&lt;font face=&quot;arial&quot;&gt;&lt;b&gt;Event Broker (&lt;/b&gt;your-event-broker&lt;/font&gt;&lt;font face=&quot;arial&quot;&gt;&lt;b&gt;)&lt;br&gt;&lt;/b&gt;&lt;/font&gt;" style="text;html=1;align=left;verticalAlign=middle;resizable=0;points=[];autosize=1;strokeColor=none;fillColor=none;fontSize=12;fontColor=#1d2d3e;fontFamily=Helvetica;" vertex="1" parent="gj-DLoBSfoS_qJrJy43p-1">
          <mxGeometry x="668" y="907" width="200" height="30" as="geometry" />
        </mxCell>
        <mxCell id="3LzONC4Wz7qyEUSdygTF-6" value="&lt;font face=&quot;arial&quot; style=&quot;font-size: 16px;&quot;&gt;&lt;b style=&quot;font-size: 16px;&quot;&gt;SAP Integration Suite, advanced event mesh&lt;/b&gt;&lt;/font&gt;" style="text;html=1;align=center;verticalAlign=middle;resizable=0;points=[[0,0.5,0,0,0],[0.5,0,0,0,0],[0.5,1,0,0,0],[1,0.5,0,0,0]];autosize=1;strokeColor=none;fillColor=none;fontSize=12;fontColor=#1D2D3E;fontFamily=Helvetica;" vertex="1" parent="gj-DLoBSfoS_qJrJy43p-1">
          <mxGeometry x="697.25" y="827" width="360" height="30" as="geometry" />
        </mxCell>
        <mxCell id="3LzONC4Wz7qyEUSdygTF-7" value="" style="group" vertex="1" connectable="0" parent="gj-DLoBSfoS_qJrJy43p-1">
          <mxGeometry x="619" y="819" width="110" height="95" as="geometry" />
        </mxCell>
        <mxCell id="3LzONC4Wz7qyEUSdygTF-8" value="" style="shape=image;verticalLabelPosition=bottom;verticalAlign=top;imageAspect=0;aspect=fixed;image=data:image/svg+xml,PHN2ZyB4bWxucz0iaHR0cDovL3d3dy53My5vcmcvMjAwMC9zdmciIGZpbGw9Im5vbmUiIHZpZXdCb3g9IjAgMCA0OCA0OCIgaGVpZ2h0PSI0OCIgd2lkdGg9IjQ4Ij4mI3hhOzxjaXJjbGUgc3Ryb2tlLXdpZHRoPSIwLjg1NzE0MyIgc3Ryb2tlPSIjRDVEQUREIiBmaWxsPSJ1cmwoI3BhaW50MF9saW5lYXJfMzIzMl80NjI2KSIgcj0iMjMuNTcxNCIgY3k9IjI0IiBjeD0iMjQiLz4mI3hhOzxnIGNsaXAtcGF0aD0idXJsKCNjbGlwMF8zMjMyXzQ2MjYpIj4mI3hhOzxwYXRoIGZpbGw9InVybCgjcGFpbnQxX2xpbmVhcl8zMjMyXzQ2MjYpIiBkPSJNMTUuNTc4MiAxOC40NjI1QzE2LjAwMTkgMTUuNDE2MyAxOC41NDU0IDEyLjQ5ODUgMjIuMTI1MyAxMi40OTg1QzI0Ljk3MzMgMTIuNDk4NSAyNy4xMDU1IDE0LjA5ODEgMjguMjU0MiAxNi40NzY0QzI5Ljc4MjUgMTYuNjIxIDMxLjE3MjcgMTcuNDE3NCAzMi4xMzc1IDE4LjYzNTFDMzEuNzY3NCAxOS4wNzUyIDMxLjU0NDQgMTkuNjQzMiAzMS41NDQ0IDIwLjI2MzJWMjAuNDMyNEgzMS4zNzU1QzI5Ljk3NzUgMjAuNDMyNCAyOC44NDQyIDIxLjU2NTcgMjguODQ0MiAyMi45NjM3QzI4Ljg0NDIgMjMuMzYwNiAyOC45MzU1IDIzLjczNjEgMjkuMDk4MyAyNC4wNzA0QzI5LjA4MzYgMjQuMDcwMiAyOS4wNjg4IDI0LjA3MDEgMjkuMDU0MSAyNC4wNzAxQzI3LjYzMzUgMjQuMDcwMSAyNi4zODgxIDI0Ljk5MzUgMjUuOTU4MyAyNi4zMzYxTDI1Ljg5NDcgMjYuNTM1TDI1LjgyNTcgMjYuMzI0MkMyNS4zODgyIDI0Ljk4NjggMjQuMTQzMiAyNC4wNzAxIDIyLjcyNTQgMjQuMDcwMUMyMC45MDkzIDI0LjA3MDEgMTkuNDYyMiAyNS41NTEgMTkuNDYyMiAyNy4zNDY3VjI4LjgwMTRIMTYuMzAwOUMxNC42OTc2IDI4LjgwMTQgMTMuMzM2IDI4LjMwMjIgMTIuMzc2OSAyNy4zMTY3QzExLjQyNDIgMjYuMzM3OSAxMC45OTk5IDI1LjAxMzkgMTAuOTk5OSAyMy42MTMzQzEwLjk5OTkgMjIuMTA2MSAxMS41NTE3IDIwLjY3NjkgMTIuNjIwMSAxOS42OTIzQzEzLjQwOTggMTguOTY0NCAxNC40MjY2IDE4LjUzMTEgMTUuNTc4MiAxOC40NjI1WiIvPiYjeGE7PHBhdGggZmlsbD0idXJsKCNwYWludDJfbGluZWFyXzMyMzJfNDYyNikiIGQ9Ik0zMy4yMzIgMjAuNzU3MkMzMy40MDU2IDIxLjM0NzggMzMuNDk5OSAyMS45ODEgMzMuNDk5OSAyMi42NDQ3QzMzLjQ5OTkgMjMuMzI4NSAzMy40MDU1IDIzLjk2NiAzMy4yMzIgMjQuNTUxNlYyMy44MDc1SDMxLjM3NTVDMzAuOTA5NSAyMy44MDc1IDMwLjUzMTcgMjMuNDI5NyAzMC41MzE3IDIyLjk2MzdDMzAuNTMxNyAyMi40OTc3IDMwLjkwOTUgMjIuMTE5OSAzMS4zNzU1IDIyLjExOTlIMzMuMjMyVjIwLjc1NzJaIi8+JiN4YTs8cGF0aCBmaWxsPSJ1cmwoI3BhaW50M19saW5lYXJfMzIzMl80NjI2KSIgZD0iTTMzLjc2MjUgMzUuODk5OUMzMy4zNjcgMzYuMzAyMiAzMi45NzYyIDM2LjkyNTkgMzMuMzcxOCAzNy4zMjgyQzMzLjc2NzMgMzcuNzMwNiAzNC4yMTYyIDM3Ljc1ODcgMzQuNjExNyAzNy4zNTYzTDM3LjY0ODcgMzQuMjY3NEMzOC4wNDQzIDMzLjg2NSAzOC4wNDQzIDMzLjIxMzMgMzcuNjQ4NyAzMi44MTA5TDM0LjYxMTcgMjkuNzIyQzM0LjIxNjIgMjkuMzE5NiAzMy43NTE0IDI5LjE1MjEgMzMuMzU1OCAyOS41NTQ1QzMyLjg2MTEgMjkuOTQwNyAzMy41NDk4IDMwLjc3NjEgMzMuOTQ1MyAzMS4xNzg0TDM1LjA3OTIgMzIuNTMyTDI4LjgzNTcgMzIuNTM4M0wyOC44MzUzIDMzLjMzOTVDMjguODM0OSAzMy44OTIxIDI5LjI3OTIgMzQuMzM5OCAyOS44MjcgMzQuMzM5MkwzNS4xOTA5IDM0LjMzMzVMMzMuNzYyNSAzNS44OTk5WiIvPiYjeGE7PHBhdGggZmlsbD0idXJsKCNwYWludDRfbGluZWFyXzMyMzJfNDYyNikiIGQ9Ik0yMS4xNTMgMjcuMjE0MUMyMS4xNTMgMjYuMzU3NCAyMS44NDE2IDI1LjY2MjggMjIuNjkxIDI1LjY2MjhDMjMuMzU0NyAyNS42NjI4IDIzLjk0MzYgMjYuMDkyMyAyNC4xNTE2IDI2LjcyODFMMjUuNDEzIDMwLjU4NDFDMjUuNDgzMiAzMC43OTY1IDI1LjU2NTggMzEuMDk0MiAyNS42NjA3IDMxLjQ3NzJDMjUuNzU1NiAzMS44NjAzIDI1LjgxNzYgMzIuMTE0MyAyNS44NDY1IDMyLjIzOTJDMjUuODc5NSAzMi4xMTQzIDI1Ljk0NTUgMzEuODY0NCAyNi4wNDQ2IDMxLjQ4OTdDMjYuMTQ3OCAzMS4xMTA4IDI2LjIzNDUgMzAuODE5NCAyNi4zMDQ3IDMwLjYxNTRMMjcuNTQ4NCAyNi43Mjk1QzI3Ljc1MTkgMjYuMDkzNyAyOC4zMzg3IDI1LjY2MjggMjkuMDAxMSAyNS42NjI4QzI5Ljg0NDIgMjUuNjYyOCAzMC41Mjc2IDI2LjM1MjIgMzAuNTI3NiAyNy4yMDI1VjMyLjUzNjZMMjguODM1NyAzMi41MzgzTDI4LjgzNzIgMjkuMTI5QzI4LjgzNzIgMjguNjc5MyAyOC44NDc1IDI4LjI1NDYgMjguODY4MSAyNy44NTQ5QzI4Ljg5MjkgMjcuNDU1MiAyOC44ODI3IDI3LjI5NjMgMjguOTA1MyAyNy4yMjQyQzI4LjkwMTIgMjcuMjI4MyAyOC44NTk5IDI3LjM3NDEgMjguNzgxNSAyNy42NjEzQzI4Ljc0MDIgMjcuNzk4NyAyOC42NTM1IDI4LjA5NDQgMjguNTIxNCAyOC41NDgyQzI4LjM5MzQgMjkuMDAyIDI4LjI5MjMgMjkuMzM3MiAyOC4yMTggMjkuNTUzN0wyNi44MTk5IDMzLjc1MjFDMjYuNjc4NSAzNC4xNzY1IDI2LjI4NDIgMzQuNDYyNSAyNS44NDAzIDM0LjQ2MjVDMjUuMzk2MyAzNC40NjI1IDI1LjAwMiAzNC4xNzY1IDI0Ljg2MDcgMzMuNzUyMUwyMy40NjI2IDI5LjU1MzdDMjMuMzc1OSAyOS4yOTk3IDIzLjI1MiAyOC45MDIxIDIzLjA5MSAyOC4zNjA4QzIyLjkzNDIgMjcuODE1NCAyMi44MjQ4IDI3LjQzNjUgMjIuNzYyOSAyNy4yMjQyTDIyLjc3NTIgMjcuNDA1M0MyMi43Nzk0IDI3LjQ3MTkgMjIuNzkxOCAyNy43MDcxIDIyLjgxMjQgMjguMTExQzIyLjgzMyAyOC41MTA3IDIyLjg0MzQgMjguODUgMjIuODQzNCAyOS4xMjlWMzMuNjFDMjIuODQzNCAzNC4wODA4IDIyLjQ2NDkgMzQuNDYyNSAyMS45OTgyIDM0LjQ2MjVDMjEuNTMxNCAzNC40NjI1IDIxLjE1MyAzNC4wODA4IDIxLjE1MyAzMy42MVYyNy4yMTQxWiIvPiYjeGE7PHBhdGggZmlsbD0idXJsKCNwYWludDVfbGluZWFyXzMyMzJfNDYyNikiIGQ9Ik0zNC45MTk1IDIwLjI2MzJDMzQuOTE5NSAxOS43OTcyIDM0LjU0MTggMTkuNDE5NCAzNC4wNzU4IDE5LjQxOTRDMzMuNjA5OCAxOS40MTk0IDMzLjIzMiAxOS43OTcyIDMzLjIzMiAyMC4yNjMyVjIyLjExOTlIMzEuMzc1NUMzMC45MDk1IDIyLjExOTkgMzAuNTMxNyAyMi40OTc3IDMwLjUzMTcgMjIuOTYzN0MzMC41MzE3IDIzLjQyOTcgMzAuOTA5NSAyMy44MDc1IDMxLjM3NTUgMjMuODA3NUgzMy4yMzJWMjUuNjYzM0MzMy4yMzIgMjYuMTI5MyAzMy42MDk4IDI2LjUwNzEgMzQuMDc1OCAyNi41MDcxQzM0LjU0MTggMjYuNTA3MSAzNC45MTk1IDI2LjEyOTMgMzQuOTE5NSAyNS42NjMzVjIzLjgwNzVIMzYuNzc1NUMzNy4yNDE1IDIzLjgwNzUgMzcuNjE5MyAyMy40Mjk3IDM3LjYxOTMgMjIuOTYzN0MzNy42MTkzIDIyLjQ5NzcgMzcuMjQxNSAyMi4xMTk5IDM2Ljc3NTUgMjIuMTE5OUgzNC45MTk1VjIwLjI2MzJaIi8+JiN4YTs8L2c+JiN4YTs8ZGVmcz4mI3hhOzxsaW5lYXJHcmFkaWVudCBncmFkaWVudFVuaXRzPSJ1c2VyU3BhY2VPblVzZSIgeTI9IjQ0LjI0NDMiIHgyPSI0MS4wNjQ1IiB5MT0iNi44MTI4NCIgeDE9IjQuMzUyODciIGlkPSJwYWludDBfbGluZWFyXzMyMzJfNDYyNiI+JiN4YTs8c3RvcCBzdG9wLWNvbG9yPSJ3aGl0ZSIvPiYjeGE7PHN0b3Agc3RvcC1jb2xvcj0iI0VBRUNFRSIgb2Zmc2V0PSIxIi8+JiN4YTs8L2xpbmVhckdyYWRpZW50PiYjeGE7PGxpbmVhckdyYWRpZW50IGdyYWRpZW50VW5pdHM9InVzZXJTcGFjZU9uVXNlIiB5Mj0iMjkuOTEwOCIgeDI9IjI1LjIxODkiIHkxPSIxNC45MzY1IiB4MT0iMTQuMzcyNyIgaWQ9InBhaW50MV9saW5lYXJfMzIzMl80NjI2Ij4mI3hhOzxzdG9wIHN0b3AtY29sb3I9IiMwMTk1RkYiLz4mI3hhOzxzdG9wIHN0b3AtY29sb3I9IiMxMTQ3RTkiIG9mZnNldD0iMC45OTEwMjgiLz4mI3hhOzwvbGluZWFyR3JhZGllbnQ+JiN4YTs8bGluZWFyR3JhZGllbnQgZ3JhZGllbnRVbml0cz0idXNlclNwYWNlT25Vc2UiIHkyPSIyOS45MTA4IiB4Mj0iMjUuMjE4OSIgeTE9IjE0LjkzNjUiIHgxPSIxNC4zNzI3IiBpZD0icGFpbnQyX2xpbmVhcl8zMjMyXzQ2MjYiPiYjeGE7PHN0b3Agc3RvcC1jb2xvcj0iIzAxOTVGRiIvPiYjeGE7PHN0b3Agc3RvcC1jb2xvcj0iIzExNDdFOSIgb2Zmc2V0PSIwLjk5MTAyOCIvPiYjeGE7PC9saW5lYXJHcmFkaWVudD4mI3hhOzxsaW5lYXJHcmFkaWVudCBncmFkaWVudFVuaXRzPSJ1c2VyU3BhY2VPblVzZSIgeTI9IjM4LjU3MDgiIHgyPSIzMS41NTM3IiB5MT0iMjcuNDI1NiIgeDE9IjIzLjYzNTYiIGlkPSJwYWludDNfbGluZWFyXzMyMzJfNDYyNiI+JiN4YTs8c3RvcCBzdG9wLWNvbG9yPSIjMTM0OEZGIi8+JiN4YTs8c3RvcCBzdG9wLWNvbG9yPSIjMDYyMzhEIiBvZmZzZXQ9IjEiLz4mI3hhOzwvbGluZWFyR3JhZGllbnQ+JiN4YTs8bGluZWFyR3JhZGllbnQgZ3JhZGllbnRVbml0cz0idXNlclNwYWNlT25Vc2UiIHkyPSIzOC41NzA4IiB4Mj0iMzEuNTUzNyIgeTE9IjI3LjQyNTYiIHgxPSIyMy42MzU2IiBpZD0icGFpbnQ0X2xpbmVhcl8zMjMyXzQ2MjYiPiYjeGE7PHN0b3Agc3RvcC1jb2xvcj0iIzEzNDhGRiIvPiYjeGE7PHN0b3Agc3RvcC1jb2xvcj0iIzA2MjM4RCIgb2Zmc2V0PSIxIi8+JiN4YTs8L2xpbmVhckdyYWRpZW50PiYjeGE7PGxpbmVhckdyYWRpZW50IGdyYWRpZW50VW5pdHM9InVzZXJTcGFjZU9uVXNlIiB5Mj0iMjUuNDQyIiB4Mj0iMzYuNTU1MiIgeTE9IjIwLjQ4MjgiIHgxPSIzMS41OTI0IiBpZD0icGFpbnQ1X2xpbmVhcl8zMjMyXzQ2MjYiPiYjeGE7PHN0b3Agc3RvcC1jb2xvcj0iIzAwQkJGRiIvPiYjeGE7PHN0b3Agc3RvcC1jb2xvcj0iIzAwOEJGRiIgb2Zmc2V0PSIxIi8+JiN4YTs8L2xpbmVhckdyYWRpZW50PiYjeGE7PGNsaXBQYXRoIGlkPSJjbGlwMF8zMjMyXzQ2MjYiPiYjeGE7PHJlY3QgdHJhbnNmb3JtPSJ0cmFuc2xhdGUoMTEgMTIuNSkiIGZpbGw9IndoaXRlIiBoZWlnaHQ9IjI3LjAwMDYiIHdpZHRoPSIyNyIvPiYjeGE7PC9jbGlwUGF0aD4mI3hhOzwvZGVmcz4mI3hhOzwvc3ZnPg==" vertex="1" parent="3LzONC4Wz7qyEUSdygTF-7">
          <mxGeometry x="31.5" width="48" height="48" as="geometry" />
        </mxCell>
        <mxCell id="3LzONC4Wz7qyEUSdygTF-9" value="" style="shape=image;verticalLabelPosition=bottom;labelBackgroundColor=default;verticalAlign=top;aspect=fixed;imageAspect=0;image=data:image/svg+xml,PHN2ZyB4bWxuczp4bGluaz0iaHR0cDovL3d3dy53My5vcmcvMTk5OS94bGluayIgeG1sbnM9Imh0dHA6Ly93d3cudzMub3JnLzIwMDAvc3ZnIiB2aWV3Qm94PSIwIDAgMTQ0Ljc0NyAzOS44MzIiIGlkPSJhIj48ZGVmcz48bGluZWFyR3JhZGllbnQgZ3JhZGllbnRVbml0cz0idXNlclNwYWNlT25Vc2UiIHkyPSIzOS44MzIiIHgyPSI0MC4yNTgiIHkxPSIwIiB4MT0iNDAuMjU4IiBpZD0iYiI+PHN0b3Agc3RvcC1jb2xvcj0iIzAwYjhmMSIgb2Zmc2V0PSIwIi8+PHN0b3Agc3RvcC1jb2xvcj0iIzAwYjVlZiIgb2Zmc2V0PSIuMDE2Ii8+PHN0b3Agc3RvcC1jb2xvcj0iIzBkOTBkOCIgb2Zmc2V0PSIuMzA4Ii8+PHN0b3Agc3RvcC1jb2xvcj0iIzE2NzVjOCIgb2Zmc2V0PSIuNTc4Ii8+PHN0b3Agc3RvcC1jb2xvcj0iIzFjNjRiZSIgb2Zmc2V0PSIuODE3Ii8+PHN0b3Agc3RvcC1jb2xvcj0iIzFlNWZiYiIgb2Zmc2V0PSIxIi8+PC9saW5lYXJHcmFkaWVudD48L2RlZnM+PHBvbHlsaW5lIGZpbGwtcnVsZT0iZXZlbm9kZCIgZmlsbD0idXJsKCNiKSIgcG9pbnRzPSIwIDM5LjgzMiA0MC42OTIgMzkuODMyIDgwLjUxNyAwIDAgMCAwIDM5LjgzMiIvPjxwYXRoIGZpbGwtcnVsZT0iZXZlbm9kZCIgZmlsbD0iI2ZmZiIgZD0ibTQ3Ljc4Miw3LjQ4OWwtNy45MjUtLjAwNXYxOC44NDVsLTYuOTI0LTE4Ljg0NWgtNi44NjVsLTUuOTEyLDE1Ljc1OWMtLjYzLTMuOTczLTQuNzQtNS4zNDUtNy45NzQtNi4zNzQtMi4xMzUtLjY4Ni00LjQwMS0xLjY5NC00LjM4LTIuODA5LjAxNy0uOTE1LDEuMjE1LTEuNzY1LDMuNTg5LTEuNjM3LDEuNTk1LjA4NCwzLjAwMS4yMTMsNS44LDEuNTYzbDIuNzUzLTQuNzk1Yy0yLjU1NS0xLjMtNi4wODYtMi4xMjEtOC45NzgtMi4xMjRoLS4wMTdjLTMuMzc0LDAtNi4xODUsMS4wOTMtNy45MjgsMi44OTQtMS4yMTQsMS4yNTgtMS44NjksMi44NTYtMS44OTYsNC42MjMtLjA0NCwyLjQzMi44NDgsNC4xNTcsMi43MjEsNS41MzMsMS41ODMsMS4xNiwzLjYwNiwxLjkxMiw1LjM5LDIuNDY1LDIuMjAxLjY4MSwzLjk5NiwxLjI3NCwzLjk3NSwyLjUzOS0uMDE2LjQ1OS0uMTkxLjg4OC0uNTIxLDEuMjM2LS41NDguNTY2LTEuMzkxLjc3OS0yLjU1NS43OTktMi4yNDQuMDQ4LTMuOTEtLjMwMy02LjU2Mi0xLjg3bC0yLjQ0OCw0Ljg2MWMyLjY0NCwxLjUwNiw1Ljc3NiwyLjM4OCw4Ljk3MiwyLjM4OGwuNDExLS4wMDZjMi43ODItLjA1LDUuMDI2LS44NDIsNi44Mi0yLjI4Ni4xMDMtLjA4MS4xOTYtLjE2Ni4yOTEtLjI1bC0uNzk1LDIuMTIzaDcuMmwxLjIwOC0zLjY3NGMxLjI2NS40MzMsMi43MDQuNjcxLDQuMjMyLjY3MSwxLjQ4NywwLDIuODg5LS4yMjksNC4xMzEtLjYzNWwxLjE2NCwzLjYzN2gxMS43NDJ2LTcuNjA3aDIuNTYxYzYuMTg4LDAsOS44NTEtMy4xNTQsOS44NTEtOC40MzYsMC01Ljg4NS0zLjU1Ny04LjU4NS0xMS4xMzItOC41ODVabS0xOC4zMTcsMTYuMTI0Yy0uOTI1LDAtMS43OTItLjE2LTIuNTM5LS40NDNsMi41MTItNy45MjZoLjA0OGwyLjQ2OCw3Ljk0OGMtLjc0Mi4yNjMtMS41ODkuNDIxLTIuNDg4LjQyMVptMTguNzgzLTQuNTUzaC0xLjc0NnYtNi4zODZoMS43NDZjMi4zMjgsMCw0LjE4NS43NzMsNC4xODUsMy4xNTEsMCwyLjQ2MS0xLjg1NywzLjIzNi00LjE4NSwzLjIzNiIvPjxwYXRoIGZpbGw9IiMwMDJhODYiIGQ9Im04MC4yMTcsNy40MDFoMTAuMDYzYzUuNTk1LDAsOC42NzQsMS45MTcsOC42NzQsNi4xNTgsMCwyLjkwMy0xLjUxMyw1LjAxNC00LjMxMSw1LjcsMy4yOS40NTgsNS4yNzgsMi41ODYsNS4yNzgsNS44OTQsMCw1LjAxNC00LjA2NCw3LjAzNy05LjE4NCw3LjAzN2gtMTAuNTIxVjcuNDAxWm0xMy45NjksNi44MjZjMC0yLjE2NC0xLjQ5Ni0yLjk3My00LjI0LTIuOTczaC01LjA0OXY2LjI5OGg0Ljg5MWMzLjIwMiwwLDQuMzk4LTEuMTYxLDQuMzk4LTMuMzI1Wm0xLjAyMSwxMC41MjFjMC0yLjM1Ny0xLjc3Ny0zLjQ2Ni00LjgzOS0zLjQ2NmgtNS40NzF2Ny4wNTVoNS41MDZjMi44MTUsMCw0LjgwNC0uNzc0LDQuODA0LTMuNTg5WiIvPjxwYXRoIGZpbGw9IiMwMDJhODYiIGQ9Im0xMDkuMDUxLDExLjVoLTcuNTgzdi00LjA5OWgxOS44NDZ2NC4wOTloLTcuNTY1djIwLjY5aC00LjY5N1YxMS41WiIvPjxwYXRoIGZpbGw9IiMwMDJhODYiIGQ9Im0xMjUuMTQ4LDcuNDAxaDEwLjUwNGM2LjE5MiwwLDkuMDk2LDMuMTg1LDkuMDk2LDcuODk5LDAsNC4zOTgtMi44MzMsOC4xNDYtOC44NSw4LjE0NmgtNi4wN3Y4Ljc0NGgtNC42OFY3LjQwMVptMTQuOTAyLDcuOTUyYzAtMi41NTEtMS42ODktMy45MjMtNC45NDQtMy45MjNoLTUuMjc4djguMDRoNS40MTljMy4yNzIsMCw0LjgwNC0xLjU4Myw0LjgwNC00LjExN1oiLz48L3N2Zz4=;strokeWidth=1.5;" vertex="1" parent="gj-DLoBSfoS_qJrJy43p-1">
          <mxGeometry x="605.3505444646098" y="712.3266058016059" width="91.90426497277676" height="25.3505444646098" as="geometry" />
        </mxCell>
        <mxCell id="3LzONC4Wz7qyEUSdygTF-10" value="&lt;font face=&quot;arial&quot; style=&quot;font-size: 16px;&quot;&gt;&lt;b style=&quot;font-size: 16px;&quot;&gt;Subaccount&lt;/b&gt;&lt;/font&gt;" style="text;html=1;align=left;verticalAlign=middle;resizable=0;points=[];autosize=1;strokeColor=none;fillColor=none;fontSize=12;fontColor=#1d2d3e;fontFamily=Helvetica;" vertex="1" parent="gj-DLoBSfoS_qJrJy43p-1">
          <mxGeometry x="620.9981851179673" y="762.6395415695415" width="120" height="30" as="geometry" />
        </mxCell>
        <mxCell id="3LzONC4Wz7qyEUSdygTF-11" value="&lt;div style=&quot;&quot;&gt;&lt;code&gt;&lt;i&gt;&lt;font face=&quot;Arial&quot; style=&quot;font-size: 11px;&quot;&gt;(Topic)&lt;br&gt;default/sap.s4/S4D/&lt;br&gt;ce/sap/s4/beh/businesspartner/&lt;br&gt;v1/BusinessPartner/Created/v1&lt;/font&gt;&lt;/i&gt;&lt;/code&gt;&lt;br&gt;&lt;/div&gt;" style="text;html=1;align=center;verticalAlign=middle;resizable=0;points=[[0,0.5,0,0,0],[0.5,0,0,0,0],[0.5,1,0,0,0],[1,0.5,0,0,0]];autosize=1;strokeColor=none;fillColor=none;fontSize=12;fontColor=#556B82;fontFamily=Helvetica;" vertex="1" parent="gj-DLoBSfoS_qJrJy43p-1">
          <mxGeometry x="685" y="1034" width="180" height="70" as="geometry" />
        </mxCell>
        <mxCell id="3LzONC4Wz7qyEUSdygTF-16" value="" style="group" vertex="1" connectable="0" parent="gj-DLoBSfoS_qJrJy43p-1">
          <mxGeometry x="1470" y="970" width="150" height="87" as="geometry" />
        </mxCell>
        <mxCell id="3LzONC4Wz7qyEUSdygTF-17" value="" style="shape=mxgraph.sap.icon;labelPosition=center;verticalLabelPosition=bottom;align=center;verticalAlign=top;strokeWidth=1;strokeColor=#D5DADD;fillColor=#EDEFF0;gradientColor=#FCFCFC;gradientDirection=west;aspect=fixed;SAPIcon=SAP_Integration_Suite_-_Cloud_Integration" vertex="1" parent="3LzONC4Wz7qyEUSdygTF-16">
          <mxGeometry x="50" width="50" height="50" as="geometry" />
        </mxCell>
        <mxCell id="3LzONC4Wz7qyEUSdygTF-18" value="&lt;font face=&quot;arial&quot; color=&quot;#1d2d3e&quot;&gt;&lt;span style=&quot;font-size: 14px;&quot;&gt;&lt;b&gt;Cloud Integration&lt;/b&gt;&lt;/span&gt;&lt;/font&gt;" style="text;whiteSpace=wrap;html=1;align=center;verticalAlign=top;points=[[0,0,0,0,0],[0,0.25,0,0,0],[0,0.5,0,0,0],[0,0.75,0,0,0],[0,1,0,0,0],[0.25,0,0,0,0],[0.25,1,0,0,0],[0.5,0,0,0,0],[0.5,1,0,0,0],[0.75,0,0,0,0],[0.75,1,0,0,0],[1,0,0,0,0],[1,0.25,0,0,0],[1,0.5,0,0,0],[1,0.75,0,0,0],[1,1,0,0,0]];" vertex="1" parent="3LzONC4Wz7qyEUSdygTF-16">
          <mxGeometry y="57" width="150" height="30" as="geometry" />
        </mxCell>
        <mxCell id="3LzONC4Wz7qyEUSdygTF-19" value="&lt;font color=&quot;#0070f2&quot; face=&quot;arial&quot; style=&quot;font-size: 16px;&quot;&gt;&lt;b style=&quot;font-size: 16px;&quot;&gt;Get started with SAP Integration Suite, advanced event mesh&lt;/b&gt;&lt;/font&gt;" style="text;html=1;align=left;verticalAlign=middle;resizable=0;points=[];autosize=1;strokeColor=none;fillColor=none;fontSize=12;fontColor=#1d2d3e;fontFamily=Helvetica;" vertex="1" parent="gj-DLoBSfoS_qJrJy43p-1">
          <mxGeometry x="200" y="610" width="490" height="30" as="geometry" />
        </mxCell>
        <mxCell id="3LzONC4Wz7qyEUSdygTF-20" value="" style="endArrow=blockThin;html=1;strokeColor=#475E75;bendable=1;rounded=0;endFill=1;endSize=4;edgeStyle=orthogonalEdgeStyle;startArrow=blockThin;startFill=1;startSize=4;jumpStyle=none;jumpSize=0;targetPerimeterSpacing=15;strokeWidth=1.5;entryX=0;entryY=0.675;entryDx=0;entryDy=0;entryPerimeter=0;exitX=1;exitY=0.25;exitDx=0;exitDy=0;" edge="1" parent="gj-DLoBSfoS_qJrJy43p-1" target="3LzONC4Wz7qyEUSdygTF-17">
          <mxGeometry width="50" height="50" relative="1" as="geometry">
            <mxPoint x="1043.06" y="1004.2500000000002" as="sourcePoint" />
            <mxPoint x="1190" y="1024" as="targetPoint" />
            <Array as="points">
              <mxPoint x="1510" y="1004" />
            </Array>
          </mxGeometry>
        </mxCell>
        <mxCell id="3LzONC4Wz7qyEUSdygTF-22" value="" style="endArrow=none;html=1;strokeColor=#475e75;bendable=1;rounded=0;endFill=0;endSize=4;edgeStyle=entityRelationEdgeStyle;startArrow=none;startFill=0;startSize=4;jumpStyle=none;jumpSize=0;targetPerimeterSpacing=15;strokeWidth=1.5;exitX=1;exitY=0.5;exitDx=0;exitDy=0;entryX=0;entryY=0.5;entryDx=0;entryDy=0;" edge="1" parent="gj-DLoBSfoS_qJrJy43p-1" source="3LzONC4Wz7qyEUSdygTF-23">
          <mxGeometry width="50" height="50" relative="1" as="geometry">
            <mxPoint x="821" y="1006" as="sourcePoint" />
            <mxPoint x="993.9499999999998" y="1006.5" as="targetPoint" />
          </mxGeometry>
        </mxCell>
        <mxCell id="3LzONC4Wz7qyEUSdygTF-23" value="" style="shape=image;editableCssRules=.*;verticalLabelPosition=bottom;labelBackgroundColor=default;verticalAlign=top;aspect=fixed;imageAspect=0;image=data:image/svg+xml,PHN2ZyB4bWxucz0iaHR0cDovL3d3dy53My5vcmcvMjAwMC9zdmciIHZpZXdCb3g9Ii0wLjUgLTAuNSA0Ny45MDcgNDMuMjA3IiBoZWlnaHQ9IjQzLjIwNyIgd2lkdGg9IjQ3LjkwNyI+JiN4YTsJICA8c3R5bGUgdHlwZT0idGV4dC9jc3MiPiYjeGE7CQkuc3Qwe3N0b3AtY29sb3I6IzViNzM4Yjt9JiN4YTsJCS5zdDF7c3RvcC1jb2xvcjojMjIzNTQ4O30mI3hhOwkgIDwvc3R5bGU+JiN4YTsJPGRlZnM+JiN4YTsJCTxsaW5lYXJHcmFkaWVudCBncmFkaWVudFVuaXRzPSJ1c2VyU3BhY2VPblVzZSIgeTI9IjQyLjcwNyIgeDI9IjIzLjQ1NCIgeTE9Ii0uNSIgeDE9IjIzLjQ1NCIgaWQ9IkEiPiYjeGE7CQkJPHN0b3AgY2xhc3M9InN0MCIvPiYjeGE7CQkJPHN0b3AgY2xhc3M9InN0MSIgb2Zmc2V0PSIxIi8+JiN4YTsJCTwvbGluZWFyR3JhZGllbnQ+JiN4YTsJPC9kZWZzPiYjeGE7CTxwYXRoIGZpbGw9InVybCgjQSkiIGQ9Ik00Ni40NjggMTQuNDQ1Yy4yNTIuMjUyLjQ2OC41MzEuNjU3Ljg0M2ExLjk3IDEuOTcgMCAwIDEgLjI4MiAxLjAzMnYxOS4xMjVjMCAxLjMxNC0uNjI3IDIuMTI3LTEuODc1IDIuNDM5bC0yNCA0Ljc4MmMtLjgxMy4xMjMtMS40NC0uMDMtMS44NzUtLjQ3MS0uMjUzLS4yNTMtLjQ3My0uNTM2LS42NTctLjg0My0uMTczLS4zMTgtLjI2OS0uNjcxLS4yODItMS4wMzJWMjEuMTAyYzAtMS4zNzQuNjI3LTIuMTU3IDEuODc1LTIuMzQzbDI0LTQuNzgyYy4zMTIgMCAuNjI3LjAzLjkzOS4wOTNhMS4yNyAxLjI3IDAgMCAxIC45MzYuMzc1em0tMy44NDMgNC43ODJMMjMuNSAyMy4wN3YxNC4zNDNsMTkuMTI1LTMuODR6TTM3Ljg0MyA4LjYzNGMuMTIuNjUtLjAxNCAxLjMyMS0uMzc1IDEuODc1LS4xNTMuMjc2LS4zNjguNTEzLS42MjkuNjkycy0uNTU5LjI5NC0uODcxLjMzN2wtMjIuMDMyIDQuMzE0djE3LjI1YzAgLjY5LS4yNDkgMS4yNTEtLjc1IDEuNjg5LS4yMjIuMjE4LS40ODYuMzg3LS43NzYuNDk5YTIuMjkgMi4yOSAwIDAgMS0uOTEuMTUyYy0xLjU2IDAtMi4zNDMtLjc4LTIuMzQzLTIuMzQzVjEzLjk3N2MwLTEuMzE0LjYyNC0yLjEyNCAxLjg3NS0yLjQzOWwyNC00Ljc3OWMuNTYxLS4xMjYgMS4xMjUuMDMgMS42ODYuNDY4LjYyNy4zNzUgMS4wMDIuODQzIDEuMTI1IDEuNDA3em0tOS41NjEtNy4xMjVjLjEyMy41NjEgMCAxLjE1NS0uMzc1IDEuNzc5LS4xNTMuMjc3LS4zNjguNTE0LS42MjguNjkzcy0uNTU5LjI5NS0uODcyLjMzOUw0LjI4MiA4LjYzNHYxNy4yNWMwIDEuNjIzLS43OCAyLjQzNi0yLjM0NiAyLjQzNi0uNjU0LjAxMS0xLjI4OS0uMjIzLTEuNzc5LS42NTctLjQzOC0uNDM1LS42NTctMS4wMjktLjY1Ny0xLjc3OVY2Ljc1OWMwLTEuMzE0LjY1Ny0yLjEyNyAxLjk2OC0yLjQzOUwyNS4zNzUtLjQ2MmMuMzEzLS4wNi42MzYtLjA0OS45NDUuMDMycy41OTUuMjMyLjgzNy40MzljLjYyNC4zNzUuOTk5Ljg3MyAxLjEyNSAxLjV6Ii8+JiN4YTs8L3N2Zz4=;" vertex="1" parent="gj-DLoBSfoS_qJrJy43p-1">
          <mxGeometry x="751" y="985" width="48" height="43" as="geometry" />
        </mxCell>
        <mxCell id="3LzONC4Wz7qyEUSdygTF-24" value="" style="strokeColor=#0070F2;shadow=0;strokeWidth=2;rounded=1;absoluteArcSize=1;arcSize=20;whiteSpace=wrap;verticalAlign=bottom;spacing=10;fontSize=10;fontColor=#556B82;align=left;container=0;" vertex="1" parent="gj-DLoBSfoS_qJrJy43p-1">
          <mxGeometry x="200" y="939.3399999999999" width="179" height="110.66" as="geometry" />
        </mxCell>
        <mxCell id="3LzONC4Wz7qyEUSdygTF-25" value="&lt;span style=&quot;font-family: Helvetica; font-style: normal; font-variant-ligatures: normal; font-variant-caps: normal; font-weight: 700; letter-spacing: normal; orphans: 2; text-indent: 0px; text-transform: none; widows: 2; word-spacing: 0px; -webkit-text-stroke-width: 0px; text-decoration-thickness: initial; text-decoration-style: initial; text-decoration-color: initial; float: none; display: inline !important;&quot;&gt;&lt;font style=&quot;font-size: 11px;&quot;&gt;SAP S/4HANA Cloud&lt;/font&gt;&lt;/span&gt;" style="text;whiteSpace=wrap;html=1;align=left;container=0;verticalAlign=middle;fontColor=#1D2D3E;fontSize=10;" vertex="1" parent="gj-DLoBSfoS_qJrJy43p-1">
          <mxGeometry x="210" y="1007.67" width="140" height="24.57" as="geometry" />
        </mxCell>
        <mxCell id="3LzONC4Wz7qyEUSdygTF-26" value="" style="shape=image;editableCssRules=.*;part=0;verticalLabelPosition=bottom;labelBackgroundColor=default;verticalAlign=top;imageAspect=0;image=data:image/svg+xml,PHN2ZyB4bWxucz0iaHR0cDovL3d3dy53My5vcmcvMjAwMC9zdmciIHZpZXdCb3g9Ii0wLjUgLTAuNSAyOCAxOC40MTIiIGhlaWdodD0iMTguNDEyIiB3aWR0aD0iMjgiPiYjeGE7CSAgPHN0eWxlIHR5cGU9InRleHQvY3NzIj4uc3QwIHsgc3RvcC1jb2xvcjogcmdiKDM1LCAxNDksIDI1NSk7IH0gLnN0MSB7IHN0b3AtY29sb3I6IHJnYigwLCA4NywgMjEwKTsgfSA8L3N0eWxlPiYjeGE7CTxkZWZzPiYjeGE7CQk8bGluZWFyR3JhZGllbnQgZ3JhZGllbnRVbml0cz0idXNlclNwYWNlT25Vc2UiIHkyPSIyMi4wMDgiIHgyPSIxNC44NjkiIHkxPSIyLjExMyIgeDE9IjIuMDM5IiBpZD0iQSI+JiN4YTsJCQk8c3RvcCBjbGFzcz0ic3QwIi8+JiN4YTsJCQk8c3RvcCBjbGFzcz0ic3QxIiBvZmZzZXQ9IjEiLz4mI3hhOwkJPC9saW5lYXJHcmFkaWVudD4mI3hhOwk8L2RlZnM+JiN4YTsJPHBhdGggZmlsbD0idXJsKCNBKSIgZD0iTTUuOTAzIDYuMDQ3QzYuNDM0IDIuMzQ1IDkuNjE5LS41IDEzLjQ2Ny0uNWMyLjgwMSAwIDUuMjQ3IDEuNTA2IDYuNTc3IDMuNzQ5aC4xMjRjNC4wNDkgMCA3LjMzMSAzLjI4MiA3LjMzMSA3LjMzMXMtMy4yODIgNy4zMzEtNy4zMzEgNy4zMzFoLTQuMDU0Yy0uMDg3IDAtLjE3My0uMDAyLS4yNTktLjAwNS0uMDc4LjAwMy0uMTU1LjAwNS0uMjMzLjAwNUg1LjQzMmMtMy4yNzYgMC01LjkzMi0yLjY1Ni01LjkzMi01LjkzMnMyLjY1Ni01LjkzMiA1LjkzMi01LjkzMnpNMTMuNDY3IDIuM2MtMi42NzQgMC00Ljg0MiAyLjE2OC00Ljg0MiA0Ljg0MmE0Ljk0IDQuOTQgMCAwIDAgLjAwNi4yMzggMS40IDEuNCAwIDAgMS0xLjM5OCAxLjQ2N2gtMS44Yy0xLjczIDAtMy4xMzIgMS40MDItMy4xMzIgMy4xMzJzMS40MDIgMy4xMzIgMy4xMzIgMy4xMzJoMTAuMTlhMy4xNCAzLjE0IDAgMCAwIC4xNi0uMDA0IDEuMzkgMS4zOSAwIDAgMSAuMTMxIDBjLjA2Ny4wMDMuMTM0LjAwNC4yMDIuMDA0aDQuMDU0YTQuNTMgNC41MyAwIDEgMCAwLTkuMDYyaC0uOTc3YTEuNCAxLjQgMCAwIDEtMS4yODMtLjg0QzE3LjE2MSAzLjQ5NCAxNS40NTIgMi4zIDEzLjQ2NyAyLjN6IiBmaWxsLXJ1bGU9ImV2ZW5vZGQiLz4mI3hhOzwvc3ZnPg==;labelPosition=center;align=left;fontSize=16;fontStyle=1;spacingLeft=0;" vertex="1" parent="gj-DLoBSfoS_qJrJy43p-1">
          <mxGeometry x="210" y="947" width="34" height="22" as="geometry">
            <mxPoint x="260" y="-186" as="offset" />
          </mxGeometry>
        </mxCell>
        <mxCell id="3LzONC4Wz7qyEUSdygTF-27" value="&lt;span style=&quot;color: rgb(0, 0, 0); font-family: Helvetica; font-size: 16px; font-style: normal; font-variant-ligatures: normal; font-variant-caps: normal; font-weight: 700; letter-spacing: normal; orphans: 2; text-align: left; text-indent: 0px; text-transform: none; widows: 2; word-spacing: 0px; -webkit-text-stroke-width: 0px; white-space: nowrap; background-color: rgb(255, 255, 255); text-decoration-thickness: initial; text-decoration-style: initial; text-decoration-color: initial; display: inline !important; float: none;&quot;&gt;SAP Cloud Solutions&lt;/span&gt;" style="text;whiteSpace=wrap;html=1;" vertex="1" parent="gj-DLoBSfoS_qJrJy43p-1">
          <mxGeometry x="210" y="968.89" width="164" height="40" as="geometry" />
        </mxCell>
        <mxCell id="3LzONC4Wz7qyEUSdygTF-28" value="" style="endArrow=blockThin;html=1;strokeColor=#475e75;bendable=1;rounded=0;endFill=1;endSize=4;strokeWidth=1.5;startSize=4;startArrow=none;startFill=0;entryX=0;entryY=0.5;entryDx=0;entryDy=0;exitX=1;exitY=0.75;exitDx=0;exitDy=0;" edge="1" parent="gj-DLoBSfoS_qJrJy43p-1" source="3LzONC4Wz7qyEUSdygTF-24" target="3LzONC4Wz7qyEUSdygTF-3">
          <mxGeometry width="50" height="50" relative="1" as="geometry">
            <mxPoint x="440" y="1200" as="sourcePoint" />
            <mxPoint x="560" y="1200" as="targetPoint" />
            <Array as="points" />
          </mxGeometry>
        </mxCell>
        <mxCell id="3LzONC4Wz7qyEUSdygTF-29" value="NETWORK" style="text;html=1;align=left;verticalAlign=middle;resizable=0;points=[];autosize=1;strokeColor=none;fillColor=none;fontSize=14;fontStyle=1;fontColor=#5B738B;" vertex="1" parent="gj-DLoBSfoS_qJrJy43p-1">
          <mxGeometry x="460" y="673" width="100" height="30" as="geometry" />
        </mxCell>
        <mxCell id="3LzONC4Wz7qyEUSdygTF-30" value="" style="endArrow=none;html=1;strokeColor=#5B738B;bendable=1;rounded=0;endFill=0;endSize=4;strokeWidth=3;startSize=4;startArrow=none;startFill=0;jumpStyle=gap;" edge="1" parent="gj-DLoBSfoS_qJrJy43p-1">
          <mxGeometry width="50" height="50" relative="1" as="geometry">
            <mxPoint x="550" y="673" as="sourcePoint" />
            <mxPoint x="550" y="1243" as="targetPoint" />
            <Array as="points" />
          </mxGeometry>
        </mxCell>
        <mxCell id="3LzONC4Wz7qyEUSdygTF-31" value="&lt;font size=&quot;1&quot; face=&quot;arial&quot; style=&quot;&quot;&gt;&lt;span style=&quot;font-size: 12px;&quot;&gt;Publishes business events&lt;/span&gt;&lt;/font&gt;" style="text;html=1;align=left;verticalAlign=middle;resizable=0;points=[];autosize=1;strokeColor=none;fillColor=none;fontSize=12;fontColor=#1D2D3E;fontFamily=Helvetica;" vertex="1" parent="gj-DLoBSfoS_qJrJy43p-1">
          <mxGeometry x="394" y="997" width="160" height="30" as="geometry" />
        </mxCell>
        <mxCell id="3LzONC4Wz7qyEUSdygTF-34" value="&lt;font face=&quot;arial&quot;&gt;Consume/publish events&lt;br&gt;&lt;div style=&quot;text-align: center;&quot;&gt;&lt;span style=&quot;background-color: transparent; color: light-dark(rgb(29, 45, 62), rgb(188, 202, 216));&quot;&gt;AEM adapter&lt;/span&gt;&lt;/div&gt;&lt;/font&gt;" style="text;html=1;align=left;verticalAlign=middle;resizable=0;points=[];autosize=1;strokeColor=none;fillColor=none;fontSize=12;fontColor=#1D2D3E;fontFamily=Helvetica;" vertex="1" parent="gj-DLoBSfoS_qJrJy43p-1">
          <mxGeometry x="1322" y="959" width="150" height="40" as="geometry" />
        </mxCell>
        <mxCell id="3LzONC4Wz7qyEUSdygTF-35" value="&lt;font size=&quot;1&quot; face=&quot;arial&quot; style=&quot;&quot;&gt;&lt;span style=&quot;font-size: 12px;&quot;&gt;Subscribes&lt;/span&gt;&lt;/font&gt;" style="text;html=1;align=left;verticalAlign=middle;resizable=0;points=[];autosize=1;strokeColor=none;fillColor=none;fontSize=12;fontColor=#1D2D3E;fontFamily=Helvetica;" vertex="1" parent="gj-DLoBSfoS_qJrJy43p-1">
          <mxGeometry x="860" y="980.6700000000001" width="80" height="30" as="geometry" />
        </mxCell>
        <mxCell id="3LzONC4Wz7qyEUSdygTF-36" value="&lt;font color=&quot;#475e75&quot; size=&quot;1&quot;&gt;&lt;b style=&quot;&quot;&gt;SMF&lt;/b&gt;&lt;/font&gt;" style="rounded=1;whiteSpace=wrap;html=1;arcSize=50;strokeColor=#475E75;fillColor=#f5f6f7;strokeWidth=1.5;" vertex="1" parent="gj-DLoBSfoS_qJrJy43p-1">
          <mxGeometry x="1439" y="997.89" width="46" height="16" as="geometry" />
        </mxCell>
        <mxCell id="3LzONC4Wz7qyEUSdygTF-37" value="&lt;font color=&quot;#475e75&quot; size=&quot;1&quot;&gt;&lt;b style=&quot;&quot;&gt;AMQP&lt;/b&gt;&lt;/font&gt;" style="rounded=1;whiteSpace=wrap;html=1;arcSize=50;strokeColor=#475E75;fillColor=#f5f6f7;strokeWidth=1.5;" vertex="1" parent="gj-DLoBSfoS_qJrJy43p-1">
          <mxGeometry x="570" y="1015" width="46" height="16" as="geometry" />
        </mxCell>
        <mxCell id="3LzONC4Wz7qyEUSdygTF-38" value="&lt;font size=&quot;1&quot; face=&quot;arial&quot; style=&quot;&quot;&gt;&lt;span style=&quot;font-size: 12px;&quot;&gt;my-queue&lt;/span&gt;&lt;/font&gt;" style="text;html=1;align=center;verticalAlign=middle;resizable=0;points=[[0,0.5,0,0,0],[0.5,0,0,0,0],[0.5,1,0,0,0],[1,0.5,0,0,0]];autosize=1;strokeColor=none;fillColor=none;fontSize=12;fontColor=#1D2D3E;fontFamily=Helvetica;" vertex="1" parent="gj-DLoBSfoS_qJrJy43p-1">
          <mxGeometry x="978.5" y="1044" width="80" height="30" as="geometry" />
        </mxCell>
        <mxCell id="3LzONC4Wz7qyEUSdygTF-42" value="" style="rounded=0;whiteSpace=wrap;html=1;strokeColor=#eaecee;strokeWidth=1.5;arcSize=16;fillColor=#FFFFFF;perimeterSpacing=0;imageHeight=24;absoluteArcSize=1;points=[];connectable=0;container=0;" vertex="1" parent="gj-DLoBSfoS_qJrJy43p-1">
          <mxGeometry x="1430" y="1240" width="220" height="90" as="geometry" />
        </mxCell>
        <mxCell id="3LzONC4Wz7qyEUSdygTF-43" value="&lt;font size=&quot;1&quot; style=&quot;&quot; face=&quot;arial&quot; color=&quot;#1d2d3e&quot;&gt;&lt;b style=&quot;font-size: 12px;&quot;&gt;Legend&lt;/b&gt;&lt;/font&gt;" style="text;html=1;align=left;verticalAlign=top;resizable=0;points=[];autosize=1;strokeColor=none;fillColor=none;fontSize=12;fontColor=default;fontFamily=Helvetica;" vertex="1" parent="gj-DLoBSfoS_qJrJy43p-1">
          <mxGeometry x="1450.9982051282052" y="1249" width="61" height="26" as="geometry" />
        </mxCell>
        <mxCell id="3LzONC4Wz7qyEUSdygTF-44" value="&lt;div style=&quot;font-size: 10px; line-height: 100%;&quot;&gt;&lt;span style=&quot;font-family: arial; font-size: 10px; background-color: initial;&quot;&gt;&lt;font style=&quot;font-size: 10px;&quot;&gt;Access&lt;/font&gt;&lt;/span&gt;&lt;/div&gt;" style="text;html=1;align=left;verticalAlign=middle;resizable=0;points=[];autosize=1;strokeColor=none;fillColor=none;fontSize=10;fontColor=#1D2D3E;fontFamily=Helvetica;labelPosition=center;verticalLabelPosition=middle;" vertex="1" parent="gj-DLoBSfoS_qJrJy43p-1">
          <mxGeometry x="1470" y="1276.5" width="50" height="23" as="geometry" />
        </mxCell>
        <mxCell id="3LzONC4Wz7qyEUSdygTF-45" value="" style="ellipse;whiteSpace=wrap;html=1;aspect=fixed;strokeColor=none;fillColor=#475E75;fontColor=#475E75;" vertex="1" parent="gj-DLoBSfoS_qJrJy43p-1">
          <mxGeometry x="1451.5" y="1281" width="16" height="16" as="geometry" />
        </mxCell>
        <mxCell id="3LzONC4Wz7qyEUSdygTF-46" value="" style="shape=image;verticalLabelPosition=bottom;verticalAlign=top;imageAspect=0;aspect=fixed;image=data:image/svg+xml,PHN2ZyB4bWxucz0iaHR0cDovL3d3dy53My5vcmcvMjAwMC9zdmciIGZpbGw9Im5vbmUiIHZpZXdCb3g9IjAgMCA0OSA0OSIgaGVpZ2h0PSI0OSIgd2lkdGg9IjQ5Ij4mI3hhOzxjaXJjbGUgc3Ryb2tlLXdpZHRoPSIwLjg1NzE0MyIgc3Ryb2tlPSIjRDVEQUREIiBmaWxsPSJ1cmwoI3BhaW50MF9saW5lYXJfMjYyMl8yMDQ3NSkiIHI9IjIzLjU3MTQiIGN5PSIyNC4wMzQ5IiBjeD0iMjQuNSIvPiYjeGE7PHBhdGggZmlsbD0idXJsKCNwYWludDFfcmFkaWFsXzI2MjJfMjA0NzUpIiBkPSJNMjQuMzkzMSAxMi4yMzcxQzIwLjExMDcgMTIuMjM3MSAxNy4wNjgxIDE1LjcyMzEgMTYuNTYxMSAxOS4zNjI1QzE1LjE4MzYgMTkuNDQ0NCAxMy45NjcyIDE5Ljk2MjEgMTMuMDIyNSAyMC44MzE3QzExLjc0NDUgMjIuMDA4MSAxMS4wODQ0IDIzLjcxNTYgMTEuMDg0NCAyNS41MTYzQzExLjA4NDQgMjcuMTg5NyAxMS41OTIgMjguNzcxNSAxMi43MzE2IDI5Ljk0MDlDMTMuNTg2MSAzMC44MTc4IDE0LjcwNzcgMzEuMzcyNCAxNi4wMTcgMzEuNTk4NEMxNi4xMzc2IDMxLjM1MzUgMTYuMjczNSAzMS4xMTY4IDE2LjQyNTIgMzAuODg5MkwxNi40NDEgMzAuODY1NUwxNi40NTQ4IDMwLjg0NjFDMTYuNzA2OSAzMC40OTAxIDE2Ljk5NDggMzAuMTY2IDE3LjMxNjkgMjkuODc2MUMxNy4xODMxIDI5LjQzMTcgMTcuMTE4IDI4Ljk2NDUgMTcuMTE4IDI4LjQ4MzVDMTcuMTE4IDI3Ljg1NDkgMTcuMjM4NiAyNy4yNDEzIDE3LjQ4NDkgMjYuNjU5MkMxNy43MiAyNi4xMDMzIDE4LjA1MTMgMjUuNjAwMSAxOC40ODI0IDI1LjE2OTFDMTguOTE4IDI0LjczMzQgMTkuNDI1IDI0LjM5MTYgMTkuOTkyNiAyNC4xNTE1QzIwLjU3NDcgMjMuOTA1MiAyMS4xODgyIDIzLjc4NDYgMjEuODE2OCAyMy43ODQ2QzIyLjA3NTkgMjMuNzg0NiAyMi4zMzI0IDIzLjgwNTEgMjIuNTg1MyAyMy44NDY0QzIyLjkwNjUgMjMuNjE3OSAyMy4yNTIyIDIzLjQyNTEgMjMuNjIwNCAyMy4yNjkzQzI0LjI4NTEgMjIuOTg4MSAyNC45ODYzIDIyLjg0OTcgMjUuNzA4OSAyMi44NDk3QzI2LjQzMTYgMjIuODQ5NyAyNy4xMzI3IDIyLjk4ODEgMjcuNzk3NSAyMy4yNjkzQzI4LjQ0MzYgMjMuNTQyNyAyOS4wMTc2IDIzLjkzMjYgMjkuNTA0MyAyNC40MzY1QzMwLjAwODIgMjQuOTIzMiAzMC4zOTgxIDI1LjQ5NzIgMzAuNjcxNSAyNi4xNDMzQzMwLjk1MjcgMjYuODA4MSAzMS4wOTExIDI3LjUwOTMgMzEuMDkxMSAyOC4yMzE5QzMxLjA5MTEgMjguOTI1MiAzMC45NjM3IDI5LjU5ODggMzAuNzA1IDMwLjIzOTVDMzEuMTk2OSAzMC42Mjg4IDMxLjYzNDYgMzEuMDg3NyAzMi4wMTUyIDMxLjYxMjdDMzUuMjc5MiAzMS4wNDI2IDM3Ljk5OTkgMjguMzY4IDM3Ljk5OTkgMjQuMzU5MUMzNy45OTk5IDIwLjM3NTEgMzUuMTUyNiAxNy4zMTM1IDMxLjcyNDcgMTYuOTg5N0MzMC4zNTA3IDE0LjE0ODMgMjcuOCAxMi4yMzcxIDI0LjM5MzEgMTIuMjM3MVoiIGNsaXAtcnVsZT0iZXZlbm9kZCIgZmlsbC1ydWxlPSJldmVub2RkIi8+JiN4YTs8cGF0aCBmaWxsPSJ1cmwoI3BhaW50Ml9yYWRpYWxfMjYyMl8yMDQ3NSkiIGQ9Ik0yOC4zMzY4IDMwLjgwNzhDMjkuMzA4MiAzMS4xODk0IDMwLjA5NzQgMzEuODEzOCAzMC43MDQ1IDMyLjY4MTFDMzEuMzExNiAzMy41NDg0IDMxLjYxNTIgMzQuNTI4NSAzMS42MTUyIDM1LjYyMTNWMzcuMTA0NEMzMS42MTUyIDM3LjMxMjUgMzEuNTM3MSAzNy40ODYgMzEuMzgxIDM3LjYyNDdDMzEuMjQyMiAzNy43NjM1IDMxLjA3NzQgMzcuODMyOSAzMC44ODY2IDM3LjgzMjlIMjkuNDAzNkMyOS4xOTU0IDM3LjgzMjkgMjkuMDEzMyAzNy43NjM1IDI4Ljg1NzIgMzcuNjI0N0MyOC43MTg0IDM3LjQ4NiAyOC42NDkgMzcuMzEyNSAyOC42NDkgMzcuMTA0NEMyOC42NDkgMzYuODk2MiAyOC43MTg0IDM2LjcyMjcgMjguODU3MiAzNi41ODRDMjkuMDEzMyAzNi40Mjc5IDI5LjE5NTQgMzYuMzQ5OCAyOS40MDM2IDM2LjM0OThIMzAuMTMyMVYzNS42MjEzQzMwLjEzMjEgMzUuMTE4MiAzMC4wMzY3IDM0LjY0MTIgMjkuODQ1OSAzNC4xOTAyQzI5LjY1NTEgMzMuNzM5MiAyOS4zODYyIDMzLjM0OSAyOS4wMzkzIDMzLjAxOTRDMjguNzA5NyAzMi42NzI1IDI4LjMxOTUgMzIuNDAzNiAyNy44Njg1IDMyLjIxMjhDMjcuNDM0OCAzMi4wMjIgMjYuOTU3OCAzMS45MjY2IDI2LjQzNzUgMzEuOTI2NkgyNC45ODA0QzI0LjQ2IDMxLjkyNjYgMjMuOTc0NCAzMi4wMjIgMjMuNTIzNCAzMi4yMTI4QzIzLjA4OTcgMzIuNDAzNiAyMi42OTk0IDMyLjY3MjUgMjIuMzUyNSAzMy4wMTk0QzIyLjAyMyAzMy4zNDkgMjEuNzYyOCAzMy43MzkyIDIxLjU3MiAzNC4xOTAyQzIxLjM4MTIgMzQuNjQxMiAyMS4yODU4IDM1LjExODIgMjEuMjg1OCAzNS42MjEzVjM2LjM0OThIMjIuMDE0M0MyMi4yMjI0IDM2LjM0OTggMjIuMzk1OSAzNi40Mjc5IDIyLjUzNDcgMzYuNTg0QzIyLjY3MzQgMzYuNzIyNyAyMi43NDI4IDM2Ljg5NjIgMjIuNzQyOCAzNy4xMDQ0QzIyLjc0MjggMzcuMzEyNSAyMi42NzM0IDM3LjQ4NiAyMi41MzQ3IDM3LjYyNDdDMjIuMzk1OSAzNy43NjM1IDIyLjIyMjQgMzcuODMyOSAyMi4wMTQzIDM3LjgzMjlIMjAuNTMxMkMyMC4zNDA0IDM3LjgzMjkgMjAuMTY3IDM3Ljc2MzUgMjAuMDEwOSAzNy42MjQ3QzE5Ljg3MjEgMzcuNDg2IDE5LjgwMjcgMzcuMzEyNSAxOS44MDI3IDM3LjEwNDRMMTkuODAyNyAzNi4wNTAySDE3LjgyMzRDMTcuNjMyOCAzNi4wNTAyIDE3LjQ2MTYgMzUuOTc5NSAxNy4zMTQ2IDM1Ljg0ODhMMTcuMzA3NSAzNS44NDI1QzE3LjE2ODEgMzUuNzAzMSAxNy4wOTk4IDM1LjUyNzEgMTcuMDk5OCAzNS4zMjY1VjM0LjE4MjdDMTcuMDk5OCAzMy43MzkyIDE3LjE2MjEgMzMuMzIxIDE3LjI4ODEgMzIuOTI5MUwxNy4yODkyIDMyLjkyNTlDMTcuNDI3MiAzMi41MjU2IDE3LjYwNzEgMzIuMTU4NiAxNy44MjkzIDMxLjgyNTNMMTcuODMxOCAzMS44MjE1QzE4LjA2NzggMzEuNDg4MyAxOC4zNDU4IDMxLjE5NjQgMTguNjY1MiAzMC45NDYxQzE4LjkyNDIgMzAuNzMyNCAxOS4yMDU5IDMwLjU1NSAxOS41MTAxIDMwLjQxNEMxOS4wMzk4IDI5Ljg4ODUgMTguODA1NSAyOS4yNDE5IDE4LjgwNTUgMjguNDgzNUMxOC44MDU1IDI4LjA3NDUgMTguODgzMiAyNy42ODUxIDE5LjAzOSAyNy4zMTY3QzE5LjE5MzkgMjYuOTUwNyAxOS40MDYgMjYuNjMyIDE5LjY3NTYgMjYuMzYyM0MxOS45NTc5IDI2LjA4MDEgMjAuMjgzIDI1Ljg2MDkgMjAuNjUwMSAyNS43MDU2QzIxLjAxODQgMjUuNTQ5OCAyMS40MDc4IDI1LjQ3MjEgMjEuODE2OCAyNS40NzIxQzIyLjIyNTkgMjUuNDcyMSAyMi42MTUyIDI1LjU0OTggMjIuOTgzNiAyNS43MDU2TDIzLjAwMDggMjUuNzEzQzIzLjAyNzEgMjUuNjg0OSAyMy4wNTM4IDI1LjY1NzMgMjMuMDgxIDI1LjYzQzIzLjQyOCAyNS4yODMxIDIzLjgyNjkgMjUuMDE0MiAyNC4yNzc5IDI0LjgyMzRDMjQuNzI4OSAyNC42MzI2IDI1LjIwNTkgMjQuNTM3MiAyNS43MDg5IDI0LjUzNzJDMjYuMjEyIDI0LjUzNzIgMjYuNjg5IDI0LjYzMjYgMjcuMTQgMjQuODIzNEMyNy41OTA5IDI1LjAxNDIgMjcuOTgxMiAyNS4yODMxIDI4LjMxMDggMjUuNjNDMjguNjU3NyAyNS45NTk2IDI4LjkyNjYgMjYuMzQ5OSAyOS4xMTc0IDI2LjgwMDlDMjkuMzA4MiAyNy4yNTE5IDI5LjQwMzYgMjcuNzI4OSAyOS40MDM2IDI4LjIzMTlDMjkuNDAzNiAyOC43MzQ5IDI5LjMwODIgMjkuMjEyIDI5LjExNzQgMjkuNjYzQzI4LjkyNjYgMzAuMDk2NiAyOC42NjY0IDMwLjQ3ODIgMjguMzM2OCAzMC44MDc4Wk0yMC4wMzY5IDM0LjA2MDFDMTkuOTgyMiAzNC4yMzAxIDE5LjkzNzIgMzQuNDA0MyAxOS45MDE3IDM0LjU4MjdIMTguNTY3MlYzNC4xODI3QzE4LjU2NzIgMzMuODE1NyAxOC42MzY3IDMzLjQ2OTMgMTguNzc1MiAzMy4xNDJDMTguOTE0NiAzMi44MTI0IDE5LjEwMzkgMzIuNTI5IDE5LjM0MjYgMzIuMjkwM0MxOS41OTYyIDMyLjAzNjcgMTkuODgwMyAzMS44NDEyIDIwLjE5NTMgMzEuNzAyNEMyMC41MjE2IDMxLjU2NDUgMjAuODc0MyAzMS40OTQ5IDIxLjI1NDkgMzEuNDk0OUgyMS44NzA4QzIxLjgzMTUgMzEuNTI1NCAyMS43OTI2IDMxLjU1NjYgMjEuNzU0MSAzMS41ODg0QzIxLjM1NTEgMzEuOTAwNiAyMS4wMDgyIDMyLjI2NDggMjAuNzEzNCAzMi42ODExQzIwLjQzNTggMzMuMDk3NCAyMC4yMTAzIDMzLjU1NzEgMjAuMDM2OSAzNC4wNjAxWk0yNS43MDg5IDI2LjAyMDNDMjUuMTAxOCAyNi4wMjAzIDI0LjU4MTUgMjYuMjM3MSAyNC4xNDc4IDI2LjY3MDhDMjMuNzE0MiAyNy4xMDQ0IDIzLjQ5NzMgMjcuNjI0OCAyMy40OTczIDI4LjIzMTlDMjMuNDk3MyAyOC44MzkgMjMuNzE0MiAyOS4zNTk0IDI0LjE0NzggMjkuNzkzQzI0LjU4MTUgMzAuMjI2NyAyNS4xMDE4IDMwLjQ0MzUgMjUuNzA4OSAzMC40NDM1QzI2LjMxNiAzMC40NDM1IDI2LjgzNjQgMzAuMjI2NyAyNy4yNyAyOS43OTNDMjcuNzAzNyAyOS4zNTk0IDI3LjkyMDUgMjguODM5IDI3LjkyMDUgMjguMjMxOUMyNy45MjA1IDI3LjYyNDggMjcuNzAzNyAyNy4xMDQ0IDI3LjI3IDI2LjY3MDhDMjYuODM2NCAyNi4yMzcxIDI2LjMxNiAyNi4wMjAzIDI1LjcwODkgMjYuMDIwM1pNMjIuMDE0MyAyOC4yMzE5QzIyLjAxNDMgMjguODU5NiAyMi4xNDM2IDI5LjQyMTEgMjIuNDAyMyAyOS45MTYzQzIyLjIyMjMgMjkuOTkwNiAyMi4wMjc1IDMwLjAyNzQgMjEuODE2OCAzMC4wMjc0QzIxLjM5MiAzMC4wMjc0IDIxLjAzMTcgMjkuODc3NiAyMC43MjcyIDI5LjU3MzFDMjAuNDIyOCAyOS4yNjg3IDIwLjI3MjkgMjguOTA4MyAyMC4yNzI5IDI4LjQ4MzVDMjAuMjcyOSAyOC4wNTg3IDIwLjQyMjggMjcuNjk4MyAyMC43MjcyIDI3LjM5MzlDMjEuMDMxNyAyNy4wODk0IDIxLjM5MiAyNi45Mzk2IDIxLjgxNjggMjYuOTM5NkMyMS45NjA1IDI2LjkzOTYgMjIuMDk2OSAyNi45NTY3IDIyLjIyNjIgMjYuOTkxMkMyMi4wODQ5IDI3LjM4NTUgMjIuMDE0MyAyNy43OTkxIDIyLjAxNDMgMjguMjMxOVoiIGNsaXAtcnVsZT0iZXZlbm9kZCIgZmlsbC1ydWxlPSJldmVub2RkIi8+JiN4YTs8ZGVmcz4mI3hhOzxsaW5lYXJHcmFkaWVudCBncmFkaWVudFVuaXRzPSJ1c2VyU3BhY2VPblVzZSIgeTI9IjQ0LjI3OTIiIHgyPSI0MS41NjQ1IiB5MT0iNi44NDc3NSIgeDE9IjQuODUyODciIGlkPSJwYWludDBfbGluZWFyXzI2MjJfMjA0NzUiPiYjeGE7PHN0b3Agc3RvcC1jb2xvcj0id2hpdGUiLz4mI3hhOzxzdG9wIHN0b3AtY29sb3I9IiNFQUVDRUUiIG9mZnNldD0iMSIvPiYjeGE7PC9saW5lYXJHcmFkaWVudD4mI3hhOzxyYWRpYWxHcmFkaWVudCBncmFkaWVudFRyYW5zZm9ybT0idHJhbnNsYXRlKDE1LjI1ODMgMTUuOTk1NCkgcm90YXRlKDQzLjg3NzkpIHNjYWxlKDI1Ljg1MjQgNDguODExNykiIGdyYWRpZW50VW5pdHM9InVzZXJTcGFjZU9uVXNlIiByPSIxIiBjeT0iMCIgY3g9IjAiIGlkPSJwYWludDFfcmFkaWFsXzI2MjJfMjA0NzUiPiYjeGE7PHN0b3Agc3RvcC1jb2xvcj0iIzAxOTVGRiIvPiYjeGE7PHN0b3Agc3RvcC1jb2xvcj0iIzExNDdFOSIgb2Zmc2V0PSIxIi8+JiN4YTs8L3JhZGlhbEdyYWRpZW50PiYjeGE7PHJhZGlhbEdyYWRpZW50IGdyYWRpZW50VHJhbnNmb3JtPSJ0cmFuc2xhdGUoMTUuMjUyMiAxNi4wODc2KSByb3RhdGUoNDMuNTYwMikgc2NhbGUoMjUuODcyNyAyMy41NDcxKSIgZ3JhZGllbnRVbml0cz0idXNlclNwYWNlT25Vc2UiIHI9IjEiIGN5PSIwIiBjeD0iMCIgaWQ9InBhaW50Ml9yYWRpYWxfMjYyMl8yMDQ3NSI+JiN4YTs8c3RvcCBzdG9wLWNvbG9yPSIjMTM0OEZGIi8+JiN4YTs8c3RvcCBzdG9wLWNvbG9yPSIjMDYyMzhEIiBvZmZzZXQ9IjEiLz4mI3hhOzwvcmFkaWFsR3JhZGllbnQ+JiN4YTs8L2RlZnM+JiN4YTs8L3N2Zz4=;points=[[0,0,0,0,0],[0,0.25,0,0,0],[0,0.5,0,0,0],[0,0.75,0,0,0],[0.25,0,0,0,0],[0.5,0,0,0,0],[0.75,0,0,0,0],[1,0,0,0,0],[1,0.25,0,0,0],[1,0.5,0,0,0],[1,0.75,0,0,0]];" vertex="1" parent="gj-DLoBSfoS_qJrJy43p-1">
          <mxGeometry x="1547.34" y="1282" width="16" height="16" as="geometry" />
        </mxCell>
        <mxCell id="3LzONC4Wz7qyEUSdygTF-47" value="&lt;div style=&quot;font-size: 10px; line-height: 100%;&quot;&gt;&lt;span style=&quot;font-family: arial; font-size: 10px; background-color: initial;&quot;&gt;&lt;font style=&quot;font-size: 10px;&quot;&gt;Service&lt;/font&gt;&lt;/span&gt;&lt;/div&gt;" style="text;html=1;align=left;verticalAlign=middle;resizable=0;points=[];autosize=1;strokeColor=none;fillColor=none;fontSize=10;fontColor=#1D2D3E;fontFamily=Helvetica;labelPosition=center;verticalLabelPosition=middle;" vertex="1" parent="gj-DLoBSfoS_qJrJy43p-1">
          <mxGeometry x="1571.34" y="1277.5" width="51" height="23" as="geometry" />
        </mxCell>
        <mxCell id="3LzONC4Wz7qyEUSdygTF-48" value="" style="shape=image;verticalLabelPosition=bottom;verticalAlign=top;imageAspect=0;aspect=fixed;image=data:image/svg+xml,PHN2ZyB4bWxucz0iaHR0cDovL3d3dy53My5vcmcvMjAwMC9zdmciIGZpbGw9Im5vbmUiIHZpZXdCb3g9IjAgMCAyNCAyNCIgaGVpZ2h0PSIyNCIgd2lkdGg9IjI0Ij4mI3hhOzxnIGNsaXAtcGF0aD0idXJsKCNjbGlwMF8xMTUzXzE5KSI+JiN4YTs8cGF0aCBmaWxsPSJ1cmwoI3BhaW50MF9saW5lYXJfMTE1M18xOSkiIGQ9Ik0wLjAwNDI4NTY2IDIyLjYyODZDMC4wMDQyODU2NiAyMy4zODI5IDAuNjIxMzE3IDI0IDEuMzc1NDcgMjRIMjIuNjI4OEMyMy4zODMgMjQgMjQgMjMuMzgyOSAyNCAyMi42Mjg2QzI0IDIxLjg3NDMgMjMuMzgzIDIxLjI1NzEgMjIuNjI4OCAyMS4yNTcxSDEuMzc1NDdDMC42MjEzMTcgMjEuMjU3MSAwLjAwNDI4NTY2IDIxLjg3NDMgMC4wMDQyODU2NiAyMi42Mjg2WiIvPiYjeGE7PHBhdGggZmlsbD0idXJsKCNwYWludDFfbGluZWFyXzExNTNfMTkpIiBkPSJNMTMuMzczMyAxOC44NTcxSDIyLjYyODhDMjMuMzgzIDE4Ljg1NzEgMjQgMTguMjQgMjQgMTcuNDg1N0MyNCAxNi43MzE0IDIzLjM4MyAxNi4xMTQzIDIyLjYyODggMTYuMTE0M0gxMy4zNzMzQzEyLjYxOTIgMTYuMTE0MyAxMi4wMDIxIDE2LjczMTQgMTIuMDAyMSAxNy40ODU3QzEyLjAwMjEgMTguMjQgMTIuNjE5MiAxOC44NTcxIDEzLjM3MzMgMTguODU3MVoiLz4mI3hhOzxwYXRoIGZpbGw9InVybCgjcGFpbnQyX2xpbmVhcl8xMTUzXzE5KSIgZD0iTTEzLjM3MzMgMTMuNzE0M0gyMi42Mjg4QzIzLjM4MyAxMy43MTQzIDI0IDEzLjA5NzEgMjQgMTIuMzQyOUMyNCAxMS41ODg2IDIzLjM4MyAxMC45NzE0IDIyLjYyODggMTAuOTcxNEgxMy4zNzMzQzEyLjYxOTIgMTAuOTcxNCAxMi4wMDIxIDExLjU4ODYgMTIuMDAyMSAxMi4zNDI5QzEyLjAwMjEgMTMuMDk3MSAxMi42MTkyIDEzLjcxNDMgMTMuMzczMyAxMy43MTQzWiIvPiYjeGE7PHBhdGggZmlsbD0idXJsKCNwYWludDNfbGluZWFyXzExNTNfMTkpIiBkPSJNMTMuMzczMyA3Ljg4NTcxSDIyLjYyODhDMjMuMzgzIDcuODg1NzEgMjQgNy4yNjg1NyAyNCA2LjUxNDI5QzI0IDUuNzYgMjMuMzgzIDUuMTQyODYgMjIuNjI4OCA1LjE0Mjg2SDEzLjM3MzNDMTIuNjE5MiA1LjE0Mjg2IDEyLjAwMjEgNS43NiAxMi4wMDIxIDYuNTE0MjlDMTIuMDAyMSA3LjI2ODU3IDEyLjYxOTIgNy44ODU3MSAxMy4zNzMzIDcuODg1NzFaIi8+JiN4YTs8cGF0aCBmaWxsPSJ1cmwoI3BhaW50NF9saW5lYXJfMTE1M18xOSkiIGQ9Ik0xLjM3NTQ3IDIuNzQyODZIMjIuNjI4OEMyMy4zODMgMi43NDI4NiAyNCAyLjEyNTcxIDI0IDEuMzcxNDNDMjQgMC42MTcxNDMgMjMuMzgzIDAgMjIuNjI4OCAwSDEuMzc1NDdDMC42MjEzMTcgMCAwLjAwNDI4NTY2IDAuNjE3MTQzIDAuMDA0Mjg1NjYgMS4zNzE0M0MwLjAwNDI4NTY2IDIuMTI1NzEgMC42MjEzMTcgMi43NDI4NiAxLjM3NTQ3IDIuNzQyODZaIi8+JiN4YTs8cGF0aCBmaWxsPSJ1cmwoI3BhaW50NV9saW5lYXJfMTE1M18xOSkiIGQ9Ik0wLjM5ODUgMTcuNDM0MkMwLjY3MjczNyAxNy42OTE0IDEuMDMyNjcgMTcuODI4NSAxLjM3NTQ3IDE3LjgyODVMMS4zNTgzMyAxNy44NjI4QzEuNzE4MjYgMTcuODYyOCAyLjA2MTA2IDE3Ljc0MjggMi4zMzUzIDE3LjQ2ODVMNi40NDg4NSAxMy4zNTQyQzYuNzA1OTUgMTMuMDk3MSA2Ljg0MzA2IDEyLjc1NDIgNi44NDMwNiAxMi4zNzcxQzYuODQzMDYgMTEuOTk5OSA2LjcwNTk1IDExLjY1NzEgNi40NDg4NSAxMS4zOTk5TDIuMzM1MyA3LjI4NTY0QzEuODAzOTYgNi43NTQyMSAwLjkyOTgzNCA2Ljc1NDIxIDAuMzk4NSA3LjI4NTY0Qy0wLjEzMjgzMyA3LjgxNzA3IC0wLjEzMjgzMyA4LjY5MTM1IDAuMzk4NSA5LjIyMjc4TDMuNTM1MDggMTIuMzU5OUwwLjM5ODUgMTUuNDk3MUMtMC4xMzI4MzMgMTYuMDI4NSAtMC4xMzI4MzMgMTYuOTAyOCAwLjM5ODUgMTcuNDM0MloiLz4mI3hhOzwvZz4mI3hhOzxkZWZzPiYjeGE7PGxpbmVhckdyYWRpZW50IGdyYWRpZW50VW5pdHM9InVzZXJTcGFjZU9uVXNlIiB5Mj0iMjQiIHgyPSIxMiIgeTE9IjAiIHgxPSIxMiIgaWQ9InBhaW50MF9saW5lYXJfMTE1M18xOSI+JiN4YTs8c3RvcCBzdG9wLWNvbG9yPSIjNUI3MzhCIi8+JiN4YTs8c3RvcCBzdG9wLWNvbG9yPSIjMjIzNTQ4IiBvZmZzZXQ9IjEiLz4mI3hhOzwvbGluZWFyR3JhZGllbnQ+JiN4YTs8bGluZWFyR3JhZGllbnQgZ3JhZGllbnRVbml0cz0idXNlclNwYWNlT25Vc2UiIHkyPSIyNCIgeDI9IjEyIiB5MT0iMCIgeDE9IjEyIiBpZD0icGFpbnQxX2xpbmVhcl8xMTUzXzE5Ij4mI3hhOzxzdG9wIHN0b3AtY29sb3I9IiM1QjczOEIiLz4mI3hhOzxzdG9wIHN0b3AtY29sb3I9IiMyMjM1NDgiIG9mZnNldD0iMSIvPiYjeGE7PC9saW5lYXJHcmFkaWVudD4mI3hhOzxsaW5lYXJHcmFkaWVudCBncmFkaWVudFVuaXRzPSJ1c2VyU3BhY2VPblVzZSIgeTI9IjI0IiB4Mj0iMTIiIHkxPSIwIiB4MT0iMTIiIGlkPSJwYWludDJfbGluZWFyXzExNTNfMTkiPiYjeGE7PHN0b3Agc3RvcC1jb2xvcj0iIzVCNzM4QiIvPiYjeGE7PHN0b3Agc3RvcC1jb2xvcj0iIzIyMzU0OCIgb2Zmc2V0PSIxIi8+JiN4YTs8L2xpbmVhckdyYWRpZW50PiYjeGE7PGxpbmVhckdyYWRpZW50IGdyYWRpZW50VW5pdHM9InVzZXJTcGFjZU9uVXNlIiB5Mj0iMjQiIHgyPSIxMiIgeTE9IjAiIHgxPSIxMiIgaWQ9InBhaW50M19saW5lYXJfMTE1M18xOSI+JiN4YTs8c3RvcCBzdG9wLWNvbG9yPSIjNUI3MzhCIi8+JiN4YTs8c3RvcCBzdG9wLWNvbG9yPSIjMjIzNTQ4IiBvZmZzZXQ9IjEiLz4mI3hhOzwvbGluZWFyR3JhZGllbnQ+JiN4YTs8bGluZWFyR3JhZGllbnQgZ3JhZGllbnRVbml0cz0idXNlclNwYWNlT25Vc2UiIHkyPSIyNCIgeDI9IjEyIiB5MT0iMCIgeDE9IjEyIiBpZD0icGFpbnQ0X2xpbmVhcl8xMTUzXzE5Ij4mI3hhOzxzdG9wIHN0b3AtY29sb3I9IiM1QjczOEIiLz4mI3hhOzxzdG9wIHN0b3AtY29sb3I9IiMyMjM1NDgiIG9mZnNldD0iMSIvPiYjeGE7PC9saW5lYXJHcmFkaWVudD4mI3hhOzxsaW5lYXJHcmFkaWVudCBncmFkaWVudFVuaXRzPSJ1c2VyU3BhY2VPblVzZSIgeTI9IjI0IiB4Mj0iMTIiIHkxPSIwIiB4MT0iMTIiIGlkPSJwYWludDVfbGluZWFyXzExNTNfMTkiPiYjeGE7PHN0b3Agc3RvcC1jb2xvcj0iIzVCNzM4QiIvPiYjeGE7PHN0b3Agc3RvcC1jb2xvcj0iIzIyMzU0OCIgb2Zmc2V0PSIxIi8+JiN4YTs8L2xpbmVhckdyYWRpZW50PiYjeGE7PGNsaXBQYXRoIGlkPSJjbGlwMF8xMTUzXzE5Ij4mI3hhOzxyZWN0IGZpbGw9IndoaXRlIiBoZWlnaHQ9IjI0IiB3aWR0aD0iMjQiLz4mI3hhOzwvY2xpcFBhdGg+JiN4YTs8L2RlZnM+JiN4YTs8L3N2Zz4=;" vertex="1" parent="gj-DLoBSfoS_qJrJy43p-1">
          <mxGeometry x="992" y="979.24" width="50.76" height="50.76" as="geometry" />
        </mxCell>
      </root>
    </mxGraphModel>
  </diagram>
  <diagram id="6Xfqb3kDTW1zFMRHXKL8" name="rdp">
    <mxGraphModel dx="2475" dy="929" grid="1" gridSize="10" guides="1" tooltips="1" connect="1" arrows="1" fold="1" page="1" pageScale="1" pageWidth="1169" pageHeight="827" math="0" shadow="0">
      <root>
        <mxCell id="0" />
        <mxCell id="1" parent="0" />
        <mxCell id="LzaylhxF4zsQOXDsUJ44-50" value="" style="rounded=1;whiteSpace=wrap;html=1;strokeColor=#0070F2;fillColor=#EBF8FF;arcSize=32;absoluteArcSize=1;imageWidth=64;imageHeight=64;strokeWidth=1.5;" vertex="1" parent="1">
          <mxGeometry x="-300" y="500" width="1080" height="520" as="geometry" />
        </mxCell>
        <mxCell id="LzaylhxF4zsQOXDsUJ44-51" value="" style="rounded=1;whiteSpace=wrap;html=1;strokeColor=#0070F2;strokeWidth=1.5;arcSize=16;fillColor=#FFFFFF;perimeterSpacing=0;absoluteArcSize=1;" vertex="1" parent="1">
          <mxGeometry x="-274.6500000000001" y="545.06" width="1024.65" height="444.94" as="geometry" />
        </mxCell>
        <mxCell id="LzaylhxF4zsQOXDsUJ44-52" value="" style="rounded=1;whiteSpace=wrap;html=1;strokeColor=light-dark(#4ea2a9, #46a6ff);fillColor=#ffffff;arcSize=24;absoluteArcSize=1;imageWidth=64;imageHeight=64;strokeWidth=1.5;" vertex="1" parent="1">
          <mxGeometry x="-244" y="606" width="684" height="364" as="geometry" />
        </mxCell>
        <mxCell id="LzaylhxF4zsQOXDsUJ44-53" value="" style="rounded=1;whiteSpace=wrap;html=1;strokeColor=#07838f;fillColor=#dafdf5;arcSize=24;absoluteArcSize=1;imageWidth=64;imageHeight=64;strokeWidth=1.5;" vertex="1" parent="1">
          <mxGeometry x="-230" y="697" width="650" height="250" as="geometry" />
        </mxCell>
        <mxCell id="LzaylhxF4zsQOXDsUJ44-54" value="" style="rounded=1;whiteSpace=wrap;html=1;strokeColor=#07838f;fillColor=#FFFFFF;arcSize=24;absoluteArcSize=1;imageWidth=64;imageHeight=64;strokeWidth=1.5;" vertex="1" parent="1">
          <mxGeometry x="-210" y="747" width="610" height="183" as="geometry" />
        </mxCell>
        <mxCell id="LzaylhxF4zsQOXDsUJ44-55" value="&lt;font face=&quot;arial&quot;&gt;&lt;b&gt;Event Broker (&lt;/b&gt;your-event-broker&lt;/font&gt;&lt;font face=&quot;arial&quot;&gt;&lt;b&gt;)&lt;br&gt;&lt;/b&gt;&lt;/font&gt;" style="text;html=1;align=left;verticalAlign=middle;resizable=0;points=[];autosize=1;strokeColor=none;fillColor=none;fontSize=12;fontColor=#1d2d3e;fontFamily=Helvetica;" vertex="1" parent="1">
          <mxGeometry x="-212" y="707" width="200" height="30" as="geometry" />
        </mxCell>
        <mxCell id="LzaylhxF4zsQOXDsUJ44-56" value="&lt;font face=&quot;arial&quot; style=&quot;font-size: 16px;&quot;&gt;&lt;b style=&quot;font-size: 16px;&quot;&gt;SAP Integration Suite, advanced event mesh&lt;/b&gt;&lt;/font&gt;" style="text;html=1;align=center;verticalAlign=middle;resizable=0;points=[[0,0.5,0,0,0],[0.5,0,0,0,0],[0.5,1,0,0,0],[1,0.5,0,0,0]];autosize=1;strokeColor=none;fillColor=none;fontSize=12;fontColor=#1D2D3E;fontFamily=Helvetica;" vertex="1" parent="1">
          <mxGeometry x="-182.75" y="627" width="360" height="30" as="geometry" />
        </mxCell>
        <mxCell id="LzaylhxF4zsQOXDsUJ44-57" value="" style="group" vertex="1" connectable="0" parent="1">
          <mxGeometry x="-261" y="619" width="110" height="95" as="geometry" />
        </mxCell>
        <mxCell id="LzaylhxF4zsQOXDsUJ44-58" value="" style="shape=image;verticalLabelPosition=bottom;verticalAlign=top;imageAspect=0;aspect=fixed;image=data:image/svg+xml,PHN2ZyB4bWxucz0iaHR0cDovL3d3dy53My5vcmcvMjAwMC9zdmciIGZpbGw9Im5vbmUiIHZpZXdCb3g9IjAgMCA0OCA0OCIgaGVpZ2h0PSI0OCIgd2lkdGg9IjQ4Ij4mI3hhOzxjaXJjbGUgc3Ryb2tlLXdpZHRoPSIwLjg1NzE0MyIgc3Ryb2tlPSIjRDVEQUREIiBmaWxsPSJ1cmwoI3BhaW50MF9saW5lYXJfMzIzMl80NjI2KSIgcj0iMjMuNTcxNCIgY3k9IjI0IiBjeD0iMjQiLz4mI3hhOzxnIGNsaXAtcGF0aD0idXJsKCNjbGlwMF8zMjMyXzQ2MjYpIj4mI3hhOzxwYXRoIGZpbGw9InVybCgjcGFpbnQxX2xpbmVhcl8zMjMyXzQ2MjYpIiBkPSJNMTUuNTc4MiAxOC40NjI1QzE2LjAwMTkgMTUuNDE2MyAxOC41NDU0IDEyLjQ5ODUgMjIuMTI1MyAxMi40OTg1QzI0Ljk3MzMgMTIuNDk4NSAyNy4xMDU1IDE0LjA5ODEgMjguMjU0MiAxNi40NzY0QzI5Ljc4MjUgMTYuNjIxIDMxLjE3MjcgMTcuNDE3NCAzMi4xMzc1IDE4LjYzNTFDMzEuNzY3NCAxOS4wNzUyIDMxLjU0NDQgMTkuNjQzMiAzMS41NDQ0IDIwLjI2MzJWMjAuNDMyNEgzMS4zNzU1QzI5Ljk3NzUgMjAuNDMyNCAyOC44NDQyIDIxLjU2NTcgMjguODQ0MiAyMi45NjM3QzI4Ljg0NDIgMjMuMzYwNiAyOC45MzU1IDIzLjczNjEgMjkuMDk4MyAyNC4wNzA0QzI5LjA4MzYgMjQuMDcwMiAyOS4wNjg4IDI0LjA3MDEgMjkuMDU0MSAyNC4wNzAxQzI3LjYzMzUgMjQuMDcwMSAyNi4zODgxIDI0Ljk5MzUgMjUuOTU4MyAyNi4zMzYxTDI1Ljg5NDcgMjYuNTM1TDI1LjgyNTcgMjYuMzI0MkMyNS4zODgyIDI0Ljk4NjggMjQuMTQzMiAyNC4wNzAxIDIyLjcyNTQgMjQuMDcwMUMyMC45MDkzIDI0LjA3MDEgMTkuNDYyMiAyNS41NTEgMTkuNDYyMiAyNy4zNDY3VjI4LjgwMTRIMTYuMzAwOUMxNC42OTc2IDI4LjgwMTQgMTMuMzM2IDI4LjMwMjIgMTIuMzc2OSAyNy4zMTY3QzExLjQyNDIgMjYuMzM3OSAxMC45OTk5IDI1LjAxMzkgMTAuOTk5OSAyMy42MTMzQzEwLjk5OTkgMjIuMTA2MSAxMS41NTE3IDIwLjY3NjkgMTIuNjIwMSAxOS42OTIzQzEzLjQwOTggMTguOTY0NCAxNC40MjY2IDE4LjUzMTEgMTUuNTc4MiAxOC40NjI1WiIvPiYjeGE7PHBhdGggZmlsbD0idXJsKCNwYWludDJfbGluZWFyXzMyMzJfNDYyNikiIGQ9Ik0zMy4yMzIgMjAuNzU3MkMzMy40MDU2IDIxLjM0NzggMzMuNDk5OSAyMS45ODEgMzMuNDk5OSAyMi42NDQ3QzMzLjQ5OTkgMjMuMzI4NSAzMy40MDU1IDIzLjk2NiAzMy4yMzIgMjQuNTUxNlYyMy44MDc1SDMxLjM3NTVDMzAuOTA5NSAyMy44MDc1IDMwLjUzMTcgMjMuNDI5NyAzMC41MzE3IDIyLjk2MzdDMzAuNTMxNyAyMi40OTc3IDMwLjkwOTUgMjIuMTE5OSAzMS4zNzU1IDIyLjExOTlIMzMuMjMyVjIwLjc1NzJaIi8+JiN4YTs8cGF0aCBmaWxsPSJ1cmwoI3BhaW50M19saW5lYXJfMzIzMl80NjI2KSIgZD0iTTMzLjc2MjUgMzUuODk5OUMzMy4zNjcgMzYuMzAyMiAzMi45NzYyIDM2LjkyNTkgMzMuMzcxOCAzNy4zMjgyQzMzLjc2NzMgMzcuNzMwNiAzNC4yMTYyIDM3Ljc1ODcgMzQuNjExNyAzNy4zNTYzTDM3LjY0ODcgMzQuMjY3NEMzOC4wNDQzIDMzLjg2NSAzOC4wNDQzIDMzLjIxMzMgMzcuNjQ4NyAzMi44MTA5TDM0LjYxMTcgMjkuNzIyQzM0LjIxNjIgMjkuMzE5NiAzMy43NTE0IDI5LjE1MjEgMzMuMzU1OCAyOS41NTQ1QzMyLjg2MTEgMjkuOTQwNyAzMy41NDk4IDMwLjc3NjEgMzMuOTQ1MyAzMS4xNzg0TDM1LjA3OTIgMzIuNTMyTDI4LjgzNTcgMzIuNTM4M0wyOC44MzUzIDMzLjMzOTVDMjguODM0OSAzMy44OTIxIDI5LjI3OTIgMzQuMzM5OCAyOS44MjcgMzQuMzM5MkwzNS4xOTA5IDM0LjMzMzVMMzMuNzYyNSAzNS44OTk5WiIvPiYjeGE7PHBhdGggZmlsbD0idXJsKCNwYWludDRfbGluZWFyXzMyMzJfNDYyNikiIGQ9Ik0yMS4xNTMgMjcuMjE0MUMyMS4xNTMgMjYuMzU3NCAyMS44NDE2IDI1LjY2MjggMjIuNjkxIDI1LjY2MjhDMjMuMzU0NyAyNS42NjI4IDIzLjk0MzYgMjYuMDkyMyAyNC4xNTE2IDI2LjcyODFMMjUuNDEzIDMwLjU4NDFDMjUuNDgzMiAzMC43OTY1IDI1LjU2NTggMzEuMDk0MiAyNS42NjA3IDMxLjQ3NzJDMjUuNzU1NiAzMS44NjAzIDI1LjgxNzYgMzIuMTE0MyAyNS44NDY1IDMyLjIzOTJDMjUuODc5NSAzMi4xMTQzIDI1Ljk0NTUgMzEuODY0NCAyNi4wNDQ2IDMxLjQ4OTdDMjYuMTQ3OCAzMS4xMTA4IDI2LjIzNDUgMzAuODE5NCAyNi4zMDQ3IDMwLjYxNTRMMjcuNTQ4NCAyNi43Mjk1QzI3Ljc1MTkgMjYuMDkzNyAyOC4zMzg3IDI1LjY2MjggMjkuMDAxMSAyNS42NjI4QzI5Ljg0NDIgMjUuNjYyOCAzMC41Mjc2IDI2LjM1MjIgMzAuNTI3NiAyNy4yMDI1VjMyLjUzNjZMMjguODM1NyAzMi41MzgzTDI4LjgzNzIgMjkuMTI5QzI4LjgzNzIgMjguNjc5MyAyOC44NDc1IDI4LjI1NDYgMjguODY4MSAyNy44NTQ5QzI4Ljg5MjkgMjcuNDU1MiAyOC44ODI3IDI3LjI5NjMgMjguOTA1MyAyNy4yMjQyQzI4LjkwMTIgMjcuMjI4MyAyOC44NTk5IDI3LjM3NDEgMjguNzgxNSAyNy42NjEzQzI4Ljc0MDIgMjcuNzk4NyAyOC42NTM1IDI4LjA5NDQgMjguNTIxNCAyOC41NDgyQzI4LjM5MzQgMjkuMDAyIDI4LjI5MjMgMjkuMzM3MiAyOC4yMTggMjkuNTUzN0wyNi44MTk5IDMzLjc1MjFDMjYuNjc4NSAzNC4xNzY1IDI2LjI4NDIgMzQuNDYyNSAyNS44NDAzIDM0LjQ2MjVDMjUuMzk2MyAzNC40NjI1IDI1LjAwMiAzNC4xNzY1IDI0Ljg2MDcgMzMuNzUyMUwyMy40NjI2IDI5LjU1MzdDMjMuMzc1OSAyOS4yOTk3IDIzLjI1MiAyOC45MDIxIDIzLjA5MSAyOC4zNjA4QzIyLjkzNDIgMjcuODE1NCAyMi44MjQ4IDI3LjQzNjUgMjIuNzYyOSAyNy4yMjQyTDIyLjc3NTIgMjcuNDA1M0MyMi43Nzk0IDI3LjQ3MTkgMjIuNzkxOCAyNy43MDcxIDIyLjgxMjQgMjguMTExQzIyLjgzMyAyOC41MTA3IDIyLjg0MzQgMjguODUgMjIuODQzNCAyOS4xMjlWMzMuNjFDMjIuODQzNCAzNC4wODA4IDIyLjQ2NDkgMzQuNDYyNSAyMS45OTgyIDM0LjQ2MjVDMjEuNTMxNCAzNC40NjI1IDIxLjE1MyAzNC4wODA4IDIxLjE1MyAzMy42MVYyNy4yMTQxWiIvPiYjeGE7PHBhdGggZmlsbD0idXJsKCNwYWludDVfbGluZWFyXzMyMzJfNDYyNikiIGQ9Ik0zNC45MTk1IDIwLjI2MzJDMzQuOTE5NSAxOS43OTcyIDM0LjU0MTggMTkuNDE5NCAzNC4wNzU4IDE5LjQxOTRDMzMuNjA5OCAxOS40MTk0IDMzLjIzMiAxOS43OTcyIDMzLjIzMiAyMC4yNjMyVjIyLjExOTlIMzEuMzc1NUMzMC45MDk1IDIyLjExOTkgMzAuNTMxNyAyMi40OTc3IDMwLjUzMTcgMjIuOTYzN0MzMC41MzE3IDIzLjQyOTcgMzAuOTA5NSAyMy44MDc1IDMxLjM3NTUgMjMuODA3NUgzMy4yMzJWMjUuNjYzM0MzMy4yMzIgMjYuMTI5MyAzMy42MDk4IDI2LjUwNzEgMzQuMDc1OCAyNi41MDcxQzM0LjU0MTggMjYuNTA3MSAzNC45MTk1IDI2LjEyOTMgMzQuOTE5NSAyNS42NjMzVjIzLjgwNzVIMzYuNzc1NUMzNy4yNDE1IDIzLjgwNzUgMzcuNjE5MyAyMy40Mjk3IDM3LjYxOTMgMjIuOTYzN0MzNy42MTkzIDIyLjQ5NzcgMzcuMjQxNSAyMi4xMTk5IDM2Ljc3NTUgMjIuMTE5OUgzNC45MTk1VjIwLjI2MzJaIi8+JiN4YTs8L2c+JiN4YTs8ZGVmcz4mI3hhOzxsaW5lYXJHcmFkaWVudCBncmFkaWVudFVuaXRzPSJ1c2VyU3BhY2VPblVzZSIgeTI9IjQ0LjI0NDMiIHgyPSI0MS4wNjQ1IiB5MT0iNi44MTI4NCIgeDE9IjQuMzUyODciIGlkPSJwYWludDBfbGluZWFyXzMyMzJfNDYyNiI+JiN4YTs8c3RvcCBzdG9wLWNvbG9yPSJ3aGl0ZSIvPiYjeGE7PHN0b3Agc3RvcC1jb2xvcj0iI0VBRUNFRSIgb2Zmc2V0PSIxIi8+JiN4YTs8L2xpbmVhckdyYWRpZW50PiYjeGE7PGxpbmVhckdyYWRpZW50IGdyYWRpZW50VW5pdHM9InVzZXJTcGFjZU9uVXNlIiB5Mj0iMjkuOTEwOCIgeDI9IjI1LjIxODkiIHkxPSIxNC45MzY1IiB4MT0iMTQuMzcyNyIgaWQ9InBhaW50MV9saW5lYXJfMzIzMl80NjI2Ij4mI3hhOzxzdG9wIHN0b3AtY29sb3I9IiMwMTk1RkYiLz4mI3hhOzxzdG9wIHN0b3AtY29sb3I9IiMxMTQ3RTkiIG9mZnNldD0iMC45OTEwMjgiLz4mI3hhOzwvbGluZWFyR3JhZGllbnQ+JiN4YTs8bGluZWFyR3JhZGllbnQgZ3JhZGllbnRVbml0cz0idXNlclNwYWNlT25Vc2UiIHkyPSIyOS45MTA4IiB4Mj0iMjUuMjE4OSIgeTE9IjE0LjkzNjUiIHgxPSIxNC4zNzI3IiBpZD0icGFpbnQyX2xpbmVhcl8zMjMyXzQ2MjYiPiYjeGE7PHN0b3Agc3RvcC1jb2xvcj0iIzAxOTVGRiIvPiYjeGE7PHN0b3Agc3RvcC1jb2xvcj0iIzExNDdFOSIgb2Zmc2V0PSIwLjk5MTAyOCIvPiYjeGE7PC9saW5lYXJHcmFkaWVudD4mI3hhOzxsaW5lYXJHcmFkaWVudCBncmFkaWVudFVuaXRzPSJ1c2VyU3BhY2VPblVzZSIgeTI9IjM4LjU3MDgiIHgyPSIzMS41NTM3IiB5MT0iMjcuNDI1NiIgeDE9IjIzLjYzNTYiIGlkPSJwYWludDNfbGluZWFyXzMyMzJfNDYyNiI+JiN4YTs8c3RvcCBzdG9wLWNvbG9yPSIjMTM0OEZGIi8+JiN4YTs8c3RvcCBzdG9wLWNvbG9yPSIjMDYyMzhEIiBvZmZzZXQ9IjEiLz4mI3hhOzwvbGluZWFyR3JhZGllbnQ+JiN4YTs8bGluZWFyR3JhZGllbnQgZ3JhZGllbnRVbml0cz0idXNlclNwYWNlT25Vc2UiIHkyPSIzOC41NzA4IiB4Mj0iMzEuNTUzNyIgeTE9IjI3LjQyNTYiIHgxPSIyMy42MzU2IiBpZD0icGFpbnQ0X2xpbmVhcl8zMjMyXzQ2MjYiPiYjeGE7PHN0b3Agc3RvcC1jb2xvcj0iIzEzNDhGRiIvPiYjeGE7PHN0b3Agc3RvcC1jb2xvcj0iIzA2MjM4RCIgb2Zmc2V0PSIxIi8+JiN4YTs8L2xpbmVhckdyYWRpZW50PiYjeGE7PGxpbmVhckdyYWRpZW50IGdyYWRpZW50VW5pdHM9InVzZXJTcGFjZU9uVXNlIiB5Mj0iMjUuNDQyIiB4Mj0iMzYuNTU1MiIgeTE9IjIwLjQ4MjgiIHgxPSIzMS41OTI0IiBpZD0icGFpbnQ1X2xpbmVhcl8zMjMyXzQ2MjYiPiYjeGE7PHN0b3Agc3RvcC1jb2xvcj0iIzAwQkJGRiIvPiYjeGE7PHN0b3Agc3RvcC1jb2xvcj0iIzAwOEJGRiIgb2Zmc2V0PSIxIi8+JiN4YTs8L2xpbmVhckdyYWRpZW50PiYjeGE7PGNsaXBQYXRoIGlkPSJjbGlwMF8zMjMyXzQ2MjYiPiYjeGE7PHJlY3QgdHJhbnNmb3JtPSJ0cmFuc2xhdGUoMTEgMTIuNSkiIGZpbGw9IndoaXRlIiBoZWlnaHQ9IjI3LjAwMDYiIHdpZHRoPSIyNyIvPiYjeGE7PC9jbGlwUGF0aD4mI3hhOzwvZGVmcz4mI3hhOzwvc3ZnPg==" vertex="1" parent="LzaylhxF4zsQOXDsUJ44-57">
          <mxGeometry x="31.5" width="48" height="48" as="geometry" />
        </mxCell>
        <mxCell id="LzaylhxF4zsQOXDsUJ44-59" value="" style="shape=image;verticalLabelPosition=bottom;labelBackgroundColor=default;verticalAlign=top;aspect=fixed;imageAspect=0;image=data:image/svg+xml,PHN2ZyB4bWxuczp4bGluaz0iaHR0cDovL3d3dy53My5vcmcvMTk5OS94bGluayIgeG1sbnM9Imh0dHA6Ly93d3cudzMub3JnLzIwMDAvc3ZnIiB2aWV3Qm94PSIwIDAgMTQ0Ljc0NyAzOS44MzIiIGlkPSJhIj48ZGVmcz48bGluZWFyR3JhZGllbnQgZ3JhZGllbnRVbml0cz0idXNlclNwYWNlT25Vc2UiIHkyPSIzOS44MzIiIHgyPSI0MC4yNTgiIHkxPSIwIiB4MT0iNDAuMjU4IiBpZD0iYiI+PHN0b3Agc3RvcC1jb2xvcj0iIzAwYjhmMSIgb2Zmc2V0PSIwIi8+PHN0b3Agc3RvcC1jb2xvcj0iIzAwYjVlZiIgb2Zmc2V0PSIuMDE2Ii8+PHN0b3Agc3RvcC1jb2xvcj0iIzBkOTBkOCIgb2Zmc2V0PSIuMzA4Ii8+PHN0b3Agc3RvcC1jb2xvcj0iIzE2NzVjOCIgb2Zmc2V0PSIuNTc4Ii8+PHN0b3Agc3RvcC1jb2xvcj0iIzFjNjRiZSIgb2Zmc2V0PSIuODE3Ii8+PHN0b3Agc3RvcC1jb2xvcj0iIzFlNWZiYiIgb2Zmc2V0PSIxIi8+PC9saW5lYXJHcmFkaWVudD48L2RlZnM+PHBvbHlsaW5lIGZpbGwtcnVsZT0iZXZlbm9kZCIgZmlsbD0idXJsKCNiKSIgcG9pbnRzPSIwIDM5LjgzMiA0MC42OTIgMzkuODMyIDgwLjUxNyAwIDAgMCAwIDM5LjgzMiIvPjxwYXRoIGZpbGwtcnVsZT0iZXZlbm9kZCIgZmlsbD0iI2ZmZiIgZD0ibTQ3Ljc4Miw3LjQ4OWwtNy45MjUtLjAwNXYxOC44NDVsLTYuOTI0LTE4Ljg0NWgtNi44NjVsLTUuOTEyLDE1Ljc1OWMtLjYzLTMuOTczLTQuNzQtNS4zNDUtNy45NzQtNi4zNzQtMi4xMzUtLjY4Ni00LjQwMS0xLjY5NC00LjM4LTIuODA5LjAxNy0uOTE1LDEuMjE1LTEuNzY1LDMuNTg5LTEuNjM3LDEuNTk1LjA4NCwzLjAwMS4yMTMsNS44LDEuNTYzbDIuNzUzLTQuNzk1Yy0yLjU1NS0xLjMtNi4wODYtMi4xMjEtOC45NzgtMi4xMjRoLS4wMTdjLTMuMzc0LDAtNi4xODUsMS4wOTMtNy45MjgsMi44OTQtMS4yMTQsMS4yNTgtMS44NjksMi44NTYtMS44OTYsNC42MjMtLjA0NCwyLjQzMi44NDgsNC4xNTcsMi43MjEsNS41MzMsMS41ODMsMS4xNiwzLjYwNiwxLjkxMiw1LjM5LDIuNDY1LDIuMjAxLjY4MSwzLjk5NiwxLjI3NCwzLjk3NSwyLjUzOS0uMDE2LjQ1OS0uMTkxLjg4OC0uNTIxLDEuMjM2LS41NDguNTY2LTEuMzkxLjc3OS0yLjU1NS43OTktMi4yNDQuMDQ4LTMuOTEtLjMwMy02LjU2Mi0xLjg3bC0yLjQ0OCw0Ljg2MWMyLjY0NCwxLjUwNiw1Ljc3NiwyLjM4OCw4Ljk3MiwyLjM4OGwuNDExLS4wMDZjMi43ODItLjA1LDUuMDI2LS44NDIsNi44Mi0yLjI4Ni4xMDMtLjA4MS4xOTYtLjE2Ni4yOTEtLjI1bC0uNzk1LDIuMTIzaDcuMmwxLjIwOC0zLjY3NGMxLjI2NS40MzMsMi43MDQuNjcxLDQuMjMyLjY3MSwxLjQ4NywwLDIuODg5LS4yMjksNC4xMzEtLjYzNWwxLjE2NCwzLjYzN2gxMS43NDJ2LTcuNjA3aDIuNTYxYzYuMTg4LDAsOS44NTEtMy4xNTQsOS44NTEtOC40MzYsMC01Ljg4NS0zLjU1Ny04LjU4NS0xMS4xMzItOC41ODVabS0xOC4zMTcsMTYuMTI0Yy0uOTI1LDAtMS43OTItLjE2LTIuNTM5LS40NDNsMi41MTItNy45MjZoLjA0OGwyLjQ2OCw3Ljk0OGMtLjc0Mi4yNjMtMS41ODkuNDIxLTIuNDg4LjQyMVptMTguNzgzLTQuNTUzaC0xLjc0NnYtNi4zODZoMS43NDZjMi4zMjgsMCw0LjE4NS43NzMsNC4xODUsMy4xNTEsMCwyLjQ2MS0xLjg1NywzLjIzNi00LjE4NSwzLjIzNiIvPjxwYXRoIGZpbGw9IiMwMDJhODYiIGQ9Im04MC4yMTcsNy40MDFoMTAuMDYzYzUuNTk1LDAsOC42NzQsMS45MTcsOC42NzQsNi4xNTgsMCwyLjkwMy0xLjUxMyw1LjAxNC00LjMxMSw1LjcsMy4yOS40NTgsNS4yNzgsMi41ODYsNS4yNzgsNS44OTQsMCw1LjAxNC00LjA2NCw3LjAzNy05LjE4NCw3LjAzN2gtMTAuNTIxVjcuNDAxWm0xMy45NjksNi44MjZjMC0yLjE2NC0xLjQ5Ni0yLjk3My00LjI0LTIuOTczaC01LjA0OXY2LjI5OGg0Ljg5MWMzLjIwMiwwLDQuMzk4LTEuMTYxLDQuMzk4LTMuMzI1Wm0xLjAyMSwxMC41MjFjMC0yLjM1Ny0xLjc3Ny0zLjQ2Ni00LjgzOS0zLjQ2NmgtNS40NzF2Ny4wNTVoNS41MDZjMi44MTUsMCw0LjgwNC0uNzc0LDQuODA0LTMuNTg5WiIvPjxwYXRoIGZpbGw9IiMwMDJhODYiIGQ9Im0xMDkuMDUxLDExLjVoLTcuNTgzdi00LjA5OWgxOS44NDZ2NC4wOTloLTcuNTY1djIwLjY5aC00LjY5N1YxMS41WiIvPjxwYXRoIGZpbGw9IiMwMDJhODYiIGQ9Im0xMjUuMTQ4LDcuNDAxaDEwLjUwNGM2LjE5MiwwLDkuMDk2LDMuMTg1LDkuMDk2LDcuODk5LDAsNC4zOTgtMi44MzMsOC4xNDYtOC44NSw4LjE0NmgtNi4wN3Y4Ljc0NGgtNC42OFY3LjQwMVptMTQuOTAyLDcuOTUyYzAtMi41NTEtMS42ODktMy45MjMtNC45NDQtMy45MjNoLTUuMjc4djguMDRoNS40MTljMy4yNzIsMCw0LjgwNC0xLjU4Myw0LjgwNC00LjExN1oiLz48L3N2Zz4=;strokeWidth=1.5;" vertex="1" parent="1">
          <mxGeometry x="-274.6494555353902" y="512.3266058016059" width="91.90426497277676" height="25.3505444646098" as="geometry" />
        </mxCell>
        <mxCell id="LzaylhxF4zsQOXDsUJ44-60" value="&lt;font face=&quot;arial&quot; style=&quot;font-size: 16px;&quot;&gt;&lt;b style=&quot;font-size: 16px;&quot;&gt;Subaccount&lt;/b&gt;&lt;/font&gt;" style="text;html=1;align=left;verticalAlign=middle;resizable=0;points=[];autosize=1;strokeColor=none;fillColor=none;fontSize=12;fontColor=#1d2d3e;fontFamily=Helvetica;" vertex="1" parent="1">
          <mxGeometry x="-259.0018148820327" y="562.6395415695415" width="120" height="30" as="geometry" />
        </mxCell>
        <mxCell id="LzaylhxF4zsQOXDsUJ44-61" value="&lt;div style=&quot;&quot;&gt;&lt;code&gt;&lt;i&gt;&lt;font face=&quot;Arial&quot; style=&quot;font-size: 11px;&quot;&gt;(Topic)&lt;br&gt;default/sap.s4/S4D/&lt;br&gt;ce/sap/s4/beh/businesspartner/&lt;br&gt;v1/BusinessPartner/Created/v1&lt;/font&gt;&lt;/i&gt;&lt;/code&gt;&lt;br&gt;&lt;/div&gt;" style="text;html=1;align=center;verticalAlign=middle;resizable=0;points=[[0,0.5,0,0,0],[0.5,0,0,0,0],[0.5,1,0,0,0],[1,0.5,0,0,0]];autosize=1;strokeColor=none;fillColor=none;fontSize=12;fontColor=#556B82;fontFamily=Helvetica;" vertex="1" parent="1">
          <mxGeometry x="-195" y="834" width="180" height="70" as="geometry" />
        </mxCell>
        <mxCell id="LzaylhxF4zsQOXDsUJ44-62" value="" style="shape=image;verticalLabelPosition=bottom;verticalAlign=top;imageAspect=0;aspect=fixed;image=data:image/svg+xml,PHN2ZyB4bWxucz0iaHR0cDovL3d3dy53My5vcmcvMjAwMC9zdmciIGZpbGw9Im5vbmUiIHZpZXdCb3g9IjAgMCAxNiAxNiIgaGVpZ2h0PSIxNiIgd2lkdGg9IjE2Ij4mI3hhOzxnIGNsaXAtcGF0aD0idXJsKCNjbGlwMF82OTNfMTIyNikiPiYjeGE7PHBhdGggZmlsbD0idXJsKCNwYWludDBfbGluZWFyXzY5M18xMjI2KSIgZD0iTTEyLjgxMjUgOS42MjVDMTMuMjUgOS42MjUgMTMuNjU2MiA5LjcwODMzIDE0LjAzMTIgOS44NzVDMTQuNDI3MSAxMC4wNDE3IDE0Ljc3MDggMTAuMjcwOCAxNS4wNjI1IDEwLjU2MjVDMTUuMzU0MiAxMC44NTQyIDE1LjU4MzMgMTEuMTk3OSAxNS43NSAxMS41OTM4QzE1LjkxNjcgMTEuOTY4OCAxNiAxMi4zNzUgMTYgMTIuODEyNUMxNiAxMy4yNSAxNS45MTY3IDEzLjY2NjcgMTUuNzUgMTQuMDYyNUMxNS41ODMzIDE0LjQzNzUgMTUuMzU0MiAxNC43NjA0IDE1LjA2MjUgMTUuMDMxMkMxNC43NzA4IDE1LjMyMjkgMTQuNDI3MSAxNS41NTIxIDE0LjAzMTIgMTUuNzE4OEMxMy42NTYyIDE1Ljg4NTQgMTMuMjUgMTUuOTY4OCAxMi44MTI1IDE1Ljk2ODhDMTIuMzc1IDE1Ljk2ODggMTEuOTU4MyAxNS44ODU0IDExLjU2MjUgMTUuNzE4OEMxMS4xODc1IDE1LjU1MjEgMTAuODU0MiAxNS4zMjI5IDEwLjU2MjUgMTUuMDMxMkMxMC4yNzA4IDE0Ljc2MDQgMTAuMDQxNyAxNC40Mzc1IDkuODc1IDE0LjA2MjVDOS43MDgzMyAxMy42NjY3IDkuNjI1IDEzLjI1IDkuNjI1IDEyLjgxMjVWMTIuNDA2Mkw1LjQwNjI1IDEwLjM0MzhDNC43NjA0MiAxMC45MjcxIDQuMDIwODMgMTEuMjE4OCAzLjE4NzUgMTEuMjE4OEMyLjc1IDExLjIxODggMi4zMzMzMyAxMS4xMzU0IDEuOTM3NSAxMC45Njg4QzEuNTYyNSAxMC44MDIxIDEuMjI5MTcgMTAuNTcyOSAwLjkzNzUgMTAuMjgxMkMwLjY2NjY2NyA5Ljk4OTU4IDAuNDQ3OTE3IDkuNjU2MjUgMC4yODEyNSA5LjI4MTI1QzAuMTE0NTgzIDguODg1NDIgMC4wMzEyNSA4LjQ2ODc1IDAuMDMxMjUgOC4wMzEyNUMwLjAzMTI1IDcuNTkzNzUgMC4xMTQ1ODMgNy4xODc1IDAuMjgxMjUgNi44MTI1QzAuNDQ3OTE3IDYuNDE2NjcgMC42NjY2NjcgNi4wODMzMyAwLjkzNzUgNS44MTI1QzEuMjI5MTcgNS41MjA4MyAxLjU2MjUgNS4yOTE2NyAxLjkzNzUgNS4xMjVDMi4zMzMzMyA0Ljk1ODMzIDIuNzUgNC44NzUgMy4xODc1IDQuODc1QzMuNjI1IDQuODc1IDQuMDMxMjUgNC45NDc5MiA0LjQwNjI1IDUuMDkzNzVDNC44MDIwOCA1LjIzOTU4IDUuMTM1NDIgNS40NTgzMyA1LjQwNjI1IDUuNzVMOS42MjUgMy42NTYyNVYzLjI4MTI1QzkuNjI1IDIuODQzNzUgOS43MDgzMyAyLjQzNzUgOS44NzUgMi4wNjI1QzEwLjA0MTcgMS42NjY2NyAxMC4yNzA4IDEuMzIyOTIgMTAuNTYyNSAxLjAzMTI1QzEwLjg1NDIgMC43Mzk1ODMgMTEuMTg3NSAwLjUxMDQxNyAxMS41NjI1IDAuMzQzNzVDMTEuOTU4MyAwLjE3NzA4MyAxMi4zNzUgMC4wOTM3NSAxMi44MTI1IDAuMDkzNzVDMTMuMjUgMC4wOTM3NSAxMy42NTYyIDAuMTc3MDgzIDE0LjAzMTIgMC4zNDM3NUMxNC40MjcxIDAuNTEwNDE3IDE0Ljc3MDggMC43Mzk1ODMgMTUuMDYyNSAxLjAzMTI1QzE1LjM1NDIgMS4zMjI5MiAxNS41ODMzIDEuNjY2NjcgMTUuNzUgMi4wNjI1QzE1LjkxNjcgMi40Mzc1IDE2IDIuODQzNzUgMTYgMy4yODEyNUMxNiAzLjcxODc1IDE1LjkxNjcgNC4xMzU0MiAxNS43NSA0LjUzMTI1QzE1LjU4MzMgNC45MDYyNSAxNS4zNTQyIDUuMjM5NTggMTUuMDYyNSA1LjUzMTI1QzE0Ljc3MDggNS44MDIwOCAxNC40MjcxIDYuMDIwODMgMTQuMDMxMiA2LjE4NzVDMTMuNjU2MiA2LjM1NDE3IDEzLjI1IDYuNDM3NSAxMi44MTI1IDYuNDM3NUMxMi4yNSA2LjQzNzUgMTEuNzM5NiA2LjMyMjkyIDExLjI4MTIgNi4wOTM3NUMxMC44NDM4IDUuODQzNzUgMTAuNDc5MiA1LjUxMDQyIDEwLjE4NzUgNS4wOTM3NUw2LjI4MTI1IDcuMDkzNzVDNi4zODU0MiA3LjQ0NzkyIDYuNDM3NSA3Ljc2MDQyIDYuNDM3NSA4LjAzMTI1QzYuNDM3NSA4LjMyMjkyIDYuMzg1NDIgOC42NDU4MyA2LjI4MTI1IDlMMTAuMTg3NSAxMC45Njg4QzEwLjUgMTAuNTcyOSAxMC44NzUgMTAuMjUgMTEuMzEyNSAxMEMxMS43NSA5Ljc1IDEyLjI1IDkuNjI1IDEyLjgxMjUgOS42MjVaTTEyLjgxMjUgMS42ODc1QzEyLjM3NSAxLjY4NzUgMTIgMS44NDM3NSAxMS42ODc1IDIuMTU2MjVDMTEuMzc1IDIuNDY4NzUgMTEuMjE4OCAyLjg0Mzc1IDExLjIxODggMy4yODEyNUMxMS4yMTg4IDMuNzE4NzUgMTEuMzc1IDQuMDkzNzUgMTEuNjg3NSA0LjQwNjI1QzEyIDQuNzE4NzUgMTIuMzc1IDQuODc1IDEyLjgxMjUgNC44NzVDMTMuMjUgNC44NzUgMTMuNjI1IDQuNzE4NzUgMTMuOTM3NSA0LjQwNjI1QzE0LjI1IDQuMDkzNzUgMTQuNDA2MiAzLjcxODc1IDE0LjQwNjIgMy4yODEyNUMxNC40MDYyIDIuODQzNzUgMTQuMjUgMi40Njg3NSAxMy45Mzc1IDIuMTU2MjVDMTMuNjI1IDEuODQzNzUgMTMuMjUgMS42ODc1IDEyLjgxMjUgMS42ODc1Wk0zLjI4MTI1IDkuNjI1QzMuNzE4NzUgOS42MjUgNC4wOTM3NSA5LjQ2ODc1IDQuNDA2MjUgOS4xNTYyNUM0LjcxODc1IDguODQzNzUgNC44NzUgOC40Njg3NSA0Ljg3NSA4LjAzMTI1QzQuODc1IDcuNTkzNzUgNC43MTg3NSA3LjIxODc1IDQuNDA2MjUgNi45MDYyNUM0LjA5Mzc1IDYuNTkzNzUgMy43MTg3NSA2LjQzNzUgMy4yODEyNSA2LjQzNzVDMi44NDM3NSA2LjQzNzUgMi40Njg3NSA2LjU5Mzc1IDIuMTU2MjUgNi45MDYyNUMxLjg0Mzc1IDcuMjE4NzUgMS42ODc1IDcuNTkzNzUgMS42ODc1IDguMDMxMjVDMS42ODc1IDguNDY4NzUgMS44NDM3NSA4Ljg0Mzc1IDIuMTU2MjUgOS4xNTYyNUMyLjQ2ODc1IDkuNDY4NzUgMi44NDM3NSA5LjYyNSAzLjI4MTI1IDkuNjI1Wk0xMi44MTI1IDE0LjQwNjJDMTMuMjUgMTQuNDA2MiAxMy42MjUgMTQuMjUgMTMuOTM3NSAxMy45Mzc1QzE0LjI1IDEzLjYyNSAxNC40MDYyIDEzLjI1IDE0LjQwNjIgMTIuODEyNUMxNC40MDYyIDEyLjM3NSAxNC4yNSAxMiAxMy45Mzc1IDExLjY4NzVDMTMuNjI1IDExLjM3NSAxMy4yNSAxMS4yMTg4IDEyLjgxMjUgMTEuMjE4OEMxMi4zNzUgMTEuMjE4OCAxMiAxMS4zNzUgMTEuNjg3NSAxMS42ODc1QzExLjM3NSAxMiAxMS4yMTg4IDEyLjM3NSAxMS4yMTg4IDEyLjgxMjVDMTEuMjE4OCAxMy4yNSAxMS4zNzUgMTMuNjI1IDExLjY4NzUgMTMuOTM3NUMxMiAxNC4yNSAxMi4zNzUgMTQuNDA2MiAxMi44MTI1IDE0LjQwNjJaIi8+JiN4YTs8L2c+JiN4YTs8ZGVmcz4mI3hhOzxsaW5lYXJHcmFkaWVudCBncmFkaWVudFVuaXRzPSJ1c2VyU3BhY2VPblVzZSIgeTI9IjkuODc3MjMiIHgyPSIxNi4xNTI5IiB5MT0iMS41ODcwOCIgeDE9IjIuMDk1MDYiIGlkPSJwYWludDBfbGluZWFyXzY5M18xMjI2Ij4mI3hhOzxzdG9wIHN0b3AtY29sb3I9IiMyMzk1RkYiLz4mI3hhOzxzdG9wIHN0b3AtY29sb3I9IiMwMDU3RDIiIG9mZnNldD0iMSIvPiYjeGE7PC9saW5lYXJHcmFkaWVudD4mI3hhOzxjbGlwUGF0aCBpZD0iY2xpcDBfNjkzXzEyMjYiPiYjeGE7PHJlY3QgZmlsbD0id2hpdGUiIGhlaWdodD0iMTYiIHdpZHRoPSIxNiIvPiYjeGE7PC9jbGlwUGF0aD4mI3hhOzwvZGVmcz4mI3hhOzwvc3ZnPg==" vertex="1" parent="1">
          <mxGeometry x="291" y="784" width="48" height="48" as="geometry" />
        </mxCell>
        <mxCell id="LzaylhxF4zsQOXDsUJ44-63" value="" style="group" vertex="1" connectable="0" parent="1">
          <mxGeometry x="592" y="792" width="150" height="80" as="geometry" />
        </mxCell>
        <mxCell id="LzaylhxF4zsQOXDsUJ44-64" value="" style="shape=mxgraph.sap.icon;labelPosition=center;verticalLabelPosition=bottom;align=center;verticalAlign=top;strokeWidth=1;strokeColor=#D5DADD;fillColor=#EDEFF0;gradientColor=#FCFCFC;gradientDirection=west;aspect=fixed;SAPIcon=SAP_Build_Process_Automation" vertex="1" parent="LzaylhxF4zsQOXDsUJ44-63">
          <mxGeometry x="50" width="50" height="50" as="geometry" />
        </mxCell>
        <mxCell id="LzaylhxF4zsQOXDsUJ44-65" value="&lt;b style=&quot;border-color: var(--border-color); font-family: arial; font-style: normal; font-variant-ligatures: normal; font-variant-caps: normal; letter-spacing: normal; orphans: 2; text-indent: 0px; text-transform: none; widows: 2; word-spacing: 0px; -webkit-text-stroke-width: 0px; background-color: rgb(251, 251, 251); text-decoration-thickness: initial; text-decoration-style: initial; text-decoration-color: initial; font-size: 14px;&quot;&gt;&lt;font color=&quot;#1d2d3e&quot;&gt;SAP Build &lt;br&gt;Process Automation&lt;/font&gt;&lt;/b&gt;" style="text;whiteSpace=wrap;html=1;align=center;verticalAlign=top;points=[[0,0,0,0,0],[0,0.25,0,0,0],[0,0.5,0,0,0],[0,0.75,0,0,0],[0,1,0,0,0],[0.25,0,0,0,0],[0.25,1,0,0,0],[0.5,0,0,0,0],[0.5,1,0,0,0],[0.75,0,0,0,0],[0.75,1,0,0,0],[1,0,0,0,0],[1,0.25,0,0,0],[1,0.5,0,0,0],[1,0.75,0,0,0],[1,1,0,0,0]];" vertex="1" parent="LzaylhxF4zsQOXDsUJ44-63">
          <mxGeometry y="50" width="150" height="30" as="geometry" />
        </mxCell>
        <mxCell id="LzaylhxF4zsQOXDsUJ44-69" value="&lt;font color=&quot;#0070f2&quot; face=&quot;arial&quot; style=&quot;font-size: 16px;&quot;&gt;&lt;b style=&quot;font-size: 16px;&quot;&gt;Get started with SAP Integration Suite, advanced event mesh&lt;/b&gt;&lt;/font&gt;" style="text;html=1;align=left;verticalAlign=middle;resizable=0;points=[];autosize=1;strokeColor=none;fillColor=none;fontSize=12;fontColor=#1d2d3e;fontFamily=Helvetica;" vertex="1" parent="1">
          <mxGeometry x="-680" y="410" width="490" height="30" as="geometry" />
        </mxCell>
        <mxCell id="LzaylhxF4zsQOXDsUJ44-71" value="" style="endArrow=blockThin;html=1;strokeColor=#475e75;bendable=1;rounded=0;endFill=1;endSize=4;strokeWidth=1.5;startSize=4;startArrow=none;startFill=0;entryX=0;entryY=0.5;entryDx=0;entryDy=0;edgeStyle=orthogonalEdgeStyle;exitX=1;exitY=0.75;exitDx=0;exitDy=0;" edge="1" parent="1" target="LzaylhxF4zsQOXDsUJ44-62">
          <mxGeometry width="50" height="50" relative="1" as="geometry">
            <mxPoint x="163.05999999999995" y="806.7499999999998" as="sourcePoint" />
            <mxPoint x="310" y="804" as="targetPoint" />
          </mxGeometry>
        </mxCell>
        <mxCell id="LzaylhxF4zsQOXDsUJ44-72" value="" style="endArrow=none;html=1;strokeColor=#475e75;bendable=1;rounded=0;endFill=0;endSize=4;edgeStyle=entityRelationEdgeStyle;startArrow=none;startFill=0;startSize=4;jumpStyle=none;jumpSize=0;targetPerimeterSpacing=15;strokeWidth=1.5;exitX=1;exitY=0.5;exitDx=0;exitDy=0;entryX=0;entryY=0.5;entryDx=0;entryDy=0;" edge="1" parent="1" source="LzaylhxF4zsQOXDsUJ44-73">
          <mxGeometry width="50" height="50" relative="1" as="geometry">
            <mxPoint x="-59" y="806" as="sourcePoint" />
            <mxPoint x="113.94999999999982" y="806.5" as="targetPoint" />
          </mxGeometry>
        </mxCell>
        <mxCell id="LzaylhxF4zsQOXDsUJ44-73" value="" style="shape=image;editableCssRules=.*;verticalLabelPosition=bottom;labelBackgroundColor=default;verticalAlign=top;aspect=fixed;imageAspect=0;image=data:image/svg+xml,PHN2ZyB4bWxucz0iaHR0cDovL3d3dy53My5vcmcvMjAwMC9zdmciIHZpZXdCb3g9Ii0wLjUgLTAuNSA0Ny45MDcgNDMuMjA3IiBoZWlnaHQ9IjQzLjIwNyIgd2lkdGg9IjQ3LjkwNyI+JiN4YTsJICA8c3R5bGUgdHlwZT0idGV4dC9jc3MiPiYjeGE7CQkuc3Qwe3N0b3AtY29sb3I6IzViNzM4Yjt9JiN4YTsJCS5zdDF7c3RvcC1jb2xvcjojMjIzNTQ4O30mI3hhOwkgIDwvc3R5bGU+JiN4YTsJPGRlZnM+JiN4YTsJCTxsaW5lYXJHcmFkaWVudCBncmFkaWVudFVuaXRzPSJ1c2VyU3BhY2VPblVzZSIgeTI9IjQyLjcwNyIgeDI9IjIzLjQ1NCIgeTE9Ii0uNSIgeDE9IjIzLjQ1NCIgaWQ9IkEiPiYjeGE7CQkJPHN0b3AgY2xhc3M9InN0MCIvPiYjeGE7CQkJPHN0b3AgY2xhc3M9InN0MSIgb2Zmc2V0PSIxIi8+JiN4YTsJCTwvbGluZWFyR3JhZGllbnQ+JiN4YTsJPC9kZWZzPiYjeGE7CTxwYXRoIGZpbGw9InVybCgjQSkiIGQ9Ik00Ni40NjggMTQuNDQ1Yy4yNTIuMjUyLjQ2OC41MzEuNjU3Ljg0M2ExLjk3IDEuOTcgMCAwIDEgLjI4MiAxLjAzMnYxOS4xMjVjMCAxLjMxNC0uNjI3IDIuMTI3LTEuODc1IDIuNDM5bC0yNCA0Ljc4MmMtLjgxMy4xMjMtMS40NC0uMDMtMS44NzUtLjQ3MS0uMjUzLS4yNTMtLjQ3My0uNTM2LS42NTctLjg0My0uMTczLS4zMTgtLjI2OS0uNjcxLS4yODItMS4wMzJWMjEuMTAyYzAtMS4zNzQuNjI3LTIuMTU3IDEuODc1LTIuMzQzbDI0LTQuNzgyYy4zMTIgMCAuNjI3LjAzLjkzOS4wOTNhMS4yNyAxLjI3IDAgMCAxIC45MzYuMzc1em0tMy44NDMgNC43ODJMMjMuNSAyMy4wN3YxNC4zNDNsMTkuMTI1LTMuODR6TTM3Ljg0MyA4LjYzNGMuMTIuNjUtLjAxNCAxLjMyMS0uMzc1IDEuODc1LS4xNTMuMjc2LS4zNjguNTEzLS42MjkuNjkycy0uNTU5LjI5NC0uODcxLjMzN2wtMjIuMDMyIDQuMzE0djE3LjI1YzAgLjY5LS4yNDkgMS4yNTEtLjc1IDEuNjg5LS4yMjIuMjE4LS40ODYuMzg3LS43NzYuNDk5YTIuMjkgMi4yOSAwIDAgMS0uOTEuMTUyYy0xLjU2IDAtMi4zNDMtLjc4LTIuMzQzLTIuMzQzVjEzLjk3N2MwLTEuMzE0LjYyNC0yLjEyNCAxLjg3NS0yLjQzOWwyNC00Ljc3OWMuNTYxLS4xMjYgMS4xMjUuMDMgMS42ODYuNDY4LjYyNy4zNzUgMS4wMDIuODQzIDEuMTI1IDEuNDA3em0tOS41NjEtNy4xMjVjLjEyMy41NjEgMCAxLjE1NS0uMzc1IDEuNzc5LS4xNTMuMjc3LS4zNjguNTE0LS42MjguNjkzcy0uNTU5LjI5NS0uODcyLjMzOUw0LjI4MiA4LjYzNHYxNy4yNWMwIDEuNjIzLS43OCAyLjQzNi0yLjM0NiAyLjQzNi0uNjU0LjAxMS0xLjI4OS0uMjIzLTEuNzc5LS42NTctLjQzOC0uNDM1LS42NTctMS4wMjktLjY1Ny0xLjc3OVY2Ljc1OWMwLTEuMzE0LjY1Ny0yLjEyNyAxLjk2OC0yLjQzOUwyNS4zNzUtLjQ2MmMuMzEzLS4wNi42MzYtLjA0OS45NDUuMDMycy41OTUuMjMyLjgzNy40MzljLjYyNC4zNzUuOTk5Ljg3MyAxLjEyNSAxLjV6Ii8+JiN4YTs8L3N2Zz4=;" vertex="1" parent="1">
          <mxGeometry x="-129" y="785" width="48" height="43" as="geometry" />
        </mxCell>
        <mxCell id="LzaylhxF4zsQOXDsUJ44-74" value="" style="strokeColor=#0070F2;shadow=0;strokeWidth=2;rounded=1;absoluteArcSize=1;arcSize=20;whiteSpace=wrap;verticalAlign=bottom;spacing=10;fontSize=10;fontColor=#556B82;align=left;container=0;" vertex="1" parent="1">
          <mxGeometry x="-680" y="739.3399999999999" width="179" height="110.66" as="geometry" />
        </mxCell>
        <mxCell id="LzaylhxF4zsQOXDsUJ44-75" value="&lt;span style=&quot;font-family: Helvetica; font-style: normal; font-variant-ligatures: normal; font-variant-caps: normal; font-weight: 700; letter-spacing: normal; orphans: 2; text-indent: 0px; text-transform: none; widows: 2; word-spacing: 0px; -webkit-text-stroke-width: 0px; text-decoration-thickness: initial; text-decoration-style: initial; text-decoration-color: initial; float: none; display: inline !important;&quot;&gt;&lt;font style=&quot;font-size: 11px;&quot;&gt;SAP S/4HANA Cloud&lt;/font&gt;&lt;/span&gt;" style="text;whiteSpace=wrap;html=1;align=left;container=0;verticalAlign=middle;fontColor=#1D2D3E;fontSize=10;" vertex="1" parent="1">
          <mxGeometry x="-670" y="807.67" width="140" height="24.57" as="geometry" />
        </mxCell>
        <mxCell id="LzaylhxF4zsQOXDsUJ44-76" value="" style="shape=image;editableCssRules=.*;part=0;verticalLabelPosition=bottom;labelBackgroundColor=default;verticalAlign=top;imageAspect=0;image=data:image/svg+xml,PHN2ZyB4bWxucz0iaHR0cDovL3d3dy53My5vcmcvMjAwMC9zdmciIHZpZXdCb3g9Ii0wLjUgLTAuNSAyOCAxOC40MTIiIGhlaWdodD0iMTguNDEyIiB3aWR0aD0iMjgiPiYjeGE7CSAgPHN0eWxlIHR5cGU9InRleHQvY3NzIj4uc3QwIHsgc3RvcC1jb2xvcjogcmdiKDM1LCAxNDksIDI1NSk7IH0gLnN0MSB7IHN0b3AtY29sb3I6IHJnYigwLCA4NywgMjEwKTsgfSA8L3N0eWxlPiYjeGE7CTxkZWZzPiYjeGE7CQk8bGluZWFyR3JhZGllbnQgZ3JhZGllbnRVbml0cz0idXNlclNwYWNlT25Vc2UiIHkyPSIyMi4wMDgiIHgyPSIxNC44NjkiIHkxPSIyLjExMyIgeDE9IjIuMDM5IiBpZD0iQSI+JiN4YTsJCQk8c3RvcCBjbGFzcz0ic3QwIi8+JiN4YTsJCQk8c3RvcCBjbGFzcz0ic3QxIiBvZmZzZXQ9IjEiLz4mI3hhOwkJPC9saW5lYXJHcmFkaWVudD4mI3hhOwk8L2RlZnM+JiN4YTsJPHBhdGggZmlsbD0idXJsKCNBKSIgZD0iTTUuOTAzIDYuMDQ3QzYuNDM0IDIuMzQ1IDkuNjE5LS41IDEzLjQ2Ny0uNWMyLjgwMSAwIDUuMjQ3IDEuNTA2IDYuNTc3IDMuNzQ5aC4xMjRjNC4wNDkgMCA3LjMzMSAzLjI4MiA3LjMzMSA3LjMzMXMtMy4yODIgNy4zMzEtNy4zMzEgNy4zMzFoLTQuMDU0Yy0uMDg3IDAtLjE3My0uMDAyLS4yNTktLjAwNS0uMDc4LjAwMy0uMTU1LjAwNS0uMjMzLjAwNUg1LjQzMmMtMy4yNzYgMC01LjkzMi0yLjY1Ni01LjkzMi01LjkzMnMyLjY1Ni01LjkzMiA1LjkzMi01LjkzMnpNMTMuNDY3IDIuM2MtMi42NzQgMC00Ljg0MiAyLjE2OC00Ljg0MiA0Ljg0MmE0Ljk0IDQuOTQgMCAwIDAgLjAwNi4yMzggMS40IDEuNCAwIDAgMS0xLjM5OCAxLjQ2N2gtMS44Yy0xLjczIDAtMy4xMzIgMS40MDItMy4xMzIgMy4xMzJzMS40MDIgMy4xMzIgMy4xMzIgMy4xMzJoMTAuMTlhMy4xNCAzLjE0IDAgMCAwIC4xNi0uMDA0IDEuMzkgMS4zOSAwIDAgMSAuMTMxIDBjLjA2Ny4wMDMuMTM0LjAwNC4yMDIuMDA0aDQuMDU0YTQuNTMgNC41MyAwIDEgMCAwLTkuMDYyaC0uOTc3YTEuNCAxLjQgMCAwIDEtMS4yODMtLjg0QzE3LjE2MSAzLjQ5NCAxNS40NTIgMi4zIDEzLjQ2NyAyLjN6IiBmaWxsLXJ1bGU9ImV2ZW5vZGQiLz4mI3hhOzwvc3ZnPg==;labelPosition=center;align=left;fontSize=16;fontStyle=1;spacingLeft=0;" vertex="1" parent="1">
          <mxGeometry x="-670" y="747" width="34" height="22" as="geometry">
            <mxPoint x="260" y="-186" as="offset" />
          </mxGeometry>
        </mxCell>
        <mxCell id="LzaylhxF4zsQOXDsUJ44-77" value="&lt;span style=&quot;color: rgb(0, 0, 0); font-family: Helvetica; font-size: 16px; font-style: normal; font-variant-ligatures: normal; font-variant-caps: normal; font-weight: 700; letter-spacing: normal; orphans: 2; text-align: left; text-indent: 0px; text-transform: none; widows: 2; word-spacing: 0px; -webkit-text-stroke-width: 0px; white-space: nowrap; background-color: rgb(255, 255, 255); text-decoration-thickness: initial; text-decoration-style: initial; text-decoration-color: initial; display: inline !important; float: none;&quot;&gt;SAP Cloud Solutions&lt;/span&gt;" style="text;whiteSpace=wrap;html=1;" vertex="1" parent="1">
          <mxGeometry x="-670" y="768.89" width="164" height="40" as="geometry" />
        </mxCell>
        <mxCell id="LzaylhxF4zsQOXDsUJ44-78" value="" style="endArrow=blockThin;html=1;strokeColor=#475e75;bendable=1;rounded=0;endFill=1;endSize=4;strokeWidth=1.5;startSize=4;startArrow=none;startFill=0;entryX=0;entryY=0.5;entryDx=0;entryDy=0;exitX=1;exitY=0.75;exitDx=0;exitDy=0;" edge="1" parent="1" source="LzaylhxF4zsQOXDsUJ44-74" target="LzaylhxF4zsQOXDsUJ44-53">
          <mxGeometry width="50" height="50" relative="1" as="geometry">
            <mxPoint x="-440" y="1000" as="sourcePoint" />
            <mxPoint x="-320" y="1000" as="targetPoint" />
            <Array as="points" />
          </mxGeometry>
        </mxCell>
        <mxCell id="LzaylhxF4zsQOXDsUJ44-79" value="NETWORK" style="text;html=1;align=left;verticalAlign=middle;resizable=0;points=[];autosize=1;strokeColor=none;fillColor=none;fontSize=14;fontStyle=1;fontColor=#5B738B;" vertex="1" parent="1">
          <mxGeometry x="-420" y="473" width="100" height="30" as="geometry" />
        </mxCell>
        <mxCell id="LzaylhxF4zsQOXDsUJ44-80" value="" style="endArrow=none;html=1;strokeColor=#5B738B;bendable=1;rounded=0;endFill=0;endSize=4;strokeWidth=3;startSize=4;startArrow=none;startFill=0;jumpStyle=gap;" edge="1" parent="1">
          <mxGeometry width="50" height="50" relative="1" as="geometry">
            <mxPoint x="-330" y="473" as="sourcePoint" />
            <mxPoint x="-330" y="1043" as="targetPoint" />
            <Array as="points" />
          </mxGeometry>
        </mxCell>
        <mxCell id="LzaylhxF4zsQOXDsUJ44-81" value="&lt;font size=&quot;1&quot; face=&quot;arial&quot; style=&quot;&quot;&gt;&lt;span style=&quot;font-size: 12px;&quot;&gt;Publishes business events&lt;/span&gt;&lt;/font&gt;" style="text;html=1;align=left;verticalAlign=middle;resizable=0;points=[];autosize=1;strokeColor=none;fillColor=none;fontSize=12;fontColor=#1D2D3E;fontFamily=Helvetica;" vertex="1" parent="1">
          <mxGeometry x="-486" y="797" width="160" height="30" as="geometry" />
        </mxCell>
        <mxCell id="LzaylhxF4zsQOXDsUJ44-82" value="&lt;font size=&quot;1&quot; face=&quot;arial&quot; style=&quot;&quot;&gt;&lt;span style=&quot;font-size: 12px;&quot;&gt;Queue binding&lt;/span&gt;&lt;/font&gt;" style="text;html=1;align=left;verticalAlign=middle;resizable=0;points=[];autosize=1;strokeColor=none;fillColor=none;fontSize=12;fontColor=#1D2D3E;fontFamily=Helvetica;" vertex="1" parent="1">
          <mxGeometry x="184.67999999999995" y="809" width="100" height="30" as="geometry" />
        </mxCell>
        <mxCell id="LzaylhxF4zsQOXDsUJ44-83" value="&lt;font size=&quot;1&quot; face=&quot;arial&quot; style=&quot;&quot;&gt;&lt;span style=&quot;font-size: 12px;&quot;&gt;Deliver event&lt;/span&gt;&lt;/font&gt;" style="text;html=1;align=left;verticalAlign=middle;resizable=0;points=[];autosize=1;strokeColor=none;fillColor=none;fontSize=12;fontColor=#1D2D3E;fontFamily=Helvetica;" vertex="1" parent="1">
          <mxGeometry x="460" y="782" width="90" height="30" as="geometry" />
        </mxCell>
        <mxCell id="LzaylhxF4zsQOXDsUJ44-85" value="&lt;font size=&quot;1&quot; face=&quot;arial&quot; style=&quot;&quot;&gt;&lt;span style=&quot;font-size: 12px;&quot;&gt;Subscribes&lt;/span&gt;&lt;/font&gt;" style="text;html=1;align=left;verticalAlign=middle;resizable=0;points=[];autosize=1;strokeColor=none;fillColor=none;fontSize=12;fontColor=#1D2D3E;fontFamily=Helvetica;" vertex="1" parent="1">
          <mxGeometry x="-20" y="780.6700000000001" width="80" height="30" as="geometry" />
        </mxCell>
        <mxCell id="LzaylhxF4zsQOXDsUJ44-87" value="&lt;font color=&quot;#475e75&quot; size=&quot;1&quot;&gt;&lt;b style=&quot;&quot;&gt;AMQP&lt;/b&gt;&lt;/font&gt;" style="rounded=1;whiteSpace=wrap;html=1;arcSize=50;strokeColor=#475E75;fillColor=#f5f6f7;strokeWidth=1.5;" vertex="1" parent="1">
          <mxGeometry x="-310" y="815" width="46" height="16" as="geometry" />
        </mxCell>
        <mxCell id="LzaylhxF4zsQOXDsUJ44-88" value="&lt;font size=&quot;1&quot; face=&quot;arial&quot; style=&quot;&quot;&gt;&lt;span style=&quot;font-size: 12px;&quot;&gt;my-queue&lt;/span&gt;&lt;/font&gt;" style="text;html=1;align=center;verticalAlign=middle;resizable=0;points=[[0,0.5,0,0,0],[0.5,0,0,0,0],[0.5,1,0,0,0],[1,0.5,0,0,0]];autosize=1;strokeColor=none;fillColor=none;fontSize=12;fontColor=#1D2D3E;fontFamily=Helvetica;" vertex="1" parent="1">
          <mxGeometry x="98.5" y="844" width="80" height="30" as="geometry" />
        </mxCell>
        <mxCell id="LzaylhxF4zsQOXDsUJ44-89" value="&lt;div style=&quot;&quot;&gt;&lt;font face=&quot;Arial&quot;&gt;&lt;span style=&quot;font-size: 11px;&quot;&gt;RDP&lt;br&gt;&lt;i&gt;RDP-SBPA-Created&lt;/i&gt;&lt;/span&gt;&lt;/font&gt;&lt;/div&gt;" style="text;html=1;align=center;verticalAlign=middle;resizable=0;points=[[0,0.5,0,0,0],[0.5,0,0,0,0],[0.5,1,0,0,0],[1,0.5,0,0,0]];autosize=1;strokeColor=none;fillColor=none;fontSize=12;fontColor=#556B82;fontFamily=Helvetica;" vertex="1" parent="1">
          <mxGeometry x="260" y="828" width="120" height="40" as="geometry" />
        </mxCell>
        <mxCell id="LzaylhxF4zsQOXDsUJ44-90" value="" style="endArrow=blockThin;html=1;strokeColor=#475e75;bendable=1;rounded=0;endFill=1;endSize=4;strokeWidth=1.5;startSize=4;startArrow=none;startFill=0;entryX=0;entryY=0.325;entryDx=0;entryDy=0;edgeStyle=orthogonalEdgeStyle;exitX=1;exitY=0.5;exitDx=0;exitDy=0;entryPerimeter=0;" edge="1" parent="1" source="LzaylhxF4zsQOXDsUJ44-62" target="LzaylhxF4zsQOXDsUJ44-64">
          <mxGeometry width="50" height="50" relative="1" as="geometry">
            <mxPoint x="173" y="768" as="sourcePoint" />
            <mxPoint x="301" y="818" as="targetPoint" />
            <Array as="points">
              <mxPoint x="630" y="808" />
            </Array>
          </mxGeometry>
        </mxCell>
        <mxCell id="LzaylhxF4zsQOXDsUJ44-91" value="&lt;font color=&quot;#475e75&quot; size=&quot;1&quot;&gt;&lt;b style=&quot;&quot;&gt;HTTPS&lt;/b&gt;&lt;/font&gt;" style="rounded=1;whiteSpace=wrap;html=1;arcSize=50;strokeColor=#475E75;fillColor=#f5f6f7;strokeWidth=1.5;" vertex="1" parent="1">
          <mxGeometry x="558" y="800" width="46" height="16" as="geometry" />
        </mxCell>
        <mxCell id="LzaylhxF4zsQOXDsUJ44-92" value="" style="rounded=0;whiteSpace=wrap;html=1;strokeColor=#eaecee;strokeWidth=1.5;arcSize=16;fillColor=#FFFFFF;perimeterSpacing=0;imageHeight=24;absoluteArcSize=1;points=[];connectable=0;container=0;" vertex="1" parent="1">
          <mxGeometry x="550" y="1040" width="220" height="90" as="geometry" />
        </mxCell>
        <mxCell id="LzaylhxF4zsQOXDsUJ44-93" value="&lt;font size=&quot;1&quot; style=&quot;&quot; face=&quot;arial&quot; color=&quot;#1d2d3e&quot;&gt;&lt;b style=&quot;font-size: 12px;&quot;&gt;Legend&lt;/b&gt;&lt;/font&gt;" style="text;html=1;align=left;verticalAlign=top;resizable=0;points=[];autosize=1;strokeColor=none;fillColor=none;fontSize=12;fontColor=default;fontFamily=Helvetica;" vertex="1" parent="1">
          <mxGeometry x="570.9982051282052" y="1049" width="61" height="26" as="geometry" />
        </mxCell>
        <mxCell id="LzaylhxF4zsQOXDsUJ44-94" value="&lt;div style=&quot;font-size: 10px; line-height: 100%;&quot;&gt;&lt;span style=&quot;font-family: arial; font-size: 10px; background-color: initial;&quot;&gt;&lt;font style=&quot;font-size: 10px;&quot;&gt;Access&lt;/font&gt;&lt;/span&gt;&lt;/div&gt;" style="text;html=1;align=left;verticalAlign=middle;resizable=0;points=[];autosize=1;strokeColor=none;fillColor=none;fontSize=10;fontColor=#1D2D3E;fontFamily=Helvetica;labelPosition=center;verticalLabelPosition=middle;" vertex="1" parent="1">
          <mxGeometry x="589.9999999999999" y="1076.5" width="50" height="23" as="geometry" />
        </mxCell>
        <mxCell id="LzaylhxF4zsQOXDsUJ44-95" value="" style="ellipse;whiteSpace=wrap;html=1;aspect=fixed;strokeColor=none;fillColor=#475E75;fontColor=#475E75;" vertex="1" parent="1">
          <mxGeometry x="571.4999999999999" y="1081" width="16" height="16" as="geometry" />
        </mxCell>
        <mxCell id="LzaylhxF4zsQOXDsUJ44-96" value="" style="shape=image;verticalLabelPosition=bottom;verticalAlign=top;imageAspect=0;aspect=fixed;image=data:image/svg+xml,PHN2ZyB4bWxucz0iaHR0cDovL3d3dy53My5vcmcvMjAwMC9zdmciIGZpbGw9Im5vbmUiIHZpZXdCb3g9IjAgMCA0OSA0OSIgaGVpZ2h0PSI0OSIgd2lkdGg9IjQ5Ij4mI3hhOzxjaXJjbGUgc3Ryb2tlLXdpZHRoPSIwLjg1NzE0MyIgc3Ryb2tlPSIjRDVEQUREIiBmaWxsPSJ1cmwoI3BhaW50MF9saW5lYXJfMjYyMl8yMDQ3NSkiIHI9IjIzLjU3MTQiIGN5PSIyNC4wMzQ5IiBjeD0iMjQuNSIvPiYjeGE7PHBhdGggZmlsbD0idXJsKCNwYWludDFfcmFkaWFsXzI2MjJfMjA0NzUpIiBkPSJNMjQuMzkzMSAxMi4yMzcxQzIwLjExMDcgMTIuMjM3MSAxNy4wNjgxIDE1LjcyMzEgMTYuNTYxMSAxOS4zNjI1QzE1LjE4MzYgMTkuNDQ0NCAxMy45NjcyIDE5Ljk2MjEgMTMuMDIyNSAyMC44MzE3QzExLjc0NDUgMjIuMDA4MSAxMS4wODQ0IDIzLjcxNTYgMTEuMDg0NCAyNS41MTYzQzExLjA4NDQgMjcuMTg5NyAxMS41OTIgMjguNzcxNSAxMi43MzE2IDI5Ljk0MDlDMTMuNTg2MSAzMC44MTc4IDE0LjcwNzcgMzEuMzcyNCAxNi4wMTcgMzEuNTk4NEMxNi4xMzc2IDMxLjM1MzUgMTYuMjczNSAzMS4xMTY4IDE2LjQyNTIgMzAuODg5MkwxNi40NDEgMzAuODY1NUwxNi40NTQ4IDMwLjg0NjFDMTYuNzA2OSAzMC40OTAxIDE2Ljk5NDggMzAuMTY2IDE3LjMxNjkgMjkuODc2MUMxNy4xODMxIDI5LjQzMTcgMTcuMTE4IDI4Ljk2NDUgMTcuMTE4IDI4LjQ4MzVDMTcuMTE4IDI3Ljg1NDkgMTcuMjM4NiAyNy4yNDEzIDE3LjQ4NDkgMjYuNjU5MkMxNy43MiAyNi4xMDMzIDE4LjA1MTMgMjUuNjAwMSAxOC40ODI0IDI1LjE2OTFDMTguOTE4IDI0LjczMzQgMTkuNDI1IDI0LjM5MTYgMTkuOTkyNiAyNC4xNTE1QzIwLjU3NDcgMjMuOTA1MiAyMS4xODgyIDIzLjc4NDYgMjEuODE2OCAyMy43ODQ2QzIyLjA3NTkgMjMuNzg0NiAyMi4zMzI0IDIzLjgwNTEgMjIuNTg1MyAyMy44NDY0QzIyLjkwNjUgMjMuNjE3OSAyMy4yNTIyIDIzLjQyNTEgMjMuNjIwNCAyMy4yNjkzQzI0LjI4NTEgMjIuOTg4MSAyNC45ODYzIDIyLjg0OTcgMjUuNzA4OSAyMi44NDk3QzI2LjQzMTYgMjIuODQ5NyAyNy4xMzI3IDIyLjk4ODEgMjcuNzk3NSAyMy4yNjkzQzI4LjQ0MzYgMjMuNTQyNyAyOS4wMTc2IDIzLjkzMjYgMjkuNTA0MyAyNC40MzY1QzMwLjAwODIgMjQuOTIzMiAzMC4zOTgxIDI1LjQ5NzIgMzAuNjcxNSAyNi4xNDMzQzMwLjk1MjcgMjYuODA4MSAzMS4wOTExIDI3LjUwOTMgMzEuMDkxMSAyOC4yMzE5QzMxLjA5MTEgMjguOTI1MiAzMC45NjM3IDI5LjU5ODggMzAuNzA1IDMwLjIzOTVDMzEuMTk2OSAzMC42Mjg4IDMxLjYzNDYgMzEuMDg3NyAzMi4wMTUyIDMxLjYxMjdDMzUuMjc5MiAzMS4wNDI2IDM3Ljk5OTkgMjguMzY4IDM3Ljk5OTkgMjQuMzU5MUMzNy45OTk5IDIwLjM3NTEgMzUuMTUyNiAxNy4zMTM1IDMxLjcyNDcgMTYuOTg5N0MzMC4zNTA3IDE0LjE0ODMgMjcuOCAxMi4yMzcxIDI0LjM5MzEgMTIuMjM3MVoiIGNsaXAtcnVsZT0iZXZlbm9kZCIgZmlsbC1ydWxlPSJldmVub2RkIi8+JiN4YTs8cGF0aCBmaWxsPSJ1cmwoI3BhaW50Ml9yYWRpYWxfMjYyMl8yMDQ3NSkiIGQ9Ik0yOC4zMzY4IDMwLjgwNzhDMjkuMzA4MiAzMS4xODk0IDMwLjA5NzQgMzEuODEzOCAzMC43MDQ1IDMyLjY4MTFDMzEuMzExNiAzMy41NDg0IDMxLjYxNTIgMzQuNTI4NSAzMS42MTUyIDM1LjYyMTNWMzcuMTA0NEMzMS42MTUyIDM3LjMxMjUgMzEuNTM3MSAzNy40ODYgMzEuMzgxIDM3LjYyNDdDMzEuMjQyMiAzNy43NjM1IDMxLjA3NzQgMzcuODMyOSAzMC44ODY2IDM3LjgzMjlIMjkuNDAzNkMyOS4xOTU0IDM3LjgzMjkgMjkuMDEzMyAzNy43NjM1IDI4Ljg1NzIgMzcuNjI0N0MyOC43MTg0IDM3LjQ4NiAyOC42NDkgMzcuMzEyNSAyOC42NDkgMzcuMTA0NEMyOC42NDkgMzYuODk2MiAyOC43MTg0IDM2LjcyMjcgMjguODU3MiAzNi41ODRDMjkuMDEzMyAzNi40Mjc5IDI5LjE5NTQgMzYuMzQ5OCAyOS40MDM2IDM2LjM0OThIMzAuMTMyMVYzNS42MjEzQzMwLjEzMjEgMzUuMTE4MiAzMC4wMzY3IDM0LjY0MTIgMjkuODQ1OSAzNC4xOTAyQzI5LjY1NTEgMzMuNzM5MiAyOS4zODYyIDMzLjM0OSAyOS4wMzkzIDMzLjAxOTRDMjguNzA5NyAzMi42NzI1IDI4LjMxOTUgMzIuNDAzNiAyNy44Njg1IDMyLjIxMjhDMjcuNDM0OCAzMi4wMjIgMjYuOTU3OCAzMS45MjY2IDI2LjQzNzUgMzEuOTI2NkgyNC45ODA0QzI0LjQ2IDMxLjkyNjYgMjMuOTc0NCAzMi4wMjIgMjMuNTIzNCAzMi4yMTI4QzIzLjA4OTcgMzIuNDAzNiAyMi42OTk0IDMyLjY3MjUgMjIuMzUyNSAzMy4wMTk0QzIyLjAyMyAzMy4zNDkgMjEuNzYyOCAzMy43MzkyIDIxLjU3MiAzNC4xOTAyQzIxLjM4MTIgMzQuNjQxMiAyMS4yODU4IDM1LjExODIgMjEuMjg1OCAzNS42MjEzVjM2LjM0OThIMjIuMDE0M0MyMi4yMjI0IDM2LjM0OTggMjIuMzk1OSAzNi40Mjc5IDIyLjUzNDcgMzYuNTg0QzIyLjY3MzQgMzYuNzIyNyAyMi43NDI4IDM2Ljg5NjIgMjIuNzQyOCAzNy4xMDQ0QzIyLjc0MjggMzcuMzEyNSAyMi42NzM0IDM3LjQ4NiAyMi41MzQ3IDM3LjYyNDdDMjIuMzk1OSAzNy43NjM1IDIyLjIyMjQgMzcuODMyOSAyMi4wMTQzIDM3LjgzMjlIMjAuNTMxMkMyMC4zNDA0IDM3LjgzMjkgMjAuMTY3IDM3Ljc2MzUgMjAuMDEwOSAzNy42MjQ3QzE5Ljg3MjEgMzcuNDg2IDE5LjgwMjcgMzcuMzEyNSAxOS44MDI3IDM3LjEwNDRMMTkuODAyNyAzNi4wNTAySDE3LjgyMzRDMTcuNjMyOCAzNi4wNTAyIDE3LjQ2MTYgMzUuOTc5NSAxNy4zMTQ2IDM1Ljg0ODhMMTcuMzA3NSAzNS44NDI1QzE3LjE2ODEgMzUuNzAzMSAxNy4wOTk4IDM1LjUyNzEgMTcuMDk5OCAzNS4zMjY1VjM0LjE4MjdDMTcuMDk5OCAzMy43MzkyIDE3LjE2MjEgMzMuMzIxIDE3LjI4ODEgMzIuOTI5MUwxNy4yODkyIDMyLjkyNTlDMTcuNDI3MiAzMi41MjU2IDE3LjYwNzEgMzIuMTU4NiAxNy44MjkzIDMxLjgyNTNMMTcuODMxOCAzMS44MjE1QzE4LjA2NzggMzEuNDg4MyAxOC4zNDU4IDMxLjE5NjQgMTguNjY1MiAzMC45NDYxQzE4LjkyNDIgMzAuNzMyNCAxOS4yMDU5IDMwLjU1NSAxOS41MTAxIDMwLjQxNEMxOS4wMzk4IDI5Ljg4ODUgMTguODA1NSAyOS4yNDE5IDE4LjgwNTUgMjguNDgzNUMxOC44MDU1IDI4LjA3NDUgMTguODgzMiAyNy42ODUxIDE5LjAzOSAyNy4zMTY3QzE5LjE5MzkgMjYuOTUwNyAxOS40MDYgMjYuNjMyIDE5LjY3NTYgMjYuMzYyM0MxOS45NTc5IDI2LjA4MDEgMjAuMjgzIDI1Ljg2MDkgMjAuNjUwMSAyNS43MDU2QzIxLjAxODQgMjUuNTQ5OCAyMS40MDc4IDI1LjQ3MjEgMjEuODE2OCAyNS40NzIxQzIyLjIyNTkgMjUuNDcyMSAyMi42MTUyIDI1LjU0OTggMjIuOTgzNiAyNS43MDU2TDIzLjAwMDggMjUuNzEzQzIzLjAyNzEgMjUuNjg0OSAyMy4wNTM4IDI1LjY1NzMgMjMuMDgxIDI1LjYzQzIzLjQyOCAyNS4yODMxIDIzLjgyNjkgMjUuMDE0MiAyNC4yNzc5IDI0LjgyMzRDMjQuNzI4OSAyNC42MzI2IDI1LjIwNTkgMjQuNTM3MiAyNS43MDg5IDI0LjUzNzJDMjYuMjEyIDI0LjUzNzIgMjYuNjg5IDI0LjYzMjYgMjcuMTQgMjQuODIzNEMyNy41OTA5IDI1LjAxNDIgMjcuOTgxMiAyNS4yODMxIDI4LjMxMDggMjUuNjNDMjguNjU3NyAyNS45NTk2IDI4LjkyNjYgMjYuMzQ5OSAyOS4xMTc0IDI2LjgwMDlDMjkuMzA4MiAyNy4yNTE5IDI5LjQwMzYgMjcuNzI4OSAyOS40MDM2IDI4LjIzMTlDMjkuNDAzNiAyOC43MzQ5IDI5LjMwODIgMjkuMjEyIDI5LjExNzQgMjkuNjYzQzI4LjkyNjYgMzAuMDk2NiAyOC42NjY0IDMwLjQ3ODIgMjguMzM2OCAzMC44MDc4Wk0yMC4wMzY5IDM0LjA2MDFDMTkuOTgyMiAzNC4yMzAxIDE5LjkzNzIgMzQuNDA0MyAxOS45MDE3IDM0LjU4MjdIMTguNTY3MlYzNC4xODI3QzE4LjU2NzIgMzMuODE1NyAxOC42MzY3IDMzLjQ2OTMgMTguNzc1MiAzMy4xNDJDMTguOTE0NiAzMi44MTI0IDE5LjEwMzkgMzIuNTI5IDE5LjM0MjYgMzIuMjkwM0MxOS41OTYyIDMyLjAzNjcgMTkuODgwMyAzMS44NDEyIDIwLjE5NTMgMzEuNzAyNEMyMC41MjE2IDMxLjU2NDUgMjAuODc0MyAzMS40OTQ5IDIxLjI1NDkgMzEuNDk0OUgyMS44NzA4QzIxLjgzMTUgMzEuNTI1NCAyMS43OTI2IDMxLjU1NjYgMjEuNzU0MSAzMS41ODg0QzIxLjM1NTEgMzEuOTAwNiAyMS4wMDgyIDMyLjI2NDggMjAuNzEzNCAzMi42ODExQzIwLjQzNTggMzMuMDk3NCAyMC4yMTAzIDMzLjU1NzEgMjAuMDM2OSAzNC4wNjAxWk0yNS43MDg5IDI2LjAyMDNDMjUuMTAxOCAyNi4wMjAzIDI0LjU4MTUgMjYuMjM3MSAyNC4xNDc4IDI2LjY3MDhDMjMuNzE0MiAyNy4xMDQ0IDIzLjQ5NzMgMjcuNjI0OCAyMy40OTczIDI4LjIzMTlDMjMuNDk3MyAyOC44MzkgMjMuNzE0MiAyOS4zNTk0IDI0LjE0NzggMjkuNzkzQzI0LjU4MTUgMzAuMjI2NyAyNS4xMDE4IDMwLjQ0MzUgMjUuNzA4OSAzMC40NDM1QzI2LjMxNiAzMC40NDM1IDI2LjgzNjQgMzAuMjI2NyAyNy4yNyAyOS43OTNDMjcuNzAzNyAyOS4zNTk0IDI3LjkyMDUgMjguODM5IDI3LjkyMDUgMjguMjMxOUMyNy45MjA1IDI3LjYyNDggMjcuNzAzNyAyNy4xMDQ0IDI3LjI3IDI2LjY3MDhDMjYuODM2NCAyNi4yMzcxIDI2LjMxNiAyNi4wMjAzIDI1LjcwODkgMjYuMDIwM1pNMjIuMDE0MyAyOC4yMzE5QzIyLjAxNDMgMjguODU5NiAyMi4xNDM2IDI5LjQyMTEgMjIuNDAyMyAyOS45MTYzQzIyLjIyMjMgMjkuOTkwNiAyMi4wMjc1IDMwLjAyNzQgMjEuODE2OCAzMC4wMjc0QzIxLjM5MiAzMC4wMjc0IDIxLjAzMTcgMjkuODc3NiAyMC43MjcyIDI5LjU3MzFDMjAuNDIyOCAyOS4yNjg3IDIwLjI3MjkgMjguOTA4MyAyMC4yNzI5IDI4LjQ4MzVDMjAuMjcyOSAyOC4wNTg3IDIwLjQyMjggMjcuNjk4MyAyMC43MjcyIDI3LjM5MzlDMjEuMDMxNyAyNy4wODk0IDIxLjM5MiAyNi45Mzk2IDIxLjgxNjggMjYuOTM5NkMyMS45NjA1IDI2LjkzOTYgMjIuMDk2OSAyNi45NTY3IDIyLjIyNjIgMjYuOTkxMkMyMi4wODQ5IDI3LjM4NTUgMjIuMDE0MyAyNy43OTkxIDIyLjAxNDMgMjguMjMxOVoiIGNsaXAtcnVsZT0iZXZlbm9kZCIgZmlsbC1ydWxlPSJldmVub2RkIi8+JiN4YTs8ZGVmcz4mI3hhOzxsaW5lYXJHcmFkaWVudCBncmFkaWVudFVuaXRzPSJ1c2VyU3BhY2VPblVzZSIgeTI9IjQ0LjI3OTIiIHgyPSI0MS41NjQ1IiB5MT0iNi44NDc3NSIgeDE9IjQuODUyODciIGlkPSJwYWludDBfbGluZWFyXzI2MjJfMjA0NzUiPiYjeGE7PHN0b3Agc3RvcC1jb2xvcj0id2hpdGUiLz4mI3hhOzxzdG9wIHN0b3AtY29sb3I9IiNFQUVDRUUiIG9mZnNldD0iMSIvPiYjeGE7PC9saW5lYXJHcmFkaWVudD4mI3hhOzxyYWRpYWxHcmFkaWVudCBncmFkaWVudFRyYW5zZm9ybT0idHJhbnNsYXRlKDE1LjI1ODMgMTUuOTk1NCkgcm90YXRlKDQzLjg3NzkpIHNjYWxlKDI1Ljg1MjQgNDguODExNykiIGdyYWRpZW50VW5pdHM9InVzZXJTcGFjZU9uVXNlIiByPSIxIiBjeT0iMCIgY3g9IjAiIGlkPSJwYWludDFfcmFkaWFsXzI2MjJfMjA0NzUiPiYjeGE7PHN0b3Agc3RvcC1jb2xvcj0iIzAxOTVGRiIvPiYjeGE7PHN0b3Agc3RvcC1jb2xvcj0iIzExNDdFOSIgb2Zmc2V0PSIxIi8+JiN4YTs8L3JhZGlhbEdyYWRpZW50PiYjeGE7PHJhZGlhbEdyYWRpZW50IGdyYWRpZW50VHJhbnNmb3JtPSJ0cmFuc2xhdGUoMTUuMjUyMiAxNi4wODc2KSByb3RhdGUoNDMuNTYwMikgc2NhbGUoMjUuODcyNyAyMy41NDcxKSIgZ3JhZGllbnRVbml0cz0idXNlclNwYWNlT25Vc2UiIHI9IjEiIGN5PSIwIiBjeD0iMCIgaWQ9InBhaW50Ml9yYWRpYWxfMjYyMl8yMDQ3NSI+JiN4YTs8c3RvcCBzdG9wLWNvbG9yPSIjMTM0OEZGIi8+JiN4YTs8c3RvcCBzdG9wLWNvbG9yPSIjMDYyMzhEIiBvZmZzZXQ9IjEiLz4mI3hhOzwvcmFkaWFsR3JhZGllbnQ+JiN4YTs8L2RlZnM+JiN4YTs8L3N2Zz4=;points=[[0,0,0,0,0],[0,0.25,0,0,0],[0,0.5,0,0,0],[0,0.75,0,0,0],[0.25,0,0,0,0],[0.5,0,0,0,0],[0.75,0,0,0,0],[1,0,0,0,0],[1,0.25,0,0,0],[1,0.5,0,0,0],[1,0.75,0,0,0]];" vertex="1" parent="1">
          <mxGeometry x="667.3399999999999" y="1082" width="16" height="16" as="geometry" />
        </mxCell>
        <mxCell id="LzaylhxF4zsQOXDsUJ44-97" value="&lt;div style=&quot;font-size: 10px; line-height: 100%;&quot;&gt;&lt;span style=&quot;font-family: arial; font-size: 10px; background-color: initial;&quot;&gt;&lt;font style=&quot;font-size: 10px;&quot;&gt;Service&lt;/font&gt;&lt;/span&gt;&lt;/div&gt;" style="text;html=1;align=left;verticalAlign=middle;resizable=0;points=[];autosize=1;strokeColor=none;fillColor=none;fontSize=10;fontColor=#1D2D3E;fontFamily=Helvetica;labelPosition=center;verticalLabelPosition=middle;" vertex="1" parent="1">
          <mxGeometry x="691.3399999999999" y="1077.5" width="51" height="23" as="geometry" />
        </mxCell>
        <mxCell id="LzaylhxF4zsQOXDsUJ44-98" value="" style="shape=image;verticalLabelPosition=bottom;verticalAlign=top;imageAspect=0;aspect=fixed;image=data:image/svg+xml,PHN2ZyB4bWxucz0iaHR0cDovL3d3dy53My5vcmcvMjAwMC9zdmciIGZpbGw9Im5vbmUiIHZpZXdCb3g9IjAgMCAyNCAyNCIgaGVpZ2h0PSIyNCIgd2lkdGg9IjI0Ij4mI3hhOzxnIGNsaXAtcGF0aD0idXJsKCNjbGlwMF8xMTUzXzE5KSI+JiN4YTs8cGF0aCBmaWxsPSJ1cmwoI3BhaW50MF9saW5lYXJfMTE1M18xOSkiIGQ9Ik0wLjAwNDI4NTY2IDIyLjYyODZDMC4wMDQyODU2NiAyMy4zODI5IDAuNjIxMzE3IDI0IDEuMzc1NDcgMjRIMjIuNjI4OEMyMy4zODMgMjQgMjQgMjMuMzgyOSAyNCAyMi42Mjg2QzI0IDIxLjg3NDMgMjMuMzgzIDIxLjI1NzEgMjIuNjI4OCAyMS4yNTcxSDEuMzc1NDdDMC42MjEzMTcgMjEuMjU3MSAwLjAwNDI4NTY2IDIxLjg3NDMgMC4wMDQyODU2NiAyMi42Mjg2WiIvPiYjeGE7PHBhdGggZmlsbD0idXJsKCNwYWludDFfbGluZWFyXzExNTNfMTkpIiBkPSJNMTMuMzczMyAxOC44NTcxSDIyLjYyODhDMjMuMzgzIDE4Ljg1NzEgMjQgMTguMjQgMjQgMTcuNDg1N0MyNCAxNi43MzE0IDIzLjM4MyAxNi4xMTQzIDIyLjYyODggMTYuMTE0M0gxMy4zNzMzQzEyLjYxOTIgMTYuMTE0MyAxMi4wMDIxIDE2LjczMTQgMTIuMDAyMSAxNy40ODU3QzEyLjAwMjEgMTguMjQgMTIuNjE5MiAxOC44NTcxIDEzLjM3MzMgMTguODU3MVoiLz4mI3hhOzxwYXRoIGZpbGw9InVybCgjcGFpbnQyX2xpbmVhcl8xMTUzXzE5KSIgZD0iTTEzLjM3MzMgMTMuNzE0M0gyMi42Mjg4QzIzLjM4MyAxMy43MTQzIDI0IDEzLjA5NzEgMjQgMTIuMzQyOUMyNCAxMS41ODg2IDIzLjM4MyAxMC45NzE0IDIyLjYyODggMTAuOTcxNEgxMy4zNzMzQzEyLjYxOTIgMTAuOTcxNCAxMi4wMDIxIDExLjU4ODYgMTIuMDAyMSAxMi4zNDI5QzEyLjAwMjEgMTMuMDk3MSAxMi42MTkyIDEzLjcxNDMgMTMuMzczMyAxMy43MTQzWiIvPiYjeGE7PHBhdGggZmlsbD0idXJsKCNwYWludDNfbGluZWFyXzExNTNfMTkpIiBkPSJNMTMuMzczMyA3Ljg4NTcxSDIyLjYyODhDMjMuMzgzIDcuODg1NzEgMjQgNy4yNjg1NyAyNCA2LjUxNDI5QzI0IDUuNzYgMjMuMzgzIDUuMTQyODYgMjIuNjI4OCA1LjE0Mjg2SDEzLjM3MzNDMTIuNjE5MiA1LjE0Mjg2IDEyLjAwMjEgNS43NiAxMi4wMDIxIDYuNTE0MjlDMTIuMDAyMSA3LjI2ODU3IDEyLjYxOTIgNy44ODU3MSAxMy4zNzMzIDcuODg1NzFaIi8+JiN4YTs8cGF0aCBmaWxsPSJ1cmwoI3BhaW50NF9saW5lYXJfMTE1M18xOSkiIGQ9Ik0xLjM3NTQ3IDIuNzQyODZIMjIuNjI4OEMyMy4zODMgMi43NDI4NiAyNCAyLjEyNTcxIDI0IDEuMzcxNDNDMjQgMC42MTcxNDMgMjMuMzgzIDAgMjIuNjI4OCAwSDEuMzc1NDdDMC42MjEzMTcgMCAwLjAwNDI4NTY2IDAuNjE3MTQzIDAuMDA0Mjg1NjYgMS4zNzE0M0MwLjAwNDI4NTY2IDIuMTI1NzEgMC42MjEzMTcgMi43NDI4NiAxLjM3NTQ3IDIuNzQyODZaIi8+JiN4YTs8cGF0aCBmaWxsPSJ1cmwoI3BhaW50NV9saW5lYXJfMTE1M18xOSkiIGQ9Ik0wLjM5ODUgMTcuNDM0MkMwLjY3MjczNyAxNy42OTE0IDEuMDMyNjcgMTcuODI4NSAxLjM3NTQ3IDE3LjgyODVMMS4zNTgzMyAxNy44NjI4QzEuNzE4MjYgMTcuODYyOCAyLjA2MTA2IDE3Ljc0MjggMi4zMzUzIDE3LjQ2ODVMNi40NDg4NSAxMy4zNTQyQzYuNzA1OTUgMTMuMDk3MSA2Ljg0MzA2IDEyLjc1NDIgNi44NDMwNiAxMi4zNzcxQzYuODQzMDYgMTEuOTk5OSA2LjcwNTk1IDExLjY1NzEgNi40NDg4NSAxMS4zOTk5TDIuMzM1MyA3LjI4NTY0QzEuODAzOTYgNi43NTQyMSAwLjkyOTgzNCA2Ljc1NDIxIDAuMzk4NSA3LjI4NTY0Qy0wLjEzMjgzMyA3LjgxNzA3IC0wLjEzMjgzMyA4LjY5MTM1IDAuMzk4NSA5LjIyMjc4TDMuNTM1MDggMTIuMzU5OUwwLjM5ODUgMTUuNDk3MUMtMC4xMzI4MzMgMTYuMDI4NSAtMC4xMzI4MzMgMTYuOTAyOCAwLjM5ODUgMTcuNDM0MloiLz4mI3hhOzwvZz4mI3hhOzxkZWZzPiYjeGE7PGxpbmVhckdyYWRpZW50IGdyYWRpZW50VW5pdHM9InVzZXJTcGFjZU9uVXNlIiB5Mj0iMjQiIHgyPSIxMiIgeTE9IjAiIHgxPSIxMiIgaWQ9InBhaW50MF9saW5lYXJfMTE1M18xOSI+JiN4YTs8c3RvcCBzdG9wLWNvbG9yPSIjNUI3MzhCIi8+JiN4YTs8c3RvcCBzdG9wLWNvbG9yPSIjMjIzNTQ4IiBvZmZzZXQ9IjEiLz4mI3hhOzwvbGluZWFyR3JhZGllbnQ+JiN4YTs8bGluZWFyR3JhZGllbnQgZ3JhZGllbnRVbml0cz0idXNlclNwYWNlT25Vc2UiIHkyPSIyNCIgeDI9IjEyIiB5MT0iMCIgeDE9IjEyIiBpZD0icGFpbnQxX2xpbmVhcl8xMTUzXzE5Ij4mI3hhOzxzdG9wIHN0b3AtY29sb3I9IiM1QjczOEIiLz4mI3hhOzxzdG9wIHN0b3AtY29sb3I9IiMyMjM1NDgiIG9mZnNldD0iMSIvPiYjeGE7PC9saW5lYXJHcmFkaWVudD4mI3hhOzxsaW5lYXJHcmFkaWVudCBncmFkaWVudFVuaXRzPSJ1c2VyU3BhY2VPblVzZSIgeTI9IjI0IiB4Mj0iMTIiIHkxPSIwIiB4MT0iMTIiIGlkPSJwYWludDJfbGluZWFyXzExNTNfMTkiPiYjeGE7PHN0b3Agc3RvcC1jb2xvcj0iIzVCNzM4QiIvPiYjeGE7PHN0b3Agc3RvcC1jb2xvcj0iIzIyMzU0OCIgb2Zmc2V0PSIxIi8+JiN4YTs8L2xpbmVhckdyYWRpZW50PiYjeGE7PGxpbmVhckdyYWRpZW50IGdyYWRpZW50VW5pdHM9InVzZXJTcGFjZU9uVXNlIiB5Mj0iMjQiIHgyPSIxMiIgeTE9IjAiIHgxPSIxMiIgaWQ9InBhaW50M19saW5lYXJfMTE1M18xOSI+JiN4YTs8c3RvcCBzdG9wLWNvbG9yPSIjNUI3MzhCIi8+JiN4YTs8c3RvcCBzdG9wLWNvbG9yPSIjMjIzNTQ4IiBvZmZzZXQ9IjEiLz4mI3hhOzwvbGluZWFyR3JhZGllbnQ+JiN4YTs8bGluZWFyR3JhZGllbnQgZ3JhZGllbnRVbml0cz0idXNlclNwYWNlT25Vc2UiIHkyPSIyNCIgeDI9IjEyIiB5MT0iMCIgeDE9IjEyIiBpZD0icGFpbnQ0X2xpbmVhcl8xMTUzXzE5Ij4mI3hhOzxzdG9wIHN0b3AtY29sb3I9IiM1QjczOEIiLz4mI3hhOzxzdG9wIHN0b3AtY29sb3I9IiMyMjM1NDgiIG9mZnNldD0iMSIvPiYjeGE7PC9saW5lYXJHcmFkaWVudD4mI3hhOzxsaW5lYXJHcmFkaWVudCBncmFkaWVudFVuaXRzPSJ1c2VyU3BhY2VPblVzZSIgeTI9IjI0IiB4Mj0iMTIiIHkxPSIwIiB4MT0iMTIiIGlkPSJwYWludDVfbGluZWFyXzExNTNfMTkiPiYjeGE7PHN0b3Agc3RvcC1jb2xvcj0iIzVCNzM4QiIvPiYjeGE7PHN0b3Agc3RvcC1jb2xvcj0iIzIyMzU0OCIgb2Zmc2V0PSIxIi8+JiN4YTs8L2xpbmVhckdyYWRpZW50PiYjeGE7PGNsaXBQYXRoIGlkPSJjbGlwMF8xMTUzXzE5Ij4mI3hhOzxyZWN0IGZpbGw9IndoaXRlIiBoZWlnaHQ9IjI0IiB3aWR0aD0iMjQiLz4mI3hhOzwvY2xpcFBhdGg+JiN4YTs8L2RlZnM+JiN4YTs8L3N2Zz4=;" vertex="1" parent="1">
          <mxGeometry x="112" y="779.24" width="50.76" height="50.76" as="geometry" />
        </mxCell>
      </root>
    </mxGraphModel>
  </diagram>
  <diagram id="UVYnEkT7Y_FdzOwTqs_V" name="Page-4">
    <mxGraphModel dx="2066" dy="1404" grid="1" gridSize="10" guides="1" tooltips="1" connect="1" arrows="1" fold="1" page="1" pageScale="1" pageWidth="1169" pageHeight="827" math="0" shadow="0">
      <root>
        <mxCell id="0" />
        <mxCell id="1" parent="0" />
        <mxCell id="xxQtwJK1Ct0SI2btYNsA-1" value="" style="shape=mxgraph.sap.icon;labelPosition=center;verticalLabelPosition=bottom;align=center;verticalAlign=top;strokeWidth=1;strokeColor=#D5DADD;fillColor=#EDEFF0;gradientColor=#FCFCFC;gradientDirection=west;aspect=fixed;SAPIcon=SAP_Integration_Suite_-_Advanced_Event_Mesh" vertex="1" parent="1">
          <mxGeometry x="340" y="490" width="50" height="50" as="geometry" />
        </mxCell>
        <mxCell id="xxQtwJK1Ct0SI2btYNsA-2" value="" style="shape=mxgraph.sap.icon;labelPosition=center;verticalLabelPosition=bottom;align=center;verticalAlign=top;strokeWidth=1;strokeColor=#D5DADD;fillColor=#EDEFF0;gradientColor=#FCFCFC;gradientDirection=west;aspect=fixed;SAPIcon=SAP_Event_Broker_for_SAP_Cloud_Applications" vertex="1" parent="1">
          <mxGeometry x="300" y="290" width="50" height="50" as="geometry" />
        </mxCell>
      </root>
    </mxGraphModel>
  </diagram>
</mxfile>
